<svg width="1346" height="965" viewBox="0 0 1346 965" fill="none" xmlns="http://www.w3.org/2000/svg">
<g clip-path="url(#clip0)">
<g clip-path="url(#clip1)">
<path d="M84.5928 935.116C116.093 959.499 156.915 960.723 196.374 957.728C201.884 957.31 207.355 956.82 212.775 956.291C212.808 956.282 212.851 956.285 212.884 956.276C213.145 956.249 213.406 956.223 213.655 956.207C214.774 956.094 215.893 955.982 217.001 955.869L216.74 956.405L215.918 958.071C216.213 957.514 216.508 956.968 216.804 956.41C216.891 956.243 216.988 956.076 217.074 955.909C227.296 936.796 237.435 916.981 240.021 895.156C242.694 872.502 235.181 846.851 216.626 835.717C214.192 834.261 211.615 833.101 208.943 832.259C207.833 831.897 206.708 831.603 205.571 831.343C198.611 829.682 191.366 830.044 184.58 832.389C177.794 834.735 171.712 838.98 166.959 844.689C162.206 850.397 158.954 857.363 157.537 864.87C156.12 872.377 156.59 880.153 158.898 887.401C143.166 870.068 146.101 841.949 151.527 818.449C156.964 794.95 163.547 768.8 152.488 747.693C146.34 735.945 135.53 728.655 123.398 725.719C123.026 725.633 122.654 725.547 122.281 725.472C107.826 722.326 92.7987 725.155 80.2003 733.394C57.0028 749.101 45.0883 778.882 41.2213 808.055C34.9908 855 48.7787 907.391 84.5928 935.116Z" fill="#F2F2F2"/>
<path d="M94.763 859.862C95.6774 870.217 97.9924 880.374 101.635 890.011C104.992 898.539 109.516 906.48 115.058 913.57C126.581 928.061 141.173 939.366 157.609 946.536C170.04 952.007 183.065 955.767 196.374 957.728C201.884 957.31 207.355 956.82 212.775 956.291C212.808 956.282 212.851 956.285 212.884 956.276C213.145 956.25 213.406 956.223 213.655 956.207C214.774 956.095 215.893 955.982 217.001 955.869L216.739 956.406L215.918 958.071C216.213 957.514 216.508 956.968 216.803 956.411C216.89 956.243 216.988 956.077 217.074 955.909C207.096 945.228 199.647 932.132 195.349 917.72C191.052 903.307 190.032 887.998 192.375 873.075C194.827 858.258 200.504 844.272 208.942 832.26C207.833 831.897 206.708 831.603 205.57 831.343C202.363 836.054 199.55 841.06 197.164 846.303C188.602 865.002 185.87 886.166 189.374 906.662C192.63 925.21 200.745 942.374 212.764 956.14C211.711 956.06 210.649 955.968 209.609 955.866C189.912 954.073 170.255 949.523 152.39 940.204C137.119 932.431 123.862 920.742 113.785 906.168C102.965 890.135 98.1974 870.849 97.3784 851.248C96.7481 830.13 98.8081 809.019 103.501 788.501C108.052 767.58 114.969 747.335 124.097 728.219C124.301 727.786 124.343 727.284 124.212 726.819C124.082 726.354 123.79 725.96 123.398 725.719C123.07 725.482 122.669 725.394 122.281 725.472C122.091 725.526 121.915 725.626 121.766 725.763C121.617 725.9 121.498 726.072 121.419 726.265C120.293 728.627 119.188 730.99 118.125 733.379C109.271 753.282 102.753 774.29 98.7194 795.92C94.8039 816.786 92.714 838.614 94.763 859.862Z" fill="white"/>
<path d="M1278.59 924.898C1231.06 961.688 1169.47 963.535 1109.93 959.016C1101.62 958.385 1093.36 957.646 1085.18 956.848C1085.14 956.834 1085.07 956.839 1085.02 956.825C1084.63 956.785 1084.23 956.745 1083.86 956.721C1082.17 956.551 1080.48 956.382 1078.81 956.211L1079.2 957.021L1080.44 959.534C1080 958.693 1079.55 957.869 1079.11 957.028C1078.98 956.776 1078.83 956.524 1078.7 956.272C1063.28 927.433 1047.98 897.536 1044.08 864.606C1040.04 830.426 1051.38 791.723 1079.38 774.923C1083.05 772.727 1086.94 770.977 1090.97 769.707C1092.64 769.16 1094.34 768.716 1096.06 768.324C1106.56 765.819 1117.49 766.364 1127.73 769.903C1137.97 773.442 1147.14 779.847 1154.31 788.461C1161.49 797.074 1166.39 807.584 1168.53 818.91C1170.67 830.237 1169.96 841.97 1166.48 852.905C1190.21 826.753 1185.79 784.327 1177.6 748.87C1169.39 713.413 1159.46 673.959 1176.15 642.112C1185.42 624.385 1201.73 613.387 1220.04 608.957C1220.6 608.827 1221.16 608.697 1221.72 608.584C1243.53 603.837 1266.21 608.106 1285.22 620.538C1320.22 644.237 1338.19 689.171 1344.03 733.187C1353.43 804.018 1332.63 883.067 1278.59 924.898Z" fill="#F2F2F2"/>
<path d="M1279.94 811.526C1278.56 827.149 1275.07 842.473 1269.57 857.014C1264.51 869.881 1257.68 881.862 1249.32 892.561C1232.24 914.64 1209.65 931.24 1185.12 942.3C1166.36 950.554 1146.71 956.228 1126.63 959.187C1118.32 958.557 1110.06 957.817 1101.88 957.019C1101.83 957.005 1101.77 957.01 1101.72 956.997C1101.33 956.956 1100.93 956.916 1100.56 956.892C1098.87 956.722 1097.18 956.553 1095.51 956.382L1095.9 957.192L1097.14 959.705C1096.7 958.864 1096.25 958.04 1095.81 957.199C1095.67 956.947 1095.53 956.696 1095.4 956.443C1110.45 940.326 1121.69 920.567 1128.18 898.822C1134.66 877.076 1136.2 853.978 1132.66 831.461C1128.96 809.104 1120.4 788.003 1107.67 769.878C1109.34 769.331 1111.04 768.888 1112.75 768.495C1117.59 775.603 1121.84 783.156 1125.44 791.067C1138.36 819.28 1142.48 851.212 1137.19 882.138C1132.28 910.123 1120.03 936.021 1101.9 956.79C1103.49 956.67 1105.09 956.531 1106.66 956.377C1136.38 953.672 1166.04 946.807 1192.99 932.746C1216.03 921.018 1236.04 903.383 1251.24 881.392C1267.57 857.201 1274.76 828.102 1276 798.527C1277.31 766.865 1273.48 734.646 1266.76 703.854C1259.89 672.288 1249.45 641.742 1235.68 612.9C1235.37 612.245 1235.31 611.489 1235.51 610.787C1235.7 610.085 1236.14 609.491 1236.74 609.128C1237.23 608.77 1237.84 608.636 1238.42 608.755C1238.71 608.837 1238.97 608.987 1239.2 609.194C1239.43 609.401 1239.6 609.66 1239.72 609.952C1241.42 613.515 1243.09 617.08 1244.69 620.685C1258.05 650.715 1267.89 682.412 1273.97 715.048C1279.88 746.531 1283.03 779.466 1279.94 811.526Z" fill="white"/>
<path d="M378.984 934.694H400.03L410.041 847.474L378.981 847.476L378.984 934.694Z" fill="#A0616A"/>
<path d="M440.617 955.688L374.476 955.692L374.475 928.234L415.062 928.232C421.839 928.232 428.339 931.124 433.132 936.273C437.924 941.422 440.617 948.406 440.617 955.688V955.688V955.688Z" fill="#2F2E41"/>
<path d="M300.022 934.694H321.067L331.078 847.474L300.019 847.476L300.022 934.694Z" fill="#A0616A"/>
<path d="M361.655 955.688L295.514 955.692L295.513 928.234L336.099 928.232C342.877 928.232 349.377 931.124 354.169 936.273C358.962 941.422 361.654 948.406 361.655 955.688V955.688V955.688Z" fill="#2F2E41"/>
<path d="M280.727 807.394C283.009 806.328 284.941 804.91 286.388 803.242C287.835 801.574 288.761 799.695 289.1 797.739C289.44 795.782 289.185 793.795 288.354 791.918C287.523 790.041 286.136 788.319 284.29 786.874L298.237 643.035L258.061 645.866L256.958 786.728C253.822 789.143 252.014 792.309 251.877 795.628C251.739 798.946 253.281 802.186 256.211 804.733C259.141 807.281 263.255 808.959 267.773 809.449C272.292 809.939 276.901 809.208 280.727 807.394L280.727 807.394Z" fill="#A0616A"/>
<path d="M379.521 890.356C377.631 890.351 375.809 889.828 374.396 888.886C372.982 887.943 372.075 886.645 371.845 885.235L359.604 808.277C359.431 807.194 358.743 806.194 357.666 805.462C356.589 804.73 355.196 804.315 353.745 804.295C352.293 804.275 350.881 804.651 349.769 805.352C348.657 806.054 347.92 807.034 347.694 808.112L332.274 881.797C331.995 883.167 331.07 884.416 329.669 885.316C328.267 886.217 326.482 886.71 324.638 886.704H299.644C298.624 886.704 297.614 886.552 296.673 886.257C295.731 885.963 294.876 885.531 294.158 884.986C293.439 884.442 292.871 883.797 292.486 883.087C292.101 882.377 291.907 881.616 291.914 880.85L303.843 717.471C303.847 716.08 304.519 714.737 305.735 713.689C306.951 712.64 308.63 711.957 310.463 711.764L403.211 701.644C404.313 701.524 405.437 701.584 406.505 701.821C407.573 702.057 408.561 702.464 409.4 703.014C410.24 703.564 410.911 704.244 411.369 705.007C411.826 705.77 412.059 706.598 412.052 707.435L410.434 883.755C410.42 885.241 409.649 886.666 408.28 887.738C406.91 888.81 405.047 889.447 403.072 889.517L379.888 890.348C379.765 890.353 379.643 890.356 379.521 890.356Z" fill="#2F2E41"/>
<path d="M326.874 732.877C317.962 732.852 309.124 731.698 300.748 729.466C299.328 729.082 298.095 728.399 297.204 727.502C296.313 726.606 295.804 725.535 295.741 724.427C294.942 711.42 290.266 644.471 276.653 603.634C274.007 595.623 274.654 587.217 278.512 579.475C282.371 571.733 289.269 565.002 298.335 560.131C299.068 559.745 299.814 559.366 300.575 558.994C308.448 555.151 317.532 552.848 326.961 552.306C336.391 551.764 345.853 553.001 354.447 555.898C363.325 558.811 371.039 563.341 376.854 569.058C382.67 574.775 386.394 581.488 387.672 588.559L409.872 709.417C410.014 710.173 409.946 710.942 409.672 711.677C409.397 712.413 408.922 713.1 408.274 713.697C407.641 714.29 406.85 714.782 405.949 715.144C405.048 715.506 404.057 715.73 403.035 715.802C395.342 716.365 379.389 718.551 358.97 726.87C349.152 730.858 338.099 732.927 326.874 732.877V732.877Z" fill="#FFD037"/>
<path d="M302.547 663.021L266 652.373C264.024 651.795 262.342 650.398 261.323 648.489C260.305 646.58 260.032 644.315 260.566 642.191L273.414 591.275C274.79 585.821 277.997 581.108 282.415 578.044C286.834 574.98 292.153 573.783 297.345 574.682C302.536 575.582 307.235 578.516 310.533 582.917C313.831 587.318 315.496 592.876 315.206 598.518L312.282 655.467C312.218 656.702 311.899 657.906 311.347 658.991C310.795 660.076 310.024 661.015 309.091 661.739C308.158 662.463 307.087 662.954 305.954 663.176C304.822 663.397 303.658 663.344 302.547 663.021V663.021Z" fill="#FFD037"/>
<path d="M319.321 547.894C342.606 547.894 361.482 527.612 361.482 502.593C361.482 477.574 342.606 457.292 319.321 457.292C296.036 457.292 277.16 477.574 277.16 502.593C277.16 527.612 296.036 547.894 319.321 547.894Z" fill="#A0616A"/>
<path d="M486.088 569.936C485.939 570.85 485.843 571.779 485.799 572.714L433.9 614.69L421.285 604.509L407.837 629.191L434.823 656.158L494.032 590.671C496.447 591.923 499.077 592.116 501.572 591.222C504.066 590.329 506.308 588.391 507.998 585.668C509.689 582.945 510.748 579.565 511.034 575.977C511.321 572.39 510.822 568.765 509.604 565.585C508.385 562.405 506.505 559.82 504.213 558.174C501.921 556.529 499.326 555.9 496.774 556.373C494.221 556.845 491.831 558.396 489.922 560.819C488.013 563.241 486.676 566.422 486.088 569.936Z" fill="#A0616A"/>
<path d="M424.589 622.142L392.825 644.291C391.106 645.486 389.015 645.901 387.012 645.443C385.009 644.984 383.257 643.691 382.14 641.847L355.413 597.595C352.55 592.855 351.422 587.143 352.246 581.562C353.07 575.981 355.788 570.926 359.875 567.371C363.963 563.815 369.131 562.012 374.383 562.308C379.635 562.605 384.598 564.98 388.317 568.976L425.847 609.311C426.661 610.185 427.282 611.244 427.667 612.41C428.051 613.576 428.187 614.819 428.067 616.049C427.946 617.279 427.571 618.464 426.97 619.518C426.368 620.572 425.555 621.469 424.589 622.142H424.589Z" fill="#FFD037"/>
<path d="M280.804 531.224C288.67 540.227 303.277 535.394 304.301 523.096C304.382 522.141 304.376 521.18 304.284 520.226C303.755 514.779 300.826 509.833 301.527 504.081C301.686 502.649 302.183 501.285 302.969 500.117C309.237 491.099 323.95 504.151 329.865 495.987C333.492 490.981 329.229 483.1 332.012 477.505C335.686 470.121 346.567 473.763 353.39 469.719C360.982 465.22 360.528 452.704 355.53 445.091C349.436 435.807 338.75 430.853 328.197 430.139C317.644 429.425 307.164 432.49 297.312 436.616C286.118 441.303 275.017 447.781 268.129 458.357C259.751 471.219 258.945 488.51 263.135 503.549C265.683 512.697 274.381 523.873 280.804 531.224Z" fill="#2F2E41"/>
<path d="M655.733 959H1.71658C1.26131 959 0.824694 958.806 0.502773 958.46C0.180852 958.114 0 957.645 0 957.155C0 956.666 0.180852 956.197 0.502773 955.851C0.824694 955.505 1.26131 955.311 1.71658 955.311H655.733C656.188 955.311 656.625 955.505 656.947 955.851C657.269 956.197 657.45 956.666 657.45 957.155C657.45 957.645 657.269 958.114 656.947 958.46C656.625 958.806 656.188 959 655.733 959Z" fill="#3F3D56"/>
<path d="M1328.92 959H674.907C674.452 959 674.015 958.806 673.693 958.46C673.371 958.114 673.19 957.645 673.19 957.155C673.19 956.666 673.371 956.197 673.693 955.851C674.015 955.505 674.452 955.311 674.907 955.311H1328.92C1329.38 955.311 1329.82 955.505 1330.14 955.851C1330.46 956.197 1330.64 956.666 1330.64 957.155C1330.64 957.645 1330.46 958.114 1330.14 958.46C1329.82 958.806 1329.38 959 1328.92 959Z" fill="#3F3D56"/>
<path d="M974.639 786.71C972.315 785.467 970.274 783.693 968.657 781.511C967.041 779.329 965.89 776.792 965.285 774.081C964.679 771.369 964.635 768.548 965.154 765.815C965.674 763.083 966.744 760.506 968.291 758.267L955.016 618.808H983.704L994.254 754.982C997.584 758.023 999.759 762.27 1000.37 766.919C1000.98 771.569 999.98 776.297 997.562 780.207C995.144 784.118 991.475 786.94 987.25 788.139C983.026 789.337 978.538 788.829 974.639 786.71V786.71Z" fill="#FFB8B8"/>
<path d="M935.555 552.182C954.761 552.182 970.331 536.589 970.331 517.355C970.331 498.121 954.761 482.528 935.555 482.528C916.348 482.528 900.778 498.121 900.778 517.355C900.778 536.589 916.348 552.182 935.555 552.182Z" fill="#FFB8B8"/>
<path d="M913.278 719.837L852.701 705.623C851.109 705.246 849.676 704.318 848.621 702.983C847.566 701.647 846.948 699.976 846.861 698.227C846.162 683.703 845.659 646.13 856.071 611.054C858.082 604.329 861.328 598.106 865.617 592.752C869.906 587.399 875.15 583.024 881.04 579.887C886.93 576.75 893.346 574.913 899.907 574.487C906.469 574.061 913.044 575.053 919.243 577.404V577.404C925.784 579.874 931.766 583.802 936.795 588.93C941.824 594.058 945.788 600.271 948.425 607.16C951.062 614.05 952.314 621.461 952.098 628.907C951.883 636.353 950.204 643.666 947.173 650.366C933.739 680.006 925.279 701.47 922.027 714.165C921.522 716.134 920.333 717.82 918.705 718.875C917.078 719.93 915.135 720.275 913.278 719.837V719.837Z" fill="#FFD037"/>
<path d="M871.12 934.954L850.859 934.952L841.222 850.986H871.123L871.12 934.954Z" fill="#FFB8B8"/>
<path d="M839.236 921.649H878.309V948.083H814.635C814.635 944.612 815.271 941.175 816.507 937.967C817.744 934.76 819.556 931.846 821.84 929.392C824.125 926.937 826.837 924.99 829.822 923.662C832.806 922.333 836.005 921.649 839.236 921.649V921.649Z" fill="#2F2E41"/>
<path d="M1028.1 923.219L1010.35 933.706L964.247 865.119L990.451 849.641L1028.1 923.219Z" fill="#FFB8B8"/>
<path d="M995.41 929.332L1029.65 909.106L1041.5 932.27L985.704 965.231C984.147 962.189 983.164 958.848 982.809 955.397C982.455 951.947 982.736 948.455 983.637 945.122C984.539 941.788 986.042 938.678 988.062 935.969C990.082 933.26 992.579 931.005 995.41 929.332Z" fill="#2F2E41"/>
<path d="M870.154 902.458L845.796 901.146C844.433 901.075 843.15 900.669 842.173 900C841.197 899.331 840.59 898.442 840.461 897.49C836.989 872.166 821.759 743.833 862.951 704.321L863.067 704.211L863.251 704.163C863.619 704.069 900.356 694.906 921.433 711.697C922.095 712.231 922.546 712.876 922.742 713.569C922.938 714.262 922.872 714.979 922.551 715.648L921.747 717.335C921.517 717.814 921.455 718.324 921.567 718.822C921.678 719.321 921.959 719.793 922.387 720.199C928.236 725.73 947.923 747.031 955.66 788.917C955.709 789.184 955.808 789.445 955.952 789.695L1013.08 887.848C1013.37 888.349 1013.52 888.886 1013.51 889.427C1013.5 889.968 1013.33 890.502 1013.03 890.999C1012.72 891.495 1012.27 891.943 1011.71 892.317C1011.15 892.69 1010.49 892.982 1009.77 893.175L991.792 897.965C990.483 898.308 989.041 898.312 987.729 897.975C986.416 897.638 985.32 896.983 984.639 896.129L902.172 791.482C901.843 791.066 901.335 790.733 900.72 790.53C900.104 790.328 899.413 790.266 898.745 790.355C898.077 790.444 897.466 790.678 896.999 791.024C896.532 791.37 896.234 791.81 896.147 792.282L876.359 898.93C876.177 899.908 875.494 900.806 874.435 901.458C873.376 902.109 872.015 902.468 870.605 902.469C870.456 902.469 870.305 902.466 870.154 902.458Z" fill="#2F2E41"/>
<path d="M752.093 566.565C752.296 567.523 752.428 568.497 752.488 569.477L823.478 613.481L840.733 602.808L859.128 628.683L830.29 650.768C827.96 652.552 825.155 653.476 822.295 653.401C819.435 653.326 816.675 652.257 814.429 650.353L741.226 588.301C737.922 589.615 734.325 589.817 730.912 588.881C727.498 587.944 724.432 585.913 722.119 583.058C719.806 580.203 718.357 576.659 717.965 572.898C717.573 569.136 718.255 565.335 719.922 562.001C721.589 558.666 724.162 555.956 727.297 554.231C730.432 552.506 733.982 551.847 737.475 552.343C740.967 552.838 744.236 554.464 746.848 557.005C749.459 559.545 751.288 562.88 752.093 566.565L752.093 566.565Z" fill="#FFB8B8"/>
<path d="M841.331 601.252C841.484 600.23 841.798 599.264 842.25 598.422C842.703 597.58 843.284 596.88 843.953 596.371L867.332 578.588C870.439 575.329 874.368 573.878 878.26 574.553C882.151 575.228 885.687 577.974 888.093 582.19C890.498 586.405 891.577 591.746 891.093 597.042C890.609 602.338 888.601 607.156 885.509 610.442L866.869 636.773C866.337 637.525 865.692 638.111 864.978 638.493C864.265 638.875 863.499 639.043 862.733 638.986C861.967 638.929 861.22 638.648 860.541 638.162C859.862 637.677 859.268 636.998 858.8 636.172L842.334 607.142C841.865 606.316 841.533 605.362 841.36 604.346C841.187 603.329 841.177 602.274 841.331 601.252Z" fill="#FFD037"/>
<path d="M945.444 665.751C944.613 665.029 943.936 664.123 943.461 663.095C942.985 662.067 942.722 660.94 942.689 659.792L941.52 619.708C940.547 613.927 941.748 607.968 944.859 603.136C947.969 598.305 952.736 594.996 958.114 593.935C963.491 592.874 969.041 594.148 973.546 597.477C978.051 600.806 981.144 605.919 982.146 611.694L994.128 649.812C994.47 650.9 994.59 652.055 994.479 653.197C994.368 654.339 994.03 655.442 993.486 656.431C992.943 657.419 992.208 658.271 991.331 658.927C990.454 659.583 989.455 660.028 988.404 660.232L951.443 667.403C950.391 667.608 949.311 667.566 948.275 667.281C947.24 666.996 946.274 666.474 945.444 665.751V665.751Z" fill="#FFD037"/>
<path d="M914.476 357.168H885.889V333.126H914.476V357.168ZM888.088 355.319H912.277V334.976H888.088L888.088 355.319Z" fill="#3F3D56"/>
<path d="M122.657 551.839L103.159 534.258L124.064 517.86L143.562 535.441L122.657 551.839ZM106.267 534.349L122.765 549.225L140.454 535.35L123.955 520.474L106.267 534.349Z" fill="#3F3D56"/>
<path d="M282.377 165.228C278.94 165.228 275.581 164.371 272.723 162.765C269.865 161.159 267.638 158.877 266.323 156.207C265.008 153.536 264.663 150.598 265.334 147.763C266.004 144.928 267.659 142.324 270.09 140.28C272.52 138.237 275.616 136.845 278.987 136.281C282.358 135.717 285.852 136.006 289.027 137.112C292.202 138.219 294.916 140.092 296.826 142.495C298.735 144.898 299.754 147.724 299.754 150.614C299.749 154.489 297.916 158.203 294.659 160.943C291.401 163.683 286.984 165.224 282.377 165.228V165.228ZM282.377 138.436C279.513 138.436 276.713 139.15 274.332 140.488C271.951 141.826 270.095 143.728 268.999 145.954C267.902 148.179 267.616 150.628 268.174 152.99C268.733 155.352 270.112 157.522 272.138 159.226C274.163 160.929 276.743 162.089 279.552 162.559C282.361 163.028 285.273 162.787 287.919 161.866C290.565 160.944 292.826 159.383 294.417 157.38C296.009 155.377 296.858 153.023 296.858 150.614C296.854 147.385 295.327 144.29 292.612 142.007C289.897 139.724 286.216 138.439 282.377 138.436V138.436Z" fill="#3F3D56"/>
<path d="M491.794 270.235L357.773 406.99L556.123 603.858L688.355 473.115L491.794 270.235Z" fill="#FFD037"/>
<path d="M361.587 403.136L543.854 637.574C543.854 637.574 561.723 648.094 579.593 642.083L766.327 536.134L567.978 283.662L389.285 400.881L361.587 403.136Z" fill="#FFD037"/>
<path opacity="0.1" d="M550.43 309.84L411.984 430.525L579.38 636.48L715.585 521.438L550.43 309.84Z" fill="#40340F"/>
<path d="M363.135 408.493C366.099 404.006 369.775 399.878 374.062 396.223L497.155 291.274C497.155 291.274 540.041 285.263 548.975 303.296L391.726 411.499L363.135 408.493Z" fill="#F2F2F2"/>
<path d="M933.266 495.598C925.801 500.916 915.998 506.382 908.374 500.719C905.989 498.829 904.256 496.186 903.435 493.185C902.614 490.184 902.749 486.988 903.82 484.074C907.471 473.208 917.502 468.424 927.094 464.758C939.564 459.991 953.142 456.199 966.015 459.613C978.888 463.026 990.264 475.997 987.941 489.609C986.072 500.556 976.15 509.664 977.559 520.685C978.976 531.776 990.962 537.614 1001.54 539.597C1012.12 541.579 1023.97 542.216 1031.57 550.126C1041.27 560.216 1038.85 578.252 1029.72 588.905C1020.59 599.559 1006.82 604.388 993.47 607.671C975.784 612.021 956.657 614.307 939.86 607.088C923.064 599.869 909.993 580.437 914.859 562.216C916.914 554.519 921.755 548.014 926.434 541.682C931.114 535.349 935.852 528.727 937.636 520.958C939.124 514.483 938.023 506.966 933.897 502.109C933.147 501.259 932.675 500.184 932.548 499.037C932.422 497.89 932.648 496.731 933.194 495.726L933.266 495.598Z" fill="#2F2E41"/>
<path d="M534.741 315.741L432.568 400.344L434.551 402.059L536.724 317.456L534.741 315.741Z" fill="#3F3D56"/>
<path d="M425.098 418.34L422.683 419.684L572.785 610.542L575.2 609.198L425.098 418.34Z" fill="#3F3D56"/>
<path d="M712.5 539.744L591.017 614.915L592.734 616.877L714.217 541.707L712.5 539.744Z" fill="#3F3D56"/>
<path d="M562.673 326.646L560.296 328.037L715.759 515.888L718.135 514.497L562.673 326.646Z" fill="#3F3D56"/>
<path d="M514.652 289.784L373.252 398.923L374.46 400.029L515.859 290.891L514.652 289.784Z" fill="#3F3D56"/>
<path d="M526.43 290.719L378.65 400.438L379.833 401.566L527.614 291.846L526.43 290.719Z" fill="#3F3D56"/>
<path d="M535.675 292.906L382.265 400.449L383.41 401.604L536.82 294.061L535.675 292.906Z" fill="#3F3D56"/>
</g>
</g>
<defs>
<clipPath id="clip0">
<rect width="1346" height="965" fill="white"/>
</clipPath>
<clipPath id="clip1">
<rect width="1742" height="959" fill="white"/>
</clipPath>
</defs>
</svg>
