<svg width="629" height="423" viewBox="0 0 629 423" fill="none" xmlns="http://www.w3.org/2000/svg">
<g clip-path="url(#clip0)">
<path d="M349.809 129.127C348.365 129.089 346.961 128.692 345.755 127.981L345.665 127.898L316 87.3804L320.923 86.9555L347.304 68.5784C347.637 68.3464 348.02 68.1784 348.43 68.0851C348.839 67.9917 349.265 67.975 349.682 68.0359C350.099 68.0968 350.497 68.2341 350.852 68.4391C351.207 68.6441 351.51 68.9124 351.743 69.2271L380.581 108.206C381.023 108.808 381.183 109.542 381.025 110.248C380.868 110.954 380.405 111.577 379.738 111.981L351.833 128.785C351.189 129.014 350.502 129.13 349.809 129.127Z" fill="white"/>
<path d="M462.606 0.241943H0.19751V273.374H462.606V0.241943Z" fill="#E6E6E6"/>
<path d="M448.963 36H13V258.716H448.963V36Z" fill="white"/>
<path d="M462.408 0H0V18.1181H462.408V0Z" fill="#6C63FF"/>
<path d="M14.5985 12.6209C16.6094 12.6209 18.2395 11.1174 18.2395 9.26284C18.2395 7.40824 16.6094 5.90479 14.5985 5.90479C12.5877 5.90479 10.9575 7.40824 10.9575 9.26284C10.9575 11.1174 12.5877 12.6209 14.5985 12.6209Z" fill="white"/>
<path d="M28.4186 12.6209C30.4295 12.6209 32.0596 11.1174 32.0596 9.26284C32.0596 7.40824 30.4295 5.90479 28.4186 5.90479C26.4077 5.90479 24.7776 7.40824 24.7776 9.26284C24.7776 11.1174 26.4077 12.6209 28.4186 12.6209Z" fill="white"/>
<path d="M42.2392 12.6209C44.25 12.6209 45.8802 11.1174 45.8802 9.26284C45.8802 7.40824 44.25 5.90479 42.2392 5.90479C40.2283 5.90479 38.5981 7.40824 38.5981 9.26284C38.5981 11.1174 40.2283 12.6209 42.2392 12.6209Z" fill="white"/>
<path d="M152.328 52.8176H67.0603V138.137H152.328V52.8176Z" fill="#FFB8B8"/>
<path d="M274.035 52.8176H188.767V138.137H274.035V52.8176Z" fill="#5F546F"/>
<path d="M152.328 153.58H67.0603V238.899H152.328V153.58Z" fill="#C3C7D9"/>
<path d="M274.035 153.58H188.767V238.899H274.035V153.58Z" fill="#505050"/>
<path d="M395.741 153.58H310.473V238.899H395.741V153.58Z" fill="#8EA3FF"/>
<path d="M439.654 405.235L381.974 416.124L380.66 416L329.971 411.282V352.038L392.022 342.362L437.034 347.203L437.05 347.466V347.59L439.654 405.235Z" fill="#E6E6E6"/>
<path opacity="0.1" d="M439.654 405.235L381.974 416.124L380.66 416V355.266L437.05 347.466L439.654 405.235Z" fill="black"/>
<path opacity="0.05" d="M437.05 347.59L437.034 347.605L380.66 355.266L329.971 352.038L392.022 342.362L437.034 347.203L437.05 347.466V347.59Z" fill="black"/>
<path d="M372.019 374.825L336.949 372.714L335.875 387.895L370.944 390.006L372.019 374.825Z" fill="white"/>
<path d="M363.438 379.28L344.83 378.16L344.456 383.44L363.064 384.56L363.438 379.28Z" fill="#6C63FF"/>
<path d="M517.831 405.235L460.151 416.124L458.836 416L408.148 411.282V352.038L470.198 342.362L515.21 347.203L515.227 347.466V347.59L517.831 405.235Z" fill="#6C63FF"/>
<path opacity="0.1" d="M517.831 405.235L460.151 416.124L458.836 416V355.266L515.227 347.466L517.831 405.235Z" fill="black"/>
<path opacity="0.05" d="M515.227 347.59L515.21 347.605L458.836 355.266L408.148 352.038L470.199 342.362L515.21 347.203L515.227 347.466V347.59Z" fill="black"/>
<path d="M450.195 374.825L415.126 372.714L414.052 387.895L449.121 390.006L450.195 374.825Z" fill="white"/>
<path d="M441.615 379.28L423.007 378.16L422.633 383.44L441.241 384.56L441.615 379.28Z" fill="#6C63FF"/>
<path d="M559.57 109.555C559.57 109.555 569.747 133.803 551.089 133.803C532.431 133.803 579.924 158.05 598.582 143.971C617.239 129.892 606.214 129.11 606.214 129.11C606.214 129.11 581.62 131.456 582.468 111.12L559.57 109.555Z" fill="#FFB8B8"/>
<path d="M572.827 116.854C589.392 116.854 602.821 104.469 602.821 89.1909C602.821 73.9132 589.392 61.5281 572.827 61.5281C556.262 61.5281 542.833 73.9132 542.833 89.1909C542.833 104.469 556.262 116.854 572.827 116.854Z" fill="#2F2E41"/>
<path d="M573.197 119.888C584.671 119.888 593.972 111.31 593.972 100.728C593.972 90.1458 584.671 81.5674 573.197 81.5674C561.724 81.5674 552.422 90.1458 552.422 100.728C552.422 111.31 561.724 119.888 573.197 119.888Z" fill="#FFB8B8"/>
<path d="M593.069 127.154C593.069 127.154 600.315 140.377 578.474 140.751C571.76 140.867 563.774 136.354 560.478 130.958C558.536 127.778 558.045 132.169 554.905 131.847C548.958 131.238 542.605 133.513 536.92 136.301C536.186 136.661 535.61 137.244 535.291 137.952C534.971 138.66 534.928 139.448 535.169 140.181C539.48 153.374 551.792 216.834 553.692 220.29C558.546 229.113 612 224.5 612 224.5C612.72 200.492 602.341 156.74 618.959 132.313C615.304 129.779 611.096 128.006 606.627 127.116C602.158 126.225 597.532 126.238 593.069 127.154Z" fill="#575A89"/>
<path d="M592.625 85.9939L577.403 78.6409L556.384 81.6486L552.035 99.3638L562.861 98.9794L565.885 92.4711V98.8723L570.88 98.695L573.779 88.3336L575.592 99.3638L593.349 99.0291L592.625 85.9939Z" fill="#2F2E41"/>
<path d="M574.405 68.8075C581.09 68.8075 586.508 63.81 586.508 57.6453C586.508 51.4806 581.09 46.4832 574.405 46.4832C567.721 46.4832 562.303 51.4806 562.303 57.6453C562.303 63.81 567.721 68.8075 574.405 68.8075Z" fill="#2F2E41"/>
<path d="M559.146 54.2484C559.146 51.5822 560.18 49.0042 562.062 46.9804C563.944 44.9567 566.55 43.6209 569.407 43.2146C567.683 42.9713 565.922 43.0745 564.245 43.5172C562.568 43.9599 561.015 44.7317 559.692 45.7796C558.368 46.8275 557.306 48.1268 556.578 49.5885C555.85 51.0502 555.473 52.6398 555.473 54.2484C555.473 55.857 555.85 57.4466 556.578 58.9083C557.306 60.37 558.368 61.6693 559.692 62.7172C561.015 63.7651 562.568 64.5368 564.245 64.9796C565.922 65.4223 567.683 65.5255 569.407 65.2822C566.55 64.8759 563.944 63.5401 562.062 61.5164C560.18 59.4926 559.146 56.9145 559.146 54.2484V54.2484Z" fill="#2F2E41"/>
<path d="M539.147 251.491C539.147 251.491 517.945 267.135 527.274 272.61C536.603 278.085 547.628 251.491 547.628 251.491H539.147Z" fill="#FFB8B8"/>
<path d="M540.065 135.62C538.967 134.478 525.098 141.002 527.155 149.511L528.122 208.472C528.122 208.472 523.034 256.967 535.755 256.967C548.476 256.967 546.975 258.597 548.671 254.686C550.368 250.776 550.823 217.644 550.823 217.644L540.065 135.62Z" fill="#575A89"/>
<path d="M605.658 246.199C605.658 246.199 616.683 272.793 626.012 267.318C635.341 261.843 614.139 246.199 614.139 246.199H605.658Z" fill="#FFB8B8"/>
<path d="M610.172 212.815C610.172 212.815 604.89 245.286 606.586 249.197C608.282 253.107 606.781 251.477 619.502 251.477C632.224 251.477 627.135 202.982 627.135 202.982L628.103 144.021C630.159 135.512 616.291 128.988 615.193 130.13L603 168.496L610.172 212.815Z" fill="#575A89"/>
<path d="M601.357 387.446C601.84 389.875 594.118 401.531 595.084 402.502C596.049 403.474 597.979 405.417 597.979 406.874C597.979 408.331 598.462 413.188 606.665 411.73C614.869 410.273 612.939 402.988 612.456 402.017C611.974 401.045 606.183 396.188 606.665 393.274C607.148 390.36 604.252 385.503 601.357 387.446Z" fill="#2F2E41"/>
<path d="M556.486 392.067C556.486 392.067 552.978 391.117 552.573 394.54C552.169 397.963 544.79 413.185 552.494 413.947C560.198 414.709 562.863 407.042 564.153 401.651C565.443 396.26 565.932 395.951 567.01 394.918C568.087 393.885 570.651 388.227 567.434 387.796C564.216 387.366 562.567 384 562.567 384C562.567 384 561.553 393.44 556.486 392.067Z" fill="#2F2E41"/>
<path d="M611 391H594.5L585.515 268.028L568.5 391L554.244 391C548.334 313.562 543.5 246 554.244 217.093H611V391Z" fill="#2F2E41"/>
<path d="M634.648 321.873L575.409 332.762L574.059 332.638L522 327.92V268.675L585.728 259L631.956 263.841L631.973 264.104V264.228L634.648 321.873Z" fill="#E6E6E6"/>
<path opacity="0.05" d="M612 257.672L611.983 257.688L554.071 266L502 262.498L565.743 252L611.983 257.253L612 257.538V257.672Z" fill="black"/>
<path d="M562.121 292.952L526.104 290.684L525 306.997L561.017 309.266L562.121 292.952Z" fill="white"/>
<path d="M552.495 297.26L533.384 296.057L533 301.731L552.111 302.934L552.495 297.26Z" fill="#6C63FF"/>
<path opacity="0.1" d="M636 317.264L576.359 329L575 328.867V263.406L633.307 255L636 317.264Z" fill="black"/>
<path opacity="0.1" d="M633 328.264L573.359 340L572 339.867V274.406L630.307 266L633 328.264Z" fill="black"/>
<path d="M334.111 101.07C333.832 101.07 333.557 101.009 333.31 100.892C333.064 100.775 332.853 100.606 332.697 100.399L329.289 95.8788C329.038 95.5443 328.945 95.1344 329.032 94.739C329.118 94.3436 329.377 93.9949 329.75 93.7695L348.51 83.0283C348.067 82.9511 348.885 82.804 348.51 83.0283C348.953 83.1055 349.343 83.3362 349.595 83.6699L353.003 88.1906C353.255 88.5251 353.347 88.9349 353.261 89.3303C353.174 89.7257 352.916 90.0744 352.542 90.2999L335.059 100.811C334.779 100.98 334.449 101.07 334.111 101.07Z" fill="#3F3D56"/>
<path d="M396.268 53H311V138.319H396.268V53Z" fill="#BE6F72"/>
<path d="M369.609 83.8138L328.711 84.1105L329.024 95.0093L369.923 94.7126L369.609 83.8138Z" fill="#E6E6E6"/>
<path d="M252.478 84.0001L211.579 84.2968L211.893 95.1956L252.791 94.8989L252.478 84.0001Z" fill="#E6E6E6"/>
<path d="M130.478 84.0001L89.5792 84.2968L89.8928 95.1956L130.791 94.8989L130.478 84.0001Z" fill="#E6E6E6"/>
<path d="M129.478 180L88.5792 180.297L88.8928 191.196L129.791 190.899L129.478 180Z" fill="#E6E6E6"/>
<path d="M372.478 179L331.579 179.297L331.893 190.196L372.791 189.899L372.478 179Z" fill="#E6E6E6"/>
<path d="M251.478 180L210.579 180.297L210.893 191.196L251.791 190.899L251.478 180Z" fill="#E6E6E6"/>
</g>
<defs>
<clipPath id="clip0">
<rect width="629" height="423" fill="white"/>
</clipPath>
</defs>
</svg>
