<svg width="296" height="229" viewBox="0 0 296 229" fill="none" xmlns="http://www.w3.org/2000/svg">
<path d="M242.552 174.661L235.238 174.51L229.576 174.388L218.003 174.143H217.493L207.752 173.938L188.278 173.517L177.719 173.295L176.401 173.266H175.892L174.902 173.247H174.668H174.382L168.904 173.108L165.763 173.041L164.922 173.021H164.634H164.563L158.811 172.899L153.16 172.784L107.632 171.819H107.01L89.7392 171.456L88.6583 171.43L80.3757 171.26L74.724 171.141L69.6255 171.032H69.1896L49.0657 170.607L42.3866 170.434L24.1849 170.048L22.3418 170.009H22.3214L18.5408 169.929L0.160622 169.543C0.0433556 167.435 0.00256726 165.313 0.00511652 163.188C0.00511652 161.776 0.021262 160.367 0.0535526 158.961L18.5408 159.469L22.1098 159.568H22.1735L24.19 159.623L32.6816 159.855L37.2422 159.98L64.2644 160.719L66.1559 160.771L74.7138 161.005L75.7794 161.034L77.6761 161.089L80.1743 161.156H80.3655L88.4722 161.378L100.064 161.7L100.783 161.719L128.501 162.478H128.954L153.152 163.14L156.869 163.243L157.412 163.259H157.952L158.804 163.281L159.869 163.313L164.649 163.442H165.177L166.684 163.484H167.303L167.894 163.5L171.209 163.593L183.045 163.915H183.578L184.375 163.937L216.986 164.828H217.478L229.582 165.149L234.632 165.287L235.233 165.393L239.355 166.123C239.802 167.123 240.235 168.119 240.63 169.116C241.376 170.903 242.018 172.757 242.552 174.661Z" fill="white"/>
<path d="M242.552 174.661L235.238 174.51L229.576 174.388L218.003 174.143H217.493L207.752 173.938L188.278 173.516L177.719 173.295L176.401 173.266H175.892L174.902 173.246H174.668H174.382L168.904 173.108L165.763 173.041L164.922 173.021H164.634H164.563L158.811 172.899L153.16 172.783L107.632 171.819H107.01L89.7392 171.456L88.6583 171.43L80.3757 171.26L74.724 171.141L69.6255 171.032H69.1896L49.0657 170.607L42.3866 170.434L24.1849 170.048L22.3418 170.009H22.3214L18.5408 169.929L0.160622 169.543C0.0433556 167.434 0.00256726 165.313 0.00511652 163.188L18.5408 163.654L22.3647 163.747H22.4233L24.19 163.792L34.9198 164.059L40.9794 164.213L51.2147 164.471L61.3659 164.725L67.196 164.869H67.3184L73.7145 165.027H73.949L74.7138 165.049L80.3655 165.191H80.4803L83.4094 165.261L84.4061 165.29L86.2288 165.332L102.858 165.75H103.526L153.147 166.991L158.799 167.135L163.622 167.254H163.686H163.941H164.257L168.205 167.351L168.94 167.373H169.526L181.446 167.672H181.977L182.81 167.692L196.984 168.048L212.499 168.434L216.873 168.543H217.289L229.571 168.865L235.223 169.006L240.633 169.141C241.377 170.921 242.018 172.765 242.552 174.661Z" fill="#D0D0DB"/>
<path d="M189.138 184.227L188.278 185.115L184.133 189.4L183.295 190.268L179.652 194.038C179.652 194.038 169.414 201.557 158.794 207.912C157.654 208.594 156.499 209.263 155.37 209.909C154.631 209.825 153.886 209.758 153.142 209.713C147.105 209.324 141.061 210.251 135.274 212.451C135.173 211.455 135.156 210.447 135.223 209.446C135.733 201.625 140.908 195.398 140.908 195.398L153.144 188.702H153.157L158.794 185.619L167.303 180.961L169.998 181.363L174.897 182.099L189.138 184.227Z" fill="#2F2E41"/>
<path opacity="0.05" d="M189.138 184.227L188.278 185.115L184.133 189.4L183.295 190.268L179.652 194.038C179.652 194.038 169.414 201.557 158.794 207.912C157.654 208.594 156.499 209.263 155.37 209.909C154.631 209.825 153.886 209.758 153.142 209.713C147.105 209.324 141.061 210.251 135.274 212.451C135.173 211.455 135.156 210.447 135.223 209.446C135.733 201.625 140.908 195.398 140.908 195.398L153.144 188.702H153.157L158.794 185.619L167.303 180.961L169.998 181.363L174.897 182.099L189.138 184.227Z" fill="black"/>
<path d="M178.221 215.595L178.188 215.917L178.025 217.46L178.002 217.704L177.989 217.788L177.928 218.376L177.839 219.231L177.673 219.109C176.702 218.411 175.738 217.733 174.78 217.093C174.202 216.708 173.618 216.339 173.029 215.987C171.08 214.809 169.072 213.793 167.017 212.946L167.571 211.661L170.994 212.927L175.858 214.734L176.751 215.055L177.462 215.319L178.221 215.595Z" fill="#5F546F"/>
<path opacity="0.05" d="M178.221 215.595L178.188 215.917L178.025 217.46L178.002 217.704L177.989 217.788L177.928 218.376L177.839 219.231L177.673 219.109C176.702 218.411 175.738 217.733 174.78 217.093C174.202 216.708 173.618 216.339 173.029 215.987C171.08 214.809 169.072 213.793 167.017 212.946L167.571 211.661L170.994 212.927L175.858 214.734L176.751 215.055L177.462 215.319L178.221 215.595Z" fill="black"/>
<path d="M170.525 210.745L177.146 214.13L178.132 217.852L171.331 214.467L170.525 210.745Z" fill="#CCCCD8"/>
<path opacity="0.05" d="M170.525 210.745L177.146 214.13L178.132 217.852L171.331 214.467L170.525 210.745Z" fill="black"/>
<path d="M213.771 214.496C213.261 215.299 212.751 216.103 212.257 216.907C212.109 217.138 211.963 217.366 211.821 217.598C210.99 218.883 210.156 220.169 209.271 221.359L209.167 221.5L181.043 221.568L180.855 221.426L180.771 221.365L180.189 220.941L179.917 220.742C179.226 220.234 178.535 219.726 177.847 219.231L177.681 219.109L177.706 218.331L177.727 217.665L177.765 216.456L177.78 215.952L178.196 215.933L213.771 214.496Z" fill="#5F546F"/>
<path opacity="0.1" d="M186.989 221.462H186.721L184.2 221.417H184.11L180.763 221.362L180.182 220.938L180.134 218.331V217.656L180.113 216.498L186.451 216.081L186.721 216.064L186.792 217.514L186.825 218.192L186.986 221.43L186.989 221.462Z" fill="black"/>
<path d="M186.721 221.459L183.965 221.417L180.768 221.362L180.187 220.938L179.914 220.738L179.866 218.331V217.656L179.845 216.492L186.474 216.042V216.081L186.547 217.521L186.581 218.199L186.741 221.43L186.721 221.459Z" fill="#5F546F"/>
<path opacity="0.1" d="M186.721 221.459L183.965 221.417L180.768 221.362L180.187 220.938L179.914 220.738L179.866 218.331V217.656L179.845 216.492L186.474 216.042V216.081L186.547 217.521L186.581 218.199L186.741 221.43L186.721 221.459Z" fill="white"/>
<path opacity="0.1" d="M178.188 215.913L213.771 214.496C213.261 215.299 212.751 216.103 212.257 216.907C212.109 217.138 211.964 217.366 211.821 217.598L186.838 218.176H186.583L180.159 218.324H179.904L178.084 218.366C178.046 218.369 178.007 218.369 177.969 218.366C177.892 218.363 177.814 218.348 177.74 218.321L177.76 217.656L177.798 216.447L177.814 215.942L178.188 215.913Z" fill="black"/>
<path d="M215.981 211.111L215.678 211.554C215.396 211.983 215.115 212.405 214.837 212.821C214.475 213.374 214.12 213.933 213.766 214.496C213.256 215.299 212.746 216.103 212.252 216.907L186.792 217.498H186.537L180.121 217.656H179.866L178.081 217.688H177.995C177.919 217.688 177.843 217.679 177.768 217.662H177.712C177.379 217.568 177.087 217.32 176.892 216.967C176.698 216.614 176.615 216.182 176.661 215.756L176.743 215.052L176.819 214.367L176.863 213.985L176.952 213.216L176.975 213.001L215.981 211.111Z" fill="#CCCCD8"/>
<path d="M217.414 207.134L218.625 207.668C218.344 207.992 218.069 208.324 217.799 208.665C217.585 208.928 217.371 209.201 217.162 209.481C216.759 210.011 216.366 210.558 215.981 211.111L215.678 211.554C215.396 211.983 215.115 212.405 214.837 212.821L177.617 214.107H177.159L176.97 213.197L175.456 205.871L211.441 206.938L213.509 206.999L217.414 207.134Z" fill="#5F546F"/>
<path d="M220.266 207.449C219.755 207.968 219.265 208.52 218.79 209.094C218.509 209.437 218.233 209.79 217.963 210.151C217.748 210.431 217.534 210.721 217.325 211.018C216.921 211.581 216.528 212.161 216.143 212.747L215.839 213.218C209.63 214.16 198.706 215.429 188.81 214.631C185.084 214.31 181.343 214.748 177.715 215.931L177.286 216.077L176.934 216.203C176.604 216.323 176.28 216.449 175.964 216.579C175.198 216.886 174.485 217.217 173.809 217.561L173.13 217.919C171.178 216.668 169.167 215.59 167.11 214.692C164.423 213.51 161.669 212.623 158.874 212.041C157.737 211.798 156.594 211.608 155.445 211.472C154.705 211.383 153.959 211.311 153.214 211.263C147.169 210.851 141.115 211.835 135.32 214.17C134.531 214.491 133.745 214.852 132.969 215.214L132.984 215.112C133.199 213.815 134.067 212.382 135.282 210.98C139.211 206.371 146.709 201.82 146.709 201.82L150.704 199.555L153.224 198.122L158.884 194.915L170.847 188.133L170.975 188.061L173.745 186.492L176.278 185.052C178.034 184.429 179.845 184.126 181.662 184.151C181.894 184.151 182.129 184.151 182.361 184.151C182.538 184.151 182.711 184.151 182.887 184.179H182.959H183.214C183.646 184.209 184.077 184.257 184.514 184.315C184.667 184.332 184.82 184.356 184.976 184.38H185.057L185.399 184.435C185.542 184.455 185.685 184.482 185.828 184.51L186.255 184.591C186.541 184.649 186.827 184.711 187.115 184.779C187.544 184.881 187.977 184.995 188.415 185.12L189.055 185.304C189.709 185.496 190.365 185.71 191.024 185.942L191.636 186.168L192.047 186.325L192.558 186.526C193.76 187.003 194.966 187.549 196.158 188.119L196.799 188.44L197.411 188.747C197.42 188.755 197.429 188.761 197.439 188.764C197.804 188.951 198.17 189.146 198.532 189.344C200.592 190.459 202.617 191.688 204.526 192.97L205.185 193.41L205.525 193.646C205.752 193.799 205.974 193.956 206.199 194.113L206.865 194.584L207.192 194.819L207.519 195.058L207.84 195.294C208.594 195.846 209.323 196.4 210.026 196.955C210.227 197.112 210.426 197.269 210.623 197.429L210.917 197.661C211.305 197.975 211.682 198.286 212.055 198.6C212.239 198.75 212.42 198.903 212.604 199.06C212.872 199.289 213.138 199.517 213.398 199.742C213.569 199.889 213.738 200.039 213.909 200.189L214.164 200.415C214.327 200.561 214.488 200.704 214.646 200.851L214.92 201.104C215.101 201.267 215.28 201.445 215.451 201.598C215.537 201.68 215.622 201.766 215.706 201.844L215.785 201.919L216.411 202.533C216.411 202.533 216.411 202.533 216.423 202.533L216.806 202.922L217.179 203.308C217.434 203.557 217.654 203.806 217.871 204.048C217.978 204.164 218.083 204.28 218.182 204.389L218.333 204.56L218.481 204.73L218.736 205.047L218.915 205.276C218.981 205.355 219.04 205.43 219.096 205.505C219.321 205.798 219.533 206.107 219.732 206.433C219.883 206.688 220.021 206.931 220.148 207.163L220.266 207.449Z" fill="#2F2E41"/>
<path d="M159.52 165.612C158.827 165.961 158.09 166.154 157.343 166.181C152.16 166.663 141.711 164.143 141.711 164.143C141.711 164.143 128.557 167.865 124.978 157.485C121.398 147.105 138.221 152.294 141.354 154.325C143.355 155.611 147.039 155.261 149.438 154.833C150.791 154.589 151.732 154.325 151.732 154.325C151.732 154.325 162.829 163.58 159.52 165.612Z" fill="#C27099"/>
<path d="M173.923 146.993L170.971 165.155L162.204 166.12L157.817 166.608C158.89 160.967 149.588 154.535 149.588 154.535C154.327 150.925 157.103 152.606 158.085 152.503C158.151 152.503 158.215 152.503 158.279 152.474C159.207 152.3 160.129 151.606 159.877 150.024C159.722 148.961 159.81 147.864 160.132 146.861C160.132 146.861 161.832 147.427 161.027 144.042C160.221 140.657 161.294 136.594 161.294 136.594L161.921 135.578L162.905 131.743L166.931 136.931L173.923 146.993Z" fill="#4C4981"/>
<path opacity="0.05" d="M173.923 147.106L170.971 165.271L162.204 166.236L157.817 166.727C158.89 161.083 149.588 154.65 149.588 154.65C154.327 151.04 157.103 152.722 158.085 152.622L158.279 152.59C159.207 152.416 160.129 151.722 159.877 150.14C159.722 149.077 159.81 147.979 160.132 146.977C160.132 146.977 161.832 147.543 161.027 144.158C160.221 140.773 161.294 136.71 161.294 136.71L161.921 135.694L162.918 131.859L166.944 137.05L173.923 147.106Z" fill="black"/>
<path opacity="0.1" d="M163.991 165.046C163.561 165.438 163.14 165.798 162.74 166.136L158.355 166.624C159.428 160.983 150.124 154.55 150.124 154.55C154.865 150.94 157.641 152.621 158.623 152.519C158.686 152.519 158.753 152.519 158.817 152.49C160.007 154.396 161.509 156.598 162.385 157.148C163.991 158.163 167.481 161.886 163.991 165.046Z" fill="black"/>
<path opacity="0.1" d="M159.52 165.612C158.827 165.961 158.09 166.154 157.343 166.181C157.81 161.359 151.13 156.08 149.44 154.833C150.794 154.589 151.735 154.325 151.735 154.325C151.735 154.325 162.829 163.58 159.52 165.612Z" fill="black"/>
<path d="M163.456 165.046C163.023 165.438 162.605 165.798 162.204 166.136L157.817 166.624C158.89 160.983 149.588 154.55 149.588 154.55C154.327 150.94 157.103 152.621 158.085 152.519C158.151 152.519 158.215 152.519 158.279 152.49C159.472 154.396 160.971 156.598 161.848 157.148C163.456 158.163 166.944 161.886 163.456 165.046Z" fill="#FFD037"/>
<path opacity="0.05" d="M163.456 165.271C163.023 165.663 162.606 166.026 162.204 166.361L157.817 166.852C158.89 161.208 149.588 154.775 149.588 154.775C154.327 151.165 157.103 152.847 158.085 152.747C158.151 152.747 158.215 152.728 158.279 152.715C159.472 154.621 160.971 156.826 161.848 157.373C163.456 158.388 166.944 162.111 163.456 165.271Z" fill="black"/>
<path d="M181.709 87.7546C181.709 87.7546 164.884 117.428 166.23 112.012C167.114 108.447 164.665 98.2438 162.888 91.6764C161.962 88.2657 161.218 85.8355 161.218 85.8355C161.218 85.8355 170.882 75.3399 170.704 77.7091C170.658 78.3263 171.379 79.3164 172.488 80.4125C175.591 83.5564 181.709 87.7546 181.709 87.7546Z" fill="#C27099"/>
<path opacity="0.1" d="M172.473 80.4254C171.825 83.2156 170.593 85.7337 168.905 87.7139C167.217 89.6941 165.136 91.0631 162.883 91.6764C161.957 88.2657 161.213 85.8355 161.213 85.8355C161.213 85.8355 170.877 75.3399 170.699 77.7091C170.658 78.3263 171.379 79.3035 172.473 80.4254Z" fill="black"/>
<path d="M172.983 75.2306C172.983 78.4224 172.232 81.5425 170.826 84.1963C169.42 86.8501 167.421 88.9184 165.082 90.1397C162.744 91.361 160.17 91.6804 157.688 91.0575C155.205 90.4345 152.925 88.8973 151.136 86.6402C149.346 84.383 148.127 81.5074 147.634 78.3768C147.14 75.2463 147.394 72.0016 148.363 69.053C149.332 66.1043 150.973 63.5843 153.078 61.8115C155.182 60.0387 157.657 59.0928 160.188 59.0934C161.871 59.0832 163.538 59.4937 165.095 60.3011C166.651 61.1084 168.065 62.2968 169.254 63.7973C170.444 65.2979 171.386 67.0809 172.026 69.0434C172.666 71.0058 172.991 73.1087 172.983 75.2306Z" fill="#C27099"/>
<path opacity="0.1" d="M220.098 206.115C219.588 206.604 219.099 207.125 218.625 207.665C218.344 207.988 218.069 208.32 217.799 208.661C217.585 208.925 217.37 209.198 217.161 209.478C215.199 208.843 213.282 207.999 211.433 206.954C209.947 206.115 208.706 205.151 208.017 204.186C205.723 201.014 198.172 192.755 183.289 190.261C179.707 189.675 176.094 189.444 172.483 189.57C171.983 189.583 171.478 189.603 170.966 189.631L170.734 187.905L170.862 187.837L173.628 186.358L176.157 185.002C177.91 184.415 179.719 184.129 181.533 184.153C181.765 184.153 181.999 184.153 182.231 184.153C182.407 184.153 182.581 184.153 182.757 184.179H182.828H183.083C183.514 184.208 183.945 184.253 184.38 184.308C184.533 184.324 184.686 184.346 184.842 184.369H184.923L185.265 184.42C185.408 184.439 185.551 184.465 185.693 184.491L186.119 184.568C186.405 184.623 186.69 184.68 186.978 184.745C187.406 184.835 187.84 184.941 188.276 185.066L188.916 185.24C189.568 185.42 190.223 185.622 190.881 185.841L191.493 186.053L191.903 186.201L192.413 186.391C193.614 186.841 194.817 187.355 196.008 187.892L196.648 188.194L197.259 188.483C197.268 188.491 197.277 188.497 197.287 188.499C197.652 188.676 198.016 188.859 198.378 189.046C200.436 190.097 202.457 191.254 204.364 192.463L205.022 192.878L205.361 193.099C205.588 193.244 205.81 193.392 206.034 193.54L206.699 193.983L207.026 194.205L207.352 194.43L207.673 194.652C208.426 195.173 209.153 195.695 209.855 196.218C210.057 196.365 210.255 196.513 210.452 196.664L210.745 196.883C211.132 197.182 211.51 197.471 211.882 197.767C212.065 197.908 212.246 198.053 212.43 198.201C212.698 198.416 212.963 198.632 213.223 198.844C213.394 198.982 213.562 199.124 213.733 199.265L213.988 199.477C214.151 199.615 214.311 199.75 214.469 199.889L214.742 200.126L215.275 200.65C215.362 200.728 215.446 200.808 215.53 200.882L215.609 200.953L216.233 201.531C216.233 201.531 216.234 201.531 216.246 201.531L216.629 201.898L217.001 202.261C217.256 202.499 217.475 202.733 217.692 202.959C217.799 203.068 217.903 203.177 218.003 203.28L218.153 203.441L218.301 203.601L218.556 203.9L218.734 204.116C218.801 204.19 218.859 204.26 218.915 204.331C219.14 204.607 219.352 204.899 219.55 205.205C219.701 205.447 219.838 205.675 219.966 205.893L220.098 206.115Z" fill="black"/>
<path d="M218.666 189.307C218.666 189.307 219.94 199.658 221.054 205.254C220.733 205.526 220.419 205.81 220.111 206.106C219.601 206.595 219.112 207.115 218.638 207.655C218.357 207.979 218.082 208.311 217.812 208.652C216.354 208.213 214.919 207.663 213.514 207.006C211.184 205.913 209.022 204.54 208.03 203.171C205.777 200.059 198.47 192.052 184.146 189.393C180.446 188.727 176.709 188.442 172.973 188.542C172.32 188.542 171.657 188.577 170.984 188.615L170.88 187.838L169.998 181.363L169.187 175.297V175.262L169.1 174.59V174.552L169.065 174.275L168.909 173.115L168.494 170.013L168.3 168.547C168.3 168.547 168.287 168.38 168.269 168.081C168.269 168.033 168.269 167.978 168.269 167.923C168.269 167.869 168.269 167.827 168.269 167.775C168.269 167.724 168.269 167.701 168.269 167.66C168.269 167.618 168.269 167.499 168.254 167.406C168.239 167.312 168.254 167.29 168.254 167.226L168.239 167.023C168.237 166.999 168.237 166.974 168.239 166.949C168.239 166.846 168.223 166.734 168.216 166.628C168.215 166.621 168.215 166.615 168.216 166.608C168.2 166.4 168.183 166.178 168.165 165.946C168.152 165.802 168.139 165.651 168.126 165.496C168.075 164.902 168.019 164.252 167.956 163.567C167.897 162.995 167.836 162.404 167.77 161.812C167.752 161.648 167.734 161.491 167.714 161.33C167.714 161.237 167.693 161.144 167.68 161.05C167.68 160.977 167.663 160.899 167.652 160.825C167.614 160.504 167.573 160.215 167.533 159.916C167.533 159.851 167.515 159.787 167.507 159.726C167.484 159.572 167.464 159.405 167.441 159.27C167.418 159.135 167.385 158.91 167.357 158.733C167.358 158.724 167.358 158.716 167.357 158.707C167.357 158.63 167.331 158.556 167.318 158.476C167.306 158.395 167.28 158.26 167.262 158.154C167.229 157.964 167.196 157.778 167.16 157.604L167.112 157.37C167.089 157.248 167.061 157.125 167.033 157.01C166.931 156.444 166.759 155.901 166.523 155.402C166.505 155.37 166.486 155.34 166.464 155.312C166.447 155.283 166.426 155.256 166.403 155.232C166.325 155.135 166.256 155.027 166.197 154.911C166.162 154.847 166.129 154.782 166.1 154.715C166.039 154.573 165.972 154.419 165.906 154.245C165.906 154.226 165.891 154.203 165.881 154.181C165.87 154.158 165.83 154.046 165.807 153.975C164.568 150.468 163.002 141.577 163.002 141.577L161.985 135.395L161.883 134.717L161.575 132.663V132.418L161.399 125.108C161.399 125.108 161.307 113.259 164.351 111.568L164.259 110.103C164.259 110.103 161.891 109.219 161.623 107.872C161.58 107.668 161.591 107.453 161.654 107.258C161.737 107.011 161.863 106.791 162.024 106.615C162.067 106.563 162.11 106.512 162.148 106.457C163.095 105.271 163.737 103.754 163.992 102.102C163.992 102.102 164.366 101.317 164.968 100.112C166.844 96.3539 170.933 88.5135 172.761 87.6585C174.294 86.9109 175.716 85.8426 176.967 84.4985L177.378 84.611C178.596 84.9325 182.183 85.8744 183.585 85.9644C184.011 85.9965 184.709 86.3469 185.52 86.858C189.003 89.0971 191.787 92.7502 193.423 97.2283C194.608 100.443 196.003 103.889 196.737 104.583C197.236 105.117 197.662 105.75 197.999 106.457C198.236 106.917 198.463 107.422 198.667 107.885C199.271 109.293 199.686 110.566 199.686 110.566C199.686 110.566 205.504 115.529 204.785 120.38C204.785 120.38 206.039 125.796 207.291 127.378C208.542 128.959 211.408 141.596 211.408 141.596C211.408 141.596 212.481 143.965 212.392 145.775C212.303 147.585 213.465 151.42 213.465 151.42C213.465 151.42 213.651 152.619 213.924 153.991C214.016 154.461 214.118 154.956 214.225 155.419C214.498 156.595 214.801 157.646 215.076 157.952C215.79 158.739 215.433 160.433 215.433 160.433C215.433 160.433 216.328 163.368 216.777 164.156C216.887 164.387 216.957 164.646 216.981 164.914C217.055 165.827 217.046 166.747 216.955 167.656C216.955 167.656 216.917 168.049 216.879 168.621C216.792 169.99 216.723 172.414 217.225 173.285C217.354 173.545 217.44 173.835 217.48 174.137C217.794 175.969 217.529 179.409 218.202 180.168C219.022 181.064 218.666 189.307 218.666 189.307Z" fill="#FFD037"/>
<path d="M179.473 167.981C179.473 167.981 178.963 169.498 178.222 171.739C176.756 176.175 174.398 183.446 173.378 187.275C171.848 193.029 165.684 196.414 165.684 196.414C165.684 196.414 153.425 201.715 149.129 197.767C144.834 193.82 157.182 185.128 159.418 184.568C161.654 184.009 163.624 181.743 165.236 180.505C166 179.92 166.079 177.683 165.954 175.477C165.85 173.83 165.67 172.192 165.414 170.572L179.473 167.981Z" fill="#C27099"/>
<path opacity="0.1" d="M196.207 114.947C196.207 114.947 200.859 112.349 202.835 116.413C204.81 120.476 196.207 114.947 196.207 114.947Z" fill="black"/>
<path opacity="0.1" d="M213.386 167.19C213.386 167.19 181.265 167.527 187.348 172.719C193.43 177.911 194.328 180.389 201.397 177.907C208.466 175.426 213.386 167.19 213.386 167.19Z" fill="black"/>
<path opacity="0.1" d="M172.983 75.2308C172.985 78.0626 172.394 80.845 171.27 83.2962C170.779 83.0571 170.331 82.6976 169.952 82.2386C169.518 81.66 169.279 80.8692 169.008 80.1202C168.455 78.5772 167.737 77.1367 166.875 75.8384C166.268 74.9287 165.488 74.0543 164.603 74.1636C163.115 74.3436 162.054 77.2303 160.629 76.6195C160.196 76.4363 159.561 72.9613 159.316 72.3216C158.735 70.8108 158.411 71.248 157.351 71.878C155.339 73.0771 153.162 74.1282 150.955 73.5882C150.184 73.4482 149.476 72.9783 148.948 72.2573C148.744 71.8856 148.517 71.5342 148.27 71.2062C148.147 71.0763 148.006 70.9751 147.855 70.9072C148.683 67.1465 150.564 63.8917 153.149 61.7457C155.734 59.5997 158.849 58.7079 161.916 59.2356C164.982 59.7633 167.794 61.6746 169.828 64.6156C171.863 67.5566 172.984 71.3278 172.983 75.2308Z" fill="black"/>
<path d="M160.899 76.282C162.329 76.8896 163.387 74.0061 164.876 73.8229C165.758 73.7168 166.538 74.5912 167.145 75.5009C168.009 76.7979 168.727 78.2387 169.279 79.7827C169.549 80.5285 169.789 81.3225 170.222 81.9011C170.633 82.3857 171.116 82.7646 171.642 83.0166L173.579 84.116C174.704 84.7589 176.129 85.315 177 84.116C177.691 83.1516 177.597 81.5443 177.278 80.2585C176.96 78.9726 176.457 77.6868 176.483 76.3303C176.511 74.8515 177.148 73.54 177.357 72.0902C177.709 69.66 176.802 67.188 175.601 65.375C174.4 63.5619 172.904 62.1893 171.67 60.4213C170.969 59.4151 170.357 58.2933 169.631 57.3096C168.735 56.0683 167.656 55.0584 166.454 54.3361C165.637 53.8111 164.735 53.5296 163.818 53.5132C162.697 53.5357 161.623 54.1047 160.56 54.6158C158.959 55.3873 157.31 56.0431 155.617 56.1138C153.578 56.1974 151.365 55.4709 149.573 56.8692C148.298 57.8625 147.534 59.7334 146.822 61.5143L145.293 65.3203C144.714 66.7637 144.128 68.2134 143.307 69.4125C142.486 70.6115 141.39 71.5019 140.215 71.5309C140.862 72.156 141.636 72.5383 142.447 72.6338C143.259 72.7293 144.076 72.5342 144.803 72.0709C145.415 71.6723 145.963 71.0905 146.588 70.7433C147.212 70.3961 147.982 70.3158 148.518 70.8912C148.767 71.217 148.993 71.5686 149.196 71.9423C149.723 72.663 150.432 73.1319 151.202 73.27C153.41 73.8004 155.589 72.7589 157.601 71.563C158.659 70.9201 158.985 70.4958 159.564 72.0066C159.831 72.6238 160.466 76.0988 160.899 76.282Z" fill="#63345E"/>
<path opacity="0.1" d="M179.473 167.981C179.473 167.981 178.963 169.498 178.221 171.739C177.622 172.112 176.988 172.523 176.378 172.922C174.747 173.992 173.299 174.973 173.299 174.973L165.965 175.477C165.86 173.83 165.68 172.192 165.424 170.572L179.473 167.981Z" fill="black"/>
<path opacity="0.1" d="M191.554 123.407L189.77 131.306C189.77 131.306 187.985 136.044 188.877 140.56C189.77 145.077 188.34 151.956 188.34 151.956L185.558 160.983C185.558 160.983 182.068 170.234 181.441 170.234C181.1 170.234 178.872 171.642 176.914 172.921C175.282 173.992 173.837 174.972 173.837 174.972L165.603 175.538C162.888 166.537 164.761 164.959 166.112 164.811C166.455 164.775 166.801 164.816 167.132 164.933L168.917 150.715V141.914C168.917 141.914 169.455 133.453 170.617 130.743C171.357 128.956 171.927 127.064 172.315 125.108C172.315 125.108 171.239 122.511 170.971 120.82C170.796 119.626 170.677 118.421 170.615 117.21C170.615 117.21 169.36 117.435 169.003 104.57C168.646 91.7052 176.251 88.211 176.251 88.211C185.38 84.7135 190.659 94.4151 194.325 101.413C197.991 108.411 191.554 123.407 191.554 123.407Z" fill="black"/>
<path opacity="0.1" d="M190.478 122.732L188.694 130.627C188.694 130.627 186.909 135.369 187.799 139.882C188.689 144.395 187.264 151.278 187.264 151.278L184.49 160.304C184.49 160.304 180.995 169.556 180.376 169.556C180.034 169.556 177.806 170.964 175.848 172.243C174.217 173.314 172.769 174.297 172.769 174.297L169.098 174.548L168.295 168.54C168.295 168.54 167.823 160.716 166.974 157L167.849 150.04V141.239C167.849 141.239 168.386 132.775 169.549 130.068C170.29 128.278 170.86 126.383 171.247 124.423C171.247 124.423 170.173 121.829 169.906 120.135C169.729 118.943 169.61 117.739 169.549 116.528C169.549 116.528 168.295 116.75 167.938 103.885C167.581 91.0207 175.185 87.5264 175.185 87.5264C184.312 84.0289 189.594 93.7305 193.26 100.729C196.925 107.727 190.478 122.732 190.478 122.732Z" fill="black"/>
<path d="M191.016 122.732L189.232 130.627C189.232 130.627 187.447 135.369 188.337 139.882C189.227 144.396 187.799 151.278 187.799 151.278L185.028 160.304C185.028 160.304 181.538 169.556 180.908 169.556C180.569 169.556 178.339 170.964 176.384 172.243C174.752 173.314 173.304 174.298 173.304 174.298L165.07 174.86C162.357 165.859 164.231 164.284 165.567 164.133C165.91 164.097 166.255 164.138 166.587 164.255L168.371 150.04V141.239C168.371 141.239 168.907 132.775 170.069 130.068C170.81 128.278 171.381 126.383 171.769 124.423C171.769 124.423 170.696 121.829 170.426 120.135C170.251 118.943 170.131 117.738 170.069 116.528C170.069 116.528 168.817 116.75 168.46 103.885C168.104 91.0207 175.708 87.5264 175.708 87.5264C184.834 84.0289 190.114 93.7305 193.782 100.729C197.451 107.727 191.016 122.732 191.016 122.732Z" fill="#FFD037"/>
<path opacity="0.1" d="M176.646 171.906C175.015 172.976 173.567 173.957 173.567 173.957L165.335 174.522C162.62 165.522 164.494 163.943 165.83 163.795C167.8 165.589 170.362 168.055 170.525 168.881C170.689 169.707 174.015 170.996 176.646 171.906Z" fill="black"/>
<path d="M176.378 172.244C174.747 173.314 173.299 174.298 173.299 174.298L165.065 174.86C162.352 165.86 164.226 164.284 165.562 164.133C167.532 165.93 170.094 168.393 170.258 169.219C170.421 170.045 173.748 171.334 176.378 172.244Z" fill="#FFD037"/>
<g opacity="0.1">
<path opacity="0.1" d="M177.449 81.9655C176.587 83.1709 175.155 82.6084 174.028 81.9655L172.091 80.8661C171.563 80.6165 171.081 80.2373 170.671 79.7506C170.24 79.172 169.995 78.378 169.727 77.6322C169.173 76.0906 168.455 74.6513 167.594 73.3536C166.987 72.4439 166.204 71.5695 165.322 71.6756C163.834 71.8588 162.773 74.7423 161.345 74.1348C160.915 73.9515 160.28 70.4766 160.035 69.8369C159.454 68.326 159.13 68.7632 158.07 69.3933C156.061 70.5891 153.881 71.6435 151.671 71.1002C150.902 70.9622 150.194 70.4932 149.667 69.7726C149.463 69.3995 149.236 69.048 148.987 68.7214C148.451 68.146 147.686 68.2232 147.059 68.5736C146.432 68.9239 145.887 69.5026 145.275 69.9012C144.419 70.4497 143.443 70.6195 142.501 70.3834C141.862 71.0542 141.068 71.4476 140.238 71.5052C140.885 72.1304 141.659 72.5126 142.47 72.6082C143.282 72.7037 144.099 72.5086 144.826 72.0453C145.438 71.6467 145.986 71.0648 146.611 70.7177C147.235 70.3705 148.005 70.2901 148.54 70.8655C148.789 71.1914 149.016 71.543 149.219 71.9167C149.746 72.6373 150.455 73.1063 151.225 73.2443C153.433 73.7747 155.612 72.7332 157.624 71.5374C158.681 70.8945 159.008 70.4702 159.586 71.981C159.841 72.6239 160.466 76.0957 160.899 76.2789C162.329 76.8864 163.387 74.003 164.876 73.8197C165.758 73.7137 166.538 74.588 167.145 75.4978C168.009 76.7957 168.727 78.2376 169.279 79.7828C169.549 80.5286 169.789 81.3226 170.222 81.9012C170.633 82.3858 171.116 82.7646 171.642 83.0166L173.579 84.116C174.704 84.7589 176.129 85.3151 177 84.116C177.399 83.4801 177.582 82.6713 177.51 81.8658C177.492 81.898 177.472 81.9333 177.449 81.9655Z" fill="black"/>
<path opacity="0.1" d="M177.406 71.6562C177.188 72.3502 177.037 73.0742 176.955 73.8132C177.126 73.2458 177.26 72.6621 177.357 72.0677C177.378 71.9327 177.393 71.7945 177.406 71.6562Z" fill="black"/>
</g>
<path opacity="0.1" d="M127.127 211.082C127.127 211.082 125.515 216.499 122.382 216.611L127.127 211.082Z" fill="black"/>
<path d="M89.2751 181.746L112.361 181.067L120.414 186.709L121.669 199.911L100.461 192.238L89.2751 181.746Z" fill="#AEA4B2"/>
<path opacity="0.05" d="M89.2751 181.746L112.361 181.067L120.414 186.709L121.669 199.911L100.461 192.238L89.2751 181.746Z" fill="black"/>
<path d="M75.8559 161.433C76.1236 161.433 78.2726 164.818 78.2726 164.818C78.2726 164.818 86.415 166.624 88.383 164.368C90.351 162.111 84.5234 154.55 84.5234 154.55L79.3331 154.891L75.1268 158.048L75.8559 161.433Z" fill="#FFC4D0"/>
<path d="M63.9508 150.715L67.8894 152.966C67.8894 152.966 70.3953 153.756 71.2901 153.756C72.1849 153.756 75.9425 153.191 75.9425 153.191L79.3433 154.885C79.3433 154.885 76.2994 162.105 78.27 164.811C78.27 164.811 72.0957 165.602 69.7682 164.249C67.4407 162.895 64.3103 162.442 64.3103 162.442L63.9508 150.715Z" fill="#575989"/>
<path opacity="0.05" d="M64.4886 150.825L68.4247 153.075C68.4247 153.075 70.9306 153.866 71.8254 153.866C72.7202 153.866 76.4804 153.3 76.4804 153.3L79.8786 155.004C79.8786 155.004 76.8373 162.224 78.8053 164.933C78.8053 164.933 72.631 165.721 70.3061 164.368C67.9811 163.014 64.8455 162.561 64.8455 162.561L64.4886 150.825Z" fill="black"/>
<path d="M72.9879 97.344C72.9879 97.344 47.0492 89.8958 51.6939 88.88C54.6613 88.2371 57.3762 79.7731 58.9491 73.7361C59.8465 70.3094 60.3716 67.667 60.3716 67.667C60.3716 67.667 75.3154 76.4685 71.9147 79.4034C70.6095 80.5317 70.4641 83.4345 70.7828 86.5848C71.2901 91.6477 72.9879 97.344 72.9879 97.344Z" fill="#FFC4D0"/>
<path d="M98.3123 214.017L98.2944 214.589L98.2435 216.049L98.2205 216.724L98.0599 221.546V221.661V221.935V222.047H97.2339H97.211H96.4743V222.031L96.2066 222.047V221.674L95.8523 221.536C90.7537 219.569 85.6425 217.235 80.3859 216.595C80.1309 216.566 79.876 216.537 79.6211 216.515C77.9918 216.375 76.3565 216.39 74.7291 216.56C69.8447 217.036 64.9858 218.701 60.1524 220.453L59.8516 220.559C59.5966 220.655 59.3264 220.748 59.0638 220.848L59.1276 215.914V215.235V214.355H60.5577H60.8152L74.701 214.232L80.3527 214.181L98.3123 214.017Z" fill="#5F546F"/>
<path opacity="0.1" d="M60.9987 212.773L60.8177 214.348L60.7132 215.277L60.6393 215.946L60.1294 220.446L59.8286 220.552C59.5737 220.649 59.3034 220.742 59.0409 220.842V221.057H58.4749L57.3711 221.456H53.0374L53.0909 220.948L53.6288 215.804L53.7002 215.132L53.8429 213.792L60.7259 212.828L60.9987 212.773Z" fill="black"/>
<path d="M60.7311 212.773V212.812L60.5552 214.351L60.4507 215.271L60.3767 215.949L59.8261 220.581C59.5712 220.678 59.301 220.771 59.0384 220.87V221.086H58.4724L57.3686 221.484L57.1137 221.574L52.7646 221.484L53.3586 215.824L53.4224 215.116L53.4784 214.554L53.5575 213.779L60.7311 212.773Z" fill="#5F546F"/>
<path opacity="0.1" d="M103.592 214.917L103.574 216.174L103.566 216.849V216.855L103.503 221.626V221.687L98.0498 221.96L97.053 222.011L96.4565 222.04L96.1863 222.053L96.1761 221.684L96.1735 221.549L96.0435 216.701V216.694L96.0257 216.016L95.9849 214.467L96.2551 214.483L98.0268 214.586L98.2945 214.605L103.592 214.917Z" fill="black"/>
<path d="M103.86 214.917L103.844 216.18L103.834 216.855L103.74 221.629L103.727 222.14L98.0447 222.072L97.1958 222.066H97.1907L96.4565 222.053V222.04L96.4463 221.783L96.4412 221.552L96.3112 216.701L96.2959 216.023L96.2551 214.483V214.467L98.2945 214.586L103.86 214.917Z" fill="#5F546F"/>
<path opacity="0.1" d="M60.7311 212.773V212.812L60.5552 214.351L60.4507 215.271L60.3767 215.949L59.8261 220.581C59.5712 220.678 59.301 220.771 59.0384 220.87V221.086H58.4724L57.3686 221.484L57.1137 221.574L52.7646 221.484L53.3586 215.824L53.4224 215.116L53.4784 214.554L53.5575 213.779L60.7311 212.773Z" fill="white"/>
<path opacity="0.1" d="M103.86 214.917L103.844 216.18L103.834 216.855L103.74 221.629L103.727 222.14L98.0447 222.072L97.1958 222.066H97.1907L96.4565 222.053V222.04L96.4463 221.783L96.4412 221.552L96.3112 216.701L96.2959 216.023L96.2551 214.483V214.467L98.2945 214.586L103.86 214.917Z" fill="white"/>
<path opacity="0.1" d="M71.9146 79.4033C70.6094 80.5316 70.4641 83.4344 70.7828 86.5847C68.0311 86.129 65.445 84.6691 63.3426 82.3847C61.2402 80.1002 59.7131 77.0907 58.9491 73.7263C59.8464 70.2996 60.3716 67.6572 60.3716 67.6572C60.3716 67.6572 75.3154 76.4684 71.9146 79.4033Z" fill="black"/>
<path d="M86.8584 68.1202C86.8543 72.6465 85.492 77.0032 83.0453 80.3151C80.5986 83.6271 77.2486 85.6489 73.6684 85.9744C70.0882 86.2999 66.5429 84.9051 63.7446 82.0701C60.9464 79.235 59.1026 75.1698 58.5835 70.6911C58.0644 66.2123 58.9086 61.6518 60.9464 57.9256C62.9842 54.1993 66.0646 51.5835 69.569 50.6034C73.0734 49.6234 76.7421 50.3517 79.8381 52.6422C82.9341 54.9327 85.2281 58.6156 86.2593 62.9511C86.6579 64.6281 86.8598 66.3695 86.8584 68.1202Z" fill="#FFC4D0"/>
<path opacity="0.1" d="M86.2594 62.951C85.1224 62.5941 83.9931 62.0959 82.8281 62.083C82.5584 62.0435 82.2865 62.1292 82.0633 62.3241C81.7294 62.6809 81.7778 63.3271 81.7396 63.8767C81.7023 64.3888 81.5667 64.8816 81.3447 65.3128C81.1226 65.7441 80.8207 66.1007 80.4649 66.352C79.5523 66.9949 78.3618 66.8792 77.569 67.7278C76.562 68.8111 76.7303 70.8074 77.077 72.4179C77.2457 73.0475 77.3318 73.7077 77.3319 74.3723C77.3064 74.9453 77.143 75.4949 76.8635 75.9478C76.5839 76.4007 76.2015 76.7354 75.7673 76.9072C75.333 77.079 74.8676 77.0798 74.4329 76.9095C73.9983 76.7392 73.6152 76.4058 73.3347 75.9539C72.6158 74.7999 72.7126 73.1797 72.5215 71.7364C72.3051 70.1014 71.6882 68.5928 70.7574 67.4224C70.3367 66.8526 69.8008 66.4381 69.2074 66.2234C68.9093 66.1221 68.5954 66.1201 68.2965 66.2176C67.9975 66.3151 67.7238 66.5087 67.502 66.7795C66.9335 67.5671 67.0329 68.7565 66.959 69.8173C66.8883 70.7845 66.6537 71.7213 66.2711 72.5642C65.8884 73.4072 65.3667 74.1367 64.7411 74.7034C63.5455 75.7739 62.0618 76.1693 60.6852 76.809C60.5487 76.8777 60.4173 76.9616 60.2926 77.0597C59.2944 74.8664 58.6751 72.4317 58.4754 69.9154C58.2757 67.3991 58.5 64.858 59.1337 62.4587C59.7673 60.0593 60.7961 57.856 62.1523 55.9931C63.5086 54.1303 65.1619 52.65 67.0036 51.6493C68.8454 50.6485 70.8342 50.15 72.8394 50.1864C74.8447 50.2228 76.8212 50.7933 78.6394 51.8604C80.4576 52.9276 82.0764 54.4673 83.3896 56.3786C84.7028 58.2899 85.6808 60.5296 86.2594 62.951Z" fill="black"/>
<path d="M60.415 76.4716C61.7942 75.8287 63.2753 75.4365 64.4734 74.3661C65.0987 73.7983 65.6202 73.068 66.0028 72.2246C66.3854 71.3812 66.6201 70.4442 66.6913 69.4767C66.7627 68.4191 66.6709 67.2265 67.2419 66.4389C67.4638 66.1692 67.7372 65.9765 68.0356 65.8796C68.3341 65.7827 68.6473 65.7849 68.9448 65.886C69.5416 66.0976 70.0805 66.5125 70.5024 67.085C71.4337 68.2546 72.0522 69.7616 72.2716 71.3958C72.4628 72.8424 72.366 74.4625 73.0849 75.6165C73.3662 76.0669 73.7496 76.3987 74.184 76.5678C74.6185 76.737 75.0834 76.7354 75.5172 76.5635C75.9509 76.3915 76.3329 76.0572 76.6124 75.605C76.8919 75.1528 77.0557 74.6041 77.0821 74.0317C77.0807 73.3683 76.9946 72.7095 76.8272 72.0805C76.4805 70.4732 76.3173 68.4737 77.3192 67.3904C78.1094 66.5418 79.3025 66.6447 80.2151 66.0146C80.5705 65.762 80.8721 65.4045 81.094 64.9729C81.316 64.5413 81.4518 64.0483 81.4898 63.5362C81.528 62.9865 81.477 62.3403 81.811 61.9867C82.0347 61.7931 82.3059 61.7064 82.5758 61.7424C84.5004 61.7649 86.3257 63.1054 88.2479 62.9704C88.4862 62.9757 88.7204 62.8918 88.9209 62.7293C89.1006 62.527 89.2351 62.2687 89.3109 61.9803C89.8208 60.4887 90.221 58.7497 89.6627 57.2902C88.9438 55.4194 86.8585 54.6864 86.4404 52.6773C86.2365 51.7129 86.4226 50.5011 85.8133 49.8581C85.5325 49.6193 85.2172 49.4522 84.8854 49.3663C83.5572 48.8359 82.5171 47.5533 81.3649 46.5664C80.2126 45.5795 78.706 44.8563 77.4441 45.602C77.1892 45.7435 76.9827 45.9235 76.743 46.081C75.6086 46.7721 74.2728 46.4025 73.0262 46.1549C71.7796 45.9074 70.3214 45.9364 69.4904 47.1193C69.1794 47.5661 68.9805 48.1512 68.6083 48.5144C67.92 49.1799 66.9437 48.8584 66.0948 48.643C65.2459 48.4276 64.1369 48.5209 63.8004 49.5302C63.7242 49.8466 63.6638 50.1687 63.6194 50.4946C63.4257 51.3593 62.7756 51.954 62.0899 52.2369C61.4041 52.5198 60.6878 52.5584 59.9842 52.7191C58.8457 52.9815 57.7667 53.5554 56.8231 54.4003C56.1628 54.995 55.5204 55.9208 55.6938 56.9206C55.755 57.2709 55.9105 57.5828 55.9691 57.9331C56.145 58.9618 55.4592 59.8619 54.9086 60.6527C54.358 61.4435 53.8889 62.6779 54.4421 63.4686C54.6613 63.7901 54.9902 63.9316 55.2579 64.1759C55.9946 64.8573 56.1577 66.1432 56.2011 67.2972C56.2644 69.0163 56.1935 70.739 55.9895 72.4405C55.8136 73.8967 54.9902 78.0853 56.5146 78.95C57.4043 79.4612 59.4998 76.8895 60.415 76.4716Z" fill="#AE757A"/>
<path d="M130.12 214.821C130.108 214.832 130.095 214.84 130.081 214.846C126.451 216.814 122.943 219.324 119.326 221.291C119.005 221.465 118.684 221.635 118.357 221.803C116.107 223.001 113.744 223.829 111.326 224.265C108.832 224.638 106.308 224.558 103.832 224.027C103.913 222.78 104.107 220.976 104.563 220.292C104.963 219.694 105.672 218.893 106.906 217.855C107.462 217.419 107.934 216.834 108.29 216.142C108.511 215.688 108.638 215.172 108.658 214.64C108.679 214.109 108.593 213.579 108.407 213.101C108.332 212.898 108.247 212.702 108.153 212.512C107.999 212.203 107.817 211.918 107.612 211.661H63.6832C63.6832 211.661 53.3051 211.571 48.9943 211.548H47.5769C44.9818 211.548 38.8941 210.307 38.5372 209.066C38.1803 207.826 33.7956 205.003 32.1845 204.437C31.3789 204.158 30.0788 201.245 28.9852 198.41C28.8093 197.96 28.641 197.513 28.4753 197.076C28.3937 196.861 28.3147 196.649 28.2408 196.433V196.411C27.9196 195.53 27.6417 194.729 27.4327 194.112L27.3256 193.791C27.3052 193.73 27.2848 193.672 27.2695 193.617C27.2542 193.563 27.2262 193.485 27.2032 193.428L27.1446 193.247C27.0528 192.974 27.0018 192.817 27.0018 192.817L66.9998 173.529C66.9998 173.529 68.2744 173.938 70.1711 174.545C70.3266 174.597 70.4846 174.648 70.6503 174.696L74.7113 176.008C76.6283 176.631 78.6295 177.294 80.363 177.859C82.7568 178.657 84.6356 179.299 85.0766 179.512C86.002 179.949 89.6653 180.997 92.1227 181.685C93.4739 182.064 94.4655 182.328 94.4655 182.328C94.4655 182.328 97.6266 183.106 101.759 184.163L102.562 184.369L103.633 184.642C103.847 184.694 104.064 184.751 104.28 184.809C105.014 184.996 105.761 185.189 106.516 185.388L108.137 185.812C109.871 186.265 111.589 186.725 113.18 187.166L114.414 187.506L114.89 187.638L115.362 187.77C117.192 188.291 118.719 188.754 119.696 189.097C120.033 189.217 120.362 189.37 120.68 189.554C122.836 190.785 124.669 193.363 126.002 195.742C126.905 197.345 127.697 199.042 128.371 200.815C131.175 205.048 130.874 212.03 130.12 214.821Z" fill="#AEA4B2"/>
<path opacity="0.1" d="M62.3448 186.828C62.3448 186.828 60.6444 196.308 55.3649 199.686C50.0854 203.065 62.3448 186.828 62.3448 186.828Z" fill="black"/>
<path opacity="0.1" d="M73.615 192.688C73.615 192.688 67.8894 196.867 68.695 199.911L73.615 192.688Z" fill="black"/>
<path opacity="0.1" d="M125.248 204.649C125.248 204.649 123.637 213.226 120.149 213.329L125.248 204.649Z" fill="black"/>
<path opacity="0.1" d="M103.86 214.917L103.837 216.855L98.2231 216.743L96.3112 216.701L60.3717 215.949L59.1021 215.923L53.3612 215.801L53.5728 213.789L60.7311 212.773L60.5527 214.351L98.3149 214.017L98.2945 214.589L103.86 214.917Z" fill="black"/>
<path d="M105.539 216.219L51.3829 215.084C50.719 215.07 50.0851 214.732 49.6139 214.142C49.1426 213.552 48.8704 212.755 48.8541 211.918L48.8235 210.404H108.155V212.975C108.155 213.406 108.087 213.832 107.954 214.229C107.822 214.626 107.629 214.986 107.386 215.288C107.142 215.589 106.854 215.827 106.537 215.987C106.22 216.147 105.881 216.226 105.539 216.219Z" fill="#CCCCD8"/>
<path opacity="0.1" d="M66.9053 178.149C66.9053 178.149 64.8455 180.18 63.8615 181.871C62.8775 183.562 57.5011 186.597 57.5011 186.597C50.6895 195.553 34.7821 197.848 28.9774 198.394C28.8015 197.944 28.6333 197.497 28.4676 197.06C27.6136 194.755 26.9839 192.804 26.9839 192.804L66.9818 173.517L70.1505 174.532C70.3217 174.928 70.5187 175.306 70.7394 175.661C70.8159 175.769 70.8702 175.899 70.8975 176.04C71.2085 177.554 66.9053 178.149 66.9053 178.149Z" fill="black"/>
<path d="M70.6425 174.677C70.9408 176.197 66.6376 176.782 66.6376 176.782C66.6376 176.782 64.5778 178.811 63.5938 180.505C62.6098 182.199 57.2462 185.243 57.2462 185.243C50.3402 194.321 34.0785 196.552 28.4854 197.06C27.2668 197.172 26.553 197.201 26.553 197.201C26.553 197.201 25.0235 192.463 24.4958 192.576C23.9681 192.688 21.8114 184.899 21.8114 184.899C21.8114 184.899 22.7062 164.59 22.2575 162.217C21.8089 159.845 22.436 143.148 22.3493 141.57C22.2626 139.992 23.9604 126.461 25.4798 121.935C26.9992 117.409 32.2761 108.071 32.2761 108.071L41.9506 95.878C41.9506 95.878 48.4818 88.9924 50.2714 88.4298C52.061 87.8673 52.5963 82.6757 52.5963 82.6757C56.8918 80.4255 61.9929 85.1574 61.9929 85.1574C66.4668 85.0449 66.0182 86.0607 66.0182 86.0607L68.6159 86.7389L68.6821 87.6487L71.9146 131.859L68.0907 144.074L66.2655 149.921C66.7348 151.884 66.672 153.988 66.087 155.901C65.103 159.06 66.8008 162.783 66.8008 162.783C66.8008 162.783 67.874 165.609 66.4439 167.283C65.0138 168.958 68.8606 169.534 68.8606 169.534C68.8606 169.534 69.3093 172.468 70.4717 174.275C70.5533 174.39 70.6119 174.528 70.6425 174.677Z" fill="#00ADB5"/>
<path opacity="0.1" d="M51.694 161.773C51.694 161.773 49.9095 166.062 53.1242 166.737C56.3388 167.412 64.6672 166.287 65.7405 166.287C66.8137 166.287 51.694 161.773 51.694 161.773Z" fill="black"/>
<path opacity="0.1" d="M51.3345 147.443C51.7831 148.459 61.4474 158.726 64.7563 160.533L51.3345 147.443Z" fill="black"/>
<path opacity="0.1" d="M58.2252 140.217C58.2252 140.217 63.0688 151.146 64.6672 152.857C66.2656 154.567 64.9349 146.749 64.9349 146.749L58.2252 140.217Z" fill="black"/>
<path opacity="0.1" d="M44.6248 109.08C44.6248 109.08 56.8816 119.122 56.3514 126.23C55.8211 133.337 44.6248 109.08 44.6248 109.08Z" fill="black"/>
<path opacity="0.1" d="M30.1272 141.464C30.1272 141.464 26.9967 172.719 51.8724 172.153C51.8724 172.153 31.5599 162.677 30.1272 141.464Z" fill="black"/>
<path d="M126.232 195.739C122.65 195.623 112.542 190.997 112.542 190.997L112.601 190.647L114.24 180.72L116.279 180.807C118.273 180.891 121.222 181.032 122.734 181.173C125.159 181.405 129.811 195.848 126.232 195.739Z" fill="#FFC4D0"/>
<path opacity="0.1" d="M68.6721 87.6484L71.9147 131.858L68.0908 144.074C65.1133 138.583 61.7483 132.399 60.8076 130.74C59.0231 127.58 55.3496 112.124 55.3496 112.124C55.3496 112.124 54.2764 98.4687 61.5239 91.2488C64.6697 88.1403 67.0176 87.4331 68.6721 87.6484Z" fill="black"/>
<path opacity="0.1" d="M114.416 187.487C113.799 189.129 112.881 190.561 111.737 191.666C111.737 191.666 107.061 188.252 101.759 184.134C105.726 185.153 110.59 186.413 114.416 187.487Z" fill="black"/>
<path opacity="0.1" d="M113.075 191.007L112.598 190.656L114.24 180.72L116.28 180.807C117.363 187.214 113.075 191.007 113.075 191.007Z" fill="black"/>
<path d="M72.6311 89.1051C72.6311 89.1051 69.5898 83.351 62.3448 90.5741C55.0998 97.7973 56.1705 111.45 56.1705 111.45C56.1705 111.45 59.8389 126.905 61.6284 130.065C63.418 133.225 73.9745 152.754 73.9745 152.754C73.9745 152.754 85.0689 168.663 92.3165 175.095C99.564 181.527 112.54 191.007 112.54 191.007C112.54 191.007 117.014 187.056 115.673 180.399C115.673 180.399 113.167 179.611 111.915 177.917C110.664 176.223 109.139 174.195 109.139 174.195C109.139 174.195 106.993 173.067 106.993 171.826C106.993 170.585 103.057 166.522 103.057 166.522C103.057 166.522 102.786 164.828 101.802 164.49C100.818 164.153 99.3856 159.99 99.3856 159.99C99.3856 159.99 96.0715 155.139 95.9874 153.561C95.9033 151.982 94.4579 151.87 94.4579 151.87C94.4579 151.87 93.2036 148.71 93.2036 147.919C93.2036 147.128 91.3248 145.55 91.3248 145.55L88.3728 141.371C88.3728 141.371 89.1783 138.439 86.3155 136.183C83.4527 133.926 83.0932 127.503 83.0932 127.503L80.3196 119.942C80.6392 119.715 80.8857 119.353 81.0165 118.921C81.1473 118.488 81.1542 118.012 81.036 117.573C80.7873 116.494 80.3598 115.494 79.7817 114.638C79.7817 114.638 80.8575 113.851 79.9602 112.044C79.0629 110.238 78.887 105.953 78.887 105.953L76.7405 98.392C76.7405 98.392 76.2995 91.1367 72.6311 89.1051Z" fill="#00ADB5"/>
<path opacity="0.1" d="M80.1488 139.657C80.1488 139.657 89.4536 136.61 86.68 139.091C83.9064 141.573 80.1488 139.657 80.1488 139.657Z" fill="black"/>
<path opacity="0.1" d="M78.8947 152.406C78.8947 152.406 85.9637 150.828 84.3526 152.859C82.7415 154.891 78.8947 152.406 78.8947 152.406Z" fill="black"/>
<path opacity="0.1" d="M64.9348 99.6006C64.9348 99.6006 74.4206 102.761 76.6614 109.418L64.9348 99.6006Z" fill="black"/>
<g opacity="0.1">
<path opacity="0.1" d="M56.1041 65.4905C56.0607 64.3397 55.8976 63.0507 55.1609 62.3724C54.9059 62.1249 54.5643 61.977 54.3451 61.6652L54.3145 61.6138C54.1386 62.1924 54.1208 62.7903 54.4343 63.2436C54.6536 63.565 54.9824 63.7065 55.2501 63.9508C55.7752 64.4362 56.0149 65.2366 56.1143 66.0595C56.1092 65.8699 56.1092 65.6802 56.1041 65.4905Z" fill="black"/>
<path opacity="0.1" d="M55.686 56.6954C55.7134 56.8376 55.7509 56.9764 55.7981 57.1101C55.899 56.7985 55.9247 56.4563 55.8721 56.1264C55.8467 55.9828 55.81 55.8428 55.7624 55.7085C55.6595 56.0205 55.6328 56.3642 55.686 56.6954Z" fill="black"/>
<path opacity="0.1" d="M89.7977 57.5796C89.6993 58.4771 89.4983 59.352 89.2011 60.177C89.126 60.465 88.9924 60.7232 88.8137 60.926C88.6124 61.0861 88.3786 61.1687 88.1407 61.1638C86.2185 61.2989 84.3932 59.9616 82.4685 59.9359C82.1986 59.8993 81.9273 59.986 81.7038 60.1802C81.3698 60.537 81.4208 61.1831 81.3826 61.7296C81.3448 62.2419 81.2091 62.735 80.9871 63.1666C80.7651 63.5983 80.4634 63.9556 80.1079 64.208C79.1953 64.851 78.0022 64.7352 77.212 65.5839C76.4217 66.4325 76.3503 67.9337 76.5466 69.316C76.5491 68.9103 76.6184 68.5097 76.7501 68.1396C76.8817 67.7694 77.0728 67.4377 77.3114 67.1655C78.1017 66.3136 79.2947 66.4197 80.2073 65.7896C80.5627 65.537 80.8643 65.1796 81.0862 64.748C81.3082 64.3164 81.444 63.8234 81.482 63.3112C81.5202 62.7615 81.4692 62.1154 81.8032 61.7618C82.0263 61.5665 82.298 61.4797 82.568 61.5174C84.4927 61.5399 86.3179 62.8804 88.2401 62.7454C88.4784 62.7507 88.7126 62.6668 88.9131 62.5043C89.0928 62.302 89.2273 62.0437 89.3031 61.7553C89.7339 60.4341 90.1061 58.9233 89.7977 57.5796Z" fill="black"/>
<path opacity="0.1" d="M75.4224 74.7614C74.9868 74.922 74.5233 74.9161 74.0904 74.7444C73.6575 74.5728 73.2747 74.2431 72.9904 73.7971C72.2715 72.643 72.3684 71.0261 72.1772 69.5763C71.9561 67.9429 71.3379 66.4364 70.408 65.2656C69.9864 64.6957 69.4497 64.2812 68.8555 64.0665C68.5577 63.9658 68.2444 63.9642 67.9459 64.0616C67.6475 64.1591 67.3742 64.3524 67.1526 64.6227C66.5815 65.4006 66.6733 66.5996 66.602 67.6572C66.5311 68.6248 66.2965 69.562 65.9139 70.4055C65.5313 71.2489 65.0096 71.9791 64.3841 72.5466C63.1859 73.617 61.7048 74.0124 60.3257 74.6554C59.4105 75.0829 57.315 77.6449 56.4176 77.1338C55.969 76.8798 55.7268 76.3398 55.607 75.668C55.5687 77.0116 55.7421 78.2814 56.5069 78.7154C57.4042 79.2233 59.4997 76.6613 60.4149 76.2337C61.794 75.5908 63.2752 75.1986 64.4733 74.1249C65.0988 73.5581 65.6204 72.8285 66.003 71.9856C66.3857 71.1426 66.6203 70.2059 66.6912 69.2388C66.7625 68.1812 66.6708 66.9886 67.2418 66.201C67.4636 65.9313 67.7371 65.7386 68.0355 65.6417C68.3339 65.5448 68.6472 65.547 68.9447 65.6481C69.539 65.8608 70.0759 66.2743 70.4972 66.8439C71.4281 68.0151 72.0465 69.523 72.2664 71.1579C72.4576 72.6045 72.3607 74.2214 73.0796 75.3754C73.3601 75.8273 73.7433 76.1607 74.1779 76.331C74.6125 76.5013 75.078 76.5005 75.5122 76.3287C75.9465 76.1569 76.3289 75.8222 76.6084 75.3693C76.888 74.9164 77.0514 74.3668 77.0769 73.7938C77.0879 73.3601 77.0475 72.9267 76.9571 72.508C76.8867 73.0235 76.7068 73.5052 76.4366 73.902C76.1663 74.2988 75.8158 74.5958 75.4224 74.7614Z" fill="black"/>
</g>
<path d="M14.7271 141.422C14.5962 141.653 14.4923 141.906 14.4186 142.174C14.3982 142.239 14.3778 142.313 14.36 142.387C14.3251 142.365 14.2883 142.349 14.2503 142.338C14.084 142.284 13.9117 142.266 13.7405 142.284C13.7405 142.203 13.7405 142.117 13.7405 142.027C13.7609 141.104 13.6742 139.818 12.9757 140.361C12.2772 140.905 12.7845 141.76 13.2153 142.325L13.3275 142.464C12.9324 142.821 12.8584 143.643 12.7922 144.502C12.7259 145.36 12.1472 146.305 11.7725 146.839L11.6654 146.99C11.5101 146.832 11.3299 146.718 11.1369 146.656C10.9439 146.593 10.7426 146.583 10.5463 146.627C10.531 146.549 10.5131 146.472 10.4953 146.389C10.1843 144.971 9.53676 142.515 8.7108 141.978L8.81786 141.805C9.16966 141.226 9.56225 140.368 8.98102 140.149C8.39978 139.931 8.34625 140.895 8.37939 141.615C8.37939 141.705 8.37939 141.792 8.39469 141.872C8.27905 141.88 8.16588 141.918 8.06204 141.982C7.95819 142.047 7.86582 142.137 7.79051 142.248L7.70129 142.113C7.22967 141.409 6.36292 140.297 6.10035 141.149C5.84542 141.933 6.6102 142.952 7.15574 143.544L7.18889 143.579C6.82689 145.421 8.39978 146.926 9.24614 147.581L9.35576 147.665C8.1882 149.401 7.46675 152.651 7.46675 152.651L10.7375 153.387C10.7375 153.387 12.9043 151.031 12.6265 148.816H12.6494C14.8137 148.269 15.3057 145.357 14.9692 143.627L15.0075 143.608C15.4033 143.404 15.749 143.071 16.0093 142.644C16.6186 141.576 15.3491 140.381 14.7271 141.422Z" fill="#FAFAFB"/>
<path opacity="0.1" d="M14.7271 141.422C14.5962 141.653 14.4923 141.906 14.4186 142.174C14.3982 142.239 14.3778 142.313 14.36 142.387C14.3251 142.365 14.2883 142.349 14.2503 142.338C14.084 142.284 13.9117 142.266 13.7405 142.284C13.7405 142.203 13.7405 142.117 13.7405 142.027C13.7609 141.104 13.6742 139.818 12.9757 140.361C12.2772 140.905 12.7845 141.76 13.2153 142.325L13.3275 142.464C12.9324 142.821 12.8584 143.643 12.7922 144.502C12.7259 145.36 12.1472 146.305 11.7725 146.839L11.6654 146.99C11.5101 146.832 11.3299 146.718 11.1369 146.656C10.9439 146.593 10.7426 146.583 10.5463 146.627C10.531 146.549 10.5131 146.472 10.4953 146.389C10.1843 144.971 9.53676 142.515 8.7108 141.978L8.81786 141.805C9.16966 141.226 9.56225 140.368 8.98102 140.149C8.39978 139.931 8.34625 140.895 8.37939 141.615C8.37939 141.705 8.37939 141.792 8.39469 141.872C8.27905 141.88 8.16588 141.918 8.06204 141.982C7.95819 142.047 7.86582 142.137 7.79051 142.248L7.70129 142.113C7.22967 141.409 6.36292 140.297 6.10035 141.149C5.84542 141.933 6.6102 142.952 7.15574 143.544L7.18889 143.579C6.82689 145.421 8.39978 146.926 9.24614 147.581L9.35576 147.665C8.1882 149.401 7.46675 152.651 7.46675 152.651L10.7375 153.387C10.7375 153.387 12.9043 151.031 12.6265 148.816H12.6494C14.8137 148.269 15.3057 145.357 14.9692 143.627L15.0075 143.608C15.4033 143.404 15.749 143.071 16.0093 142.644C16.6186 141.576 15.3491 140.381 14.7271 141.422Z" fill="black"/>
<path d="M8.2189 142.612L7.83905 144.02C7.67159 143.869 7.51075 143.707 7.35724 143.534C6.8219 142.943 6.05967 141.927 6.30185 141.139C6.55678 140.297 7.43117 141.409 7.90279 142.104C8.09398 142.393 8.2189 142.612 8.2189 142.612Z" fill="#FAFAFB"/>
<path d="M9.02696 141.804C8.83322 142.126 8.65477 142.357 8.65477 142.357C8.6215 142.112 8.59853 141.864 8.58594 141.615C8.55535 140.895 8.61398 139.934 9.18757 140.149C9.76115 140.364 9.37621 141.226 9.02696 141.804Z" fill="#FAFAFB"/>
<path d="M13.9546 142.026C13.9546 142.492 13.9087 142.862 13.9087 142.862C13.7399 142.698 13.5806 142.518 13.432 142.325C12.9986 141.759 12.5219 140.885 13.1924 140.361C13.8628 139.837 13.975 141.104 13.9546 142.026Z" fill="#FAFAFB"/>
<path d="M16.2032 142.634C15.9418 143.06 15.5964 143.393 15.2013 143.598C15.0918 143.659 14.9794 143.71 14.8648 143.753L14.4187 142.949C14.4655 142.685 14.5277 142.426 14.6048 142.174C14.6833 141.905 14.7923 141.652 14.9286 141.422C15.548 140.381 16.8201 141.576 16.2032 142.634Z" fill="#FAFAFB"/>
<path opacity="0.1" d="M7.90272 142.113C8.09391 142.393 8.21883 142.612 8.21883 142.612L7.83899 144.02C7.67153 143.869 7.51069 143.707 7.35718 143.534C7.41803 143.082 7.56693 142.655 7.79055 142.293C7.82624 142.229 7.86703 142.168 7.90272 142.113Z" fill="black"/>
<path opacity="0.1" d="M9.02696 141.804C8.83322 142.126 8.65477 142.357 8.65477 142.357C8.6215 142.111 8.59852 141.864 8.58594 141.615C8.74501 141.619 8.89918 141.685 9.02696 141.804Z" fill="black"/>
<path d="M10.9057 147.405L9.95483 147.932C9.78007 147.823 9.6099 147.703 9.44498 147.572C8.44821 146.797 6.43939 144.846 7.78541 142.547C9.13142 140.249 10.2556 144.373 10.6967 146.405C10.8343 146.99 10.9057 147.405 10.9057 147.405Z" fill="#FAFAFB"/>
<path opacity="0.1" d="M13.4321 142.325C13.569 142.144 13.7564 142.037 13.9547 142.026C13.9547 142.492 13.9088 142.862 13.9088 142.862C13.74 142.698 13.5807 142.518 13.4321 142.325Z" fill="black"/>
<path opacity="0.1" d="M15.2115 143.592C15.102 143.652 14.9896 143.704 14.875 143.746L14.4187 142.949C14.4655 142.685 14.5277 142.426 14.6048 142.174C14.9005 142.386 15.1146 142.92 15.2115 143.592Z" fill="black"/>
<path d="M12.8508 148.8L12.6902 148.835C9.50359 149.446 11.6399 147.279 11.6399 147.279C11.6399 147.279 11.7852 147.112 11.9789 146.839C12.3639 146.305 12.94 145.37 12.9986 144.502C13.1006 143.2 13.2153 141.978 14.4339 142.338C15.6524 142.698 15.8665 148.038 12.8508 148.8Z" fill="#FAFAFB"/>
<path d="M12.7922 158.803H6.70459V160.822H12.7922V158.803Z" fill="#D4DFEC"/>
<path d="M13.6921 152.242H5.73584V159.289H13.6921V152.242Z" fill="#D4DFEC"/>
<path opacity="0.1" d="M12.7922 158.803H6.70459V160.822H12.7922V158.803Z" fill="black"/>
<path opacity="0.1" d="M13.6921 152.242H5.73584V159.289H13.6921V152.242Z" fill="black"/>
<path d="M13.1924 158.803H7.10474V160.822H13.1924V158.803Z" fill="#D4DFEC"/>
<path opacity="0.1" d="M10.6993 146.389C10.8344 146.99 10.9058 147.404 10.9058 147.404L9.95492 147.932C9.78017 147.823 9.60999 147.703 9.44507 147.572C9.74923 147.015 10.1898 146.599 10.6993 146.389Z" fill="black"/>
<path opacity="0.1" d="M12.8508 148.8L12.6902 148.835C9.50359 149.446 11.6399 147.279 11.6399 147.279C11.6399 147.279 11.7852 147.112 11.9789 146.839C12.2289 147.066 12.4365 147.359 12.5871 147.698C12.7377 148.036 12.8277 148.413 12.8508 148.8Z" fill="black"/>
<path d="M7.67065 152.641C7.67065 152.641 9.45514 144.605 11.956 147.07C14.4568 149.536 10.9363 153.377 10.9363 153.377L7.67065 152.641Z" fill="#FAFAFB"/>
<path opacity="0.1" d="M8.57053 144.065C8.68176 144.065 8.77192 143.951 8.77192 143.811C8.77192 143.67 8.68176 143.557 8.57053 143.557C8.45931 143.557 8.36914 143.67 8.36914 143.811C8.36914 143.951 8.45931 144.065 8.57053 144.065Z" fill="black"/>
<path opacity="0.1" d="M8.5554 145.241C8.66662 145.241 8.75679 145.127 8.75679 144.987C8.75679 144.847 8.66662 144.733 8.5554 144.733C8.44417 144.733 8.354 144.847 8.354 144.987C8.354 145.127 8.44417 145.241 8.5554 145.241Z" fill="black"/>
<path opacity="0.1" d="M14.3574 144.296C14.4686 144.296 14.5588 144.182 14.5588 144.042C14.5588 143.902 14.4686 143.788 14.3574 143.788C14.2462 143.788 14.156 143.902 14.156 144.042C14.156 144.182 14.2462 144.296 14.3574 144.296Z" fill="black"/>
<path opacity="0.1" d="M9.68979 150.33C9.80102 150.33 9.89119 150.216 9.89119 150.076C9.89119 149.935 9.80102 149.822 9.68979 149.822C9.57857 149.822 9.4884 149.935 9.4884 150.076C9.4884 150.216 9.57857 150.33 9.68979 150.33Z" fill="black"/>
<path opacity="0.1" d="M13.942 146.251C14.0532 146.251 14.1434 146.137 14.1434 145.997C14.1434 145.856 14.0532 145.743 13.942 145.743C13.8308 145.743 13.7406 145.856 13.7406 145.997C13.7406 146.137 13.8308 146.251 13.942 146.251Z" fill="black"/>
<path opacity="0.1" d="M11.8745 148.857C11.9857 148.857 12.0759 148.744 12.0759 148.604C12.0759 148.463 11.9857 148.35 11.8745 148.35C11.7633 148.35 11.6731 148.463 11.6731 148.604C11.6731 148.744 11.7633 148.857 11.8745 148.857Z" fill="black"/>
<path opacity="0.1" d="M9.25388 144.569C9.36511 144.569 9.45527 144.455 9.45527 144.315C9.45527 144.175 9.36511 144.061 9.25388 144.061C9.14266 144.061 9.05249 144.175 9.05249 144.315C9.05249 144.455 9.14266 144.569 9.25388 144.569Z" fill="black"/>
<path opacity="0.1" d="M13.8067 145.051C13.918 145.051 14.0081 144.938 14.0081 144.797C14.0081 144.657 13.918 144.543 13.8067 144.543C13.6955 144.543 13.6053 144.657 13.6053 144.797C13.6053 144.938 13.6955 145.051 13.8067 145.051Z" fill="black"/>
<path opacity="0.1" d="M13.1236 147.006C13.2349 147.006 13.325 146.892 13.325 146.752C13.325 146.612 13.2349 146.498 13.1236 146.498C13.0124 146.498 12.9222 146.612 12.9222 146.752C12.9222 146.892 13.0124 147.006 13.1236 147.006Z" fill="black"/>
<path opacity="0.1" d="M11.023 150.14C11.1343 150.14 11.2244 150.027 11.2244 149.886C11.2244 149.746 11.1343 149.632 11.023 149.632C10.9118 149.632 10.8217 149.746 10.8217 149.886C10.8217 150.027 10.9118 150.14 11.023 150.14Z" fill="black"/>
<path opacity="0.1" d="M10.5897 148.899C10.7009 148.899 10.7911 148.785 10.7911 148.645C10.7911 148.505 10.7009 148.391 10.5897 148.391C10.4785 148.391 10.3883 148.505 10.3883 148.645C10.3883 148.785 10.4785 148.899 10.5897 148.899Z" fill="black"/>
<path opacity="0.1" d="M9.55466 146.103C9.66589 146.103 9.75605 145.989 9.75605 145.849C9.75605 145.708 9.66589 145.595 9.55466 145.595C9.44344 145.595 9.35327 145.708 9.35327 145.849C9.35327 145.989 9.44344 146.103 9.55466 146.103Z" fill="black"/>
<path opacity="0.1" d="M13.1924 158.803H7.10474V159.539H13.1924V158.803Z" fill="black"/>
<path d="M14.0922 152.242H6.13599V159.289H14.0922V152.242Z" fill="#D4DFEC"/>
<path opacity="0.1" d="M11.2907 151.275C11.402 151.275 11.4921 151.161 11.4921 151.021C11.4921 150.881 11.402 150.767 11.2907 150.767C11.1795 150.767 11.0894 150.881 11.0894 151.021C11.0894 151.161 11.1795 151.275 11.2907 151.275Z" fill="black"/>
<path opacity="0.1" d="M10.0899 151.593C10.2012 151.593 10.2913 151.479 10.2913 151.339C10.2913 151.199 10.2012 151.085 10.0899 151.085C9.97872 151.085 9.88855 151.199 9.88855 151.339C9.88855 151.479 9.97872 151.593 10.0899 151.593Z" fill="black"/>
<path d="M246.361 115.092C246.361 115.092 248.359 107.566 253.621 110.334C253.621 110.334 251.176 117.059 246.626 116.294L246.361 115.092Z" fill="#FAFAFB"/>
<path d="M245.537 107.547C245.537 107.547 247.755 99.999 253.009 103.336C253.009 103.336 249.95 110.279 245.792 108.694L245.537 107.547Z" fill="#FAFAFB"/>
<path d="M245.3 100.626C245.3 100.626 248.265 93.2326 252.517 94.2613C252.517 94.2613 249.458 102.092 245.468 102.256L245.3 100.626Z" fill="#FAFAFB"/>
<path d="M245.428 93.943C245.428 93.943 248.765 84.9872 252.158 86.3855C252.158 86.3855 249.767 93.2583 245.374 95.4249L245.428 93.943Z" fill="#FAFAFB"/>
<path d="M246.001 86.0383C246.001 86.0383 249.007 78.6222 252.484 78.9662C252.484 78.9662 250.149 86.3854 245.831 88.0763L246.001 86.0383Z" fill="#FAFAFB"/>
<path d="M246.47 78.6705C246.47 78.6705 249.988 71.3412 252.283 71.5984C252.283 71.5984 250.231 79.0884 246.542 79.9917L246.47 78.6705Z" fill="#FAFAFB"/>
<path d="M247.011 71.8267C247.011 71.8267 249.621 63.636 251.977 63.3691C251.977 63.3691 250.822 70.2612 247.161 72.5082L247.011 71.8267Z" fill="#FAFAFB"/>
<path d="M247.238 62.7805C247.238 62.7805 249.716 56.316 251.684 55.6538C251.684 55.6538 250.348 63.5649 247.462 64.5196L247.238 62.7805Z" fill="#FAFAFB"/>
<path d="M247.238 56.8082L248.354 44.8018C248.354 44.8018 250.687 54.4776 247.233 58.9652L247.238 56.8082Z" fill="#FAFAFB"/>
<path d="M246.027 44.422C246.027 44.422 244.614 35.2251 244.079 34.624C244.079 34.624 248.242 41.2171 246.883 48.4049L246.027 44.422Z" fill="#FAFAFB"/>
<path d="M246.085 120.711C244.836 121.817 243.608 122.96 242.399 124.141C242.162 124.369 241.925 124.604 241.691 124.845C240.911 124.686 240.154 124.387 239.442 123.957C241.813 119.775 244.538 120.055 246.085 120.711Z" fill="#FAFAFB"/>
<path d="M246.402 115.272C246.402 115.272 242.562 108.984 238.308 113.767C238.308 113.767 242.361 119.116 246.465 116.516L246.402 115.272Z" fill="#FAFAFB"/>
<path d="M245.815 107.409C245.815 107.409 241.963 100.979 237.698 106.1C237.698 106.1 242.223 111.629 245.836 108.604L245.815 107.409Z" fill="#FAFAFB"/>
<path d="M245.79 100.494C245.79 100.494 243.144 92.9011 238.853 93.6501C238.853 93.6501 241.578 101.687 245.553 102.111L245.79 100.494Z" fill="#FAFAFB"/>
<path d="M245.537 93.9268C245.537 93.9268 243.082 84.5306 239.577 85.4018C239.577 85.4018 241.295 92.5895 245.44 95.4087L245.537 93.9268Z" fill="#FAFAFB"/>
<path d="M246.297 85.6428C246.297 85.6428 243.518 78.0822 240.033 78.2493C240.033 78.2493 242.139 85.7779 246.407 87.6777L246.297 85.6428Z" fill="#FAFAFB"/>
<path d="M246.871 78.5898C246.871 78.5898 245.01 70.3541 242.741 69.8462C242.741 69.8462 243.156 77.7508 246.526 79.8467L246.871 78.5898Z" fill="#FAFAFB"/>
<path d="M247.143 71.6819C247.143 71.6819 244.979 63.2854 242.644 62.8193C242.644 62.8193 243.427 69.7917 246.955 72.3473L247.143 71.6819Z" fill="#FAFAFB"/>
<path d="M247.676 63.3559C247.676 63.3559 246.147 56.4542 244.296 55.3516C244.296 55.3516 244.505 63.4362 247.212 65.0178L247.676 63.3559Z" fill="#FAFAFB"/>
<path d="M246.988 56.5315L243.001 45.5376C243.001 45.5376 243.136 55.6474 247.516 58.5791L246.988 56.5315Z" fill="#FAFAFB"/>
<path d="M244.737 45.0007C244.737 45.0007 239.332 38.5716 239.215 37.6812C239.215 37.6812 241.402 45.6437 246.944 48.0482L244.737 45.0007Z" fill="#FAFAFB"/>
<path d="M244.663 42.5673C244.663 42.5673 238.754 32.8111 236.969 32.48C236.969 32.48 242.652 33.9169 244.872 42.1494L244.663 42.5673Z" fill="#FAFAFB"/>
<path d="M247.457 64.5903H247.202C247.457 51.4652 246.486 43.493 244.454 42.1365L244.574 41.8472C246.728 43.2777 247.725 51.1469 247.457 64.5903Z" fill="#444053"/>
<path d="M245.637 95.7367L245.249 95.7046C245.316 94.4863 245.402 93.2422 245.504 92.0111C246.435 81.2872 247.059 71.396 247.21 63.9189L247.465 63.6167C247.317 71.1067 246.815 81.3258 245.881 92.0657C245.785 93.284 245.698 94.5248 245.637 95.7367Z" fill="#444053"/>
<path d="M246.733 116.31C246.915 117.441 247.111 118.547 247.322 119.627L246.812 120.077C246.598 118.952 246.405 117.811 246.233 116.654C246.134 115.985 246.045 115.31 245.958 114.635C245.721 112.758 245.54 110.848 245.407 108.923C245.382 108.572 245.359 108.219 245.341 107.865C245.313 107.454 245.293 107.046 245.27 106.631V106.438C245.203 104.975 245.163 103.503 245.152 102.034C245.152 101.015 245.152 99.9927 245.165 98.9737C245.188 97.8808 245.221 96.791 245.27 95.7045C245.27 95.563 245.27 95.4184 245.293 95.2737C245.316 95.1291 245.293 94.9748 245.313 94.8205C245.313 94.7915 245.313 94.7594 245.313 94.7305L245.407 94.8108L245.491 94.8783L245.683 95.0455C245.683 95.0455 245.683 95.0712 245.683 95.0841V95.2737C245.603 96.8167 245.558 98.3297 245.547 99.8127C245.542 99.9133 245.542 100.014 245.547 100.115C245.547 100.79 245.547 101.452 245.547 102.108C245.547 102.156 245.547 102.208 245.547 102.256C245.564 103.677 245.613 105.07 245.693 106.435C245.693 106.637 245.716 106.843 245.726 107.042C245.726 107.116 245.726 107.187 245.739 107.261C245.754 107.46 245.767 107.659 245.782 107.862L245.836 108.608C245.836 108.643 245.836 108.672 245.836 108.707C245.995 110.765 246.215 112.756 246.493 114.68C246.566 115.233 246.646 115.776 246.733 116.31Z" fill="#444053"/>
<path d="M271.451 100.549L270.872 101.041C269.215 102.446 267.53 103.802 265.835 105.13C265.835 105.348 265.835 105.57 265.835 105.773C265.8 105.761 265.766 105.746 265.733 105.728L265.705 105.22L265.679 104.677V104.493C265.679 104.493 265.748 104.352 265.87 104.12C266.469 103.011 268.527 99.7903 271.451 100.549Z" fill="#FAFAFB"/>
<path d="M266.09 96.9C266.09 96.9 269.49 90.0915 274.089 94.7205C274.089 94.7205 269.954 100.719 266.151 98.0926L266.09 96.9Z" fill="#FAFAFB"/>
<path d="M266.987 90.0691C266.987 90.0691 271.096 83.5981 275.088 85.7165C275.088 85.7165 270.813 92.5861 266.885 91.7117L266.987 90.0691Z" fill="#FAFAFB"/>
<path d="M268.203 83.5597C268.203 83.5597 272.929 75.6615 276.024 77.9117C276.024 77.9117 272.56 84.0194 267.907 84.9998L268.203 83.5597Z" fill="#FAFAFB"/>
<path d="M270.054 75.9767C270.054 75.9767 274.206 69.4962 277.551 70.7466C277.551 70.7466 274.054 77.3976 269.552 77.9344L270.054 75.9767Z" fill="#FAFAFB"/>
<path d="M271.716 68.8853C271.716 68.8853 276.353 62.6297 278.555 63.4816C278.555 63.4816 275.325 70.2772 271.568 70.2033L271.716 68.8853Z" fill="#FAFAFB"/>
<path d="M273.36 62.3305C273.36 62.3305 277.248 54.9917 279.601 55.3517C279.601 55.3517 277.344 61.7808 273.398 63.0442L273.36 62.3305Z" fill="#FAFAFB"/>
<path d="M275.06 53.5355C275.06 53.5355 278.543 47.8682 280.572 47.7139C280.572 47.7139 277.977 55.1074 274.994 55.297L275.06 53.5355Z" fill="#FAFAFB"/>
<path d="M276.034 47.6914L279.093 36.2314C279.093 36.2314 279.799 46.3059 275.685 49.8002L276.034 47.6914Z" fill="#FAFAFB"/>
<path d="M276.87 35.264C276.87 35.264 276.99 25.8935 276.564 25.167C276.564 25.167 279.56 32.702 277.059 39.3818L276.87 35.264Z" fill="#FAFAFB"/>
<path d="M257.447 111.379C258.589 110.061 259.67 109.383 260.652 109.109C259.617 109.896 258.581 110.683 257.544 111.472L257.447 111.379Z" fill="#FAFAFB"/>
<path d="M265.674 104.682L265.598 105.306L265.529 105.91C265.445 105.939 265.36 105.965 265.274 105.984C265.036 106.05 264.795 106.093 264.552 106.113C260.637 106.483 257.988 101.105 257.988 101.105C261.932 98.2501 264.468 102.22 265.332 103.943C265.547 104.364 265.656 104.647 265.674 104.682Z" fill="#FAFAFB"/>
<path d="M266.383 96.839C266.383 96.839 263.66 89.5612 258.653 93.4541C258.653 93.4541 262.179 100.038 266.207 98.0124L266.383 96.839Z" fill="#FAFAFB"/>
<path d="M267.486 90.0694C267.486 90.0694 266.138 81.9526 261.814 81.5732C261.814 81.5732 263.173 90.1337 266.992 91.5899L267.486 90.0694Z" fill="#FAFAFB"/>
<path d="M268.325 83.5662C268.325 83.5662 267.453 73.7329 263.884 73.6782C263.884 73.6782 264.394 81.1553 267.996 84.9935L268.325 83.5662Z" fill="#FAFAFB"/>
<path d="M270.408 75.6614C270.408 75.6614 268.922 67.5446 265.483 66.8213C265.483 66.8213 266.314 74.7324 270.179 77.6994L270.408 75.6614Z" fill="#FAFAFB"/>
<path d="M272.121 68.9109C272.121 68.9109 271.642 60.3665 269.505 59.2832C269.505 59.2832 268.623 67.1268 271.578 70.052L272.121 68.9109Z" fill="#FAFAFB"/>
<path d="M273.513 62.2212C273.513 62.2212 272.768 53.4422 270.558 52.3813C270.558 52.3813 270.186 59.4052 273.222 62.8255L273.513 62.2212Z" fill="#FAFAFB"/>
<path d="M275.394 54.2107C275.394 54.2107 275.012 47.0583 273.393 45.5024C273.393 45.5024 272.277 53.4682 274.668 55.7184L275.394 54.2107Z" fill="#FAFAFB"/>
<path d="M275.835 47.3538L273.73 35.5596C273.73 35.5596 272.2 45.4894 276.024 49.498L275.835 47.3538Z" fill="#FAFAFB"/>
<path d="M275.511 35.4891C275.511 35.4891 271.275 27.7934 271.305 26.8901C271.305 26.8901 272.146 35.248 277.169 39.0412L275.511 35.4891Z" fill="#FAFAFB"/>
<path d="M275.838 33.0842C275.838 33.0842 271.639 22.0036 269.959 21.2192C269.959 21.2192 275.287 24.1124 276.123 32.7371L275.838 33.0842Z" fill="#FAFAFB"/>
<path d="M274.979 55.352L274.724 55.2781C277.12 42.5034 277.467 34.4444 275.698 32.5896L275.863 32.3389C277.742 34.319 277.436 42.2751 274.979 55.352Z" fill="#444053"/>
<path d="M268.111 85.3693L267.736 85.2375C267.991 84.061 268.29 82.8684 268.595 81.7015C271.257 71.447 273.482 61.9318 274.849 54.6508L275.155 54.4258C273.786 61.7164 271.629 71.5884 268.963 81.8526C268.659 83.0162 268.371 84.2024 268.111 85.3693Z" fill="#444053"/>
<path d="M268.264 84.7043C268.246 84.7782 268.231 84.849 268.216 84.9229C267.876 86.408 267.583 87.876 267.336 89.3269C267.318 89.4297 267.303 89.5326 267.283 89.6483C267.17 90.2912 267.066 90.9342 266.966 91.5771C266.966 91.6253 266.954 91.6735 266.946 91.7185C266.701 93.3194 266.501 94.8967 266.344 96.4504C266.344 96.5243 266.329 96.5982 266.319 96.6754C266.273 97.1222 266.232 97.569 266.194 98.0159V98.1155C266.016 100.166 265.909 102.169 265.86 104.124C265.86 104.445 265.86 104.795 265.842 105.127C265.842 105.345 265.842 105.567 265.842 105.769C265.807 105.758 265.773 105.743 265.74 105.724L265.712 105.217L265.61 105.297L265.541 105.901C265.457 105.93 265.373 105.956 265.286 105.975V105.535C265.286 105.004 265.317 104.471 265.338 103.927C265.411 102.031 265.544 100.112 265.728 98.1862C265.799 97.434 265.88 96.6722 265.967 95.9135C266.137 94.4005 266.346 92.8918 266.594 91.3874C266.752 90.3845 266.923 89.3944 267.104 88.4011C267.3 87.3295 267.511 86.2698 267.739 85.2219C267.767 85.0836 267.8 84.9454 267.828 84.8072C267.864 84.6497 267.9 84.4857 267.93 84.3379L267.945 84.2832L268.022 84.3861L268.093 84.4761L268.264 84.7043Z" fill="#444053"/>
</svg>
