<svg width="502" height="361" viewBox="0 0 502 361" fill="none" xmlns="http://www.w3.org/2000/svg">
<g clip-path="url(#clip0)">
<rect x="64" y="9" width="232" height="359" rx="20" fill="#AE757A"/>
<path d="M212.54 225.029H189.403C188.501 225.028 187.636 224.707 186.998 224.138C186.36 223.568 186.001 222.796 186 221.99V163.039C186.001 162.233 186.36 161.461 186.998 160.891C187.636 160.321 188.501 160.001 189.403 160H212.54C213.443 160.001 214.307 160.321 214.945 160.891C215.583 161.461 215.942 162.233 215.943 163.039V221.99C215.942 222.796 215.583 223.568 214.945 224.138C214.307 224.707 213.443 225.028 212.54 225.029ZM189.403 161.215C188.861 161.216 188.342 161.408 187.96 161.75C187.577 162.092 214.946 160.408 214.945 160.891V219.842C212.54 225.029 187.577 222.937 187.96 223.279C188.342 223.62 188.861 223.813 189.403 223.813H212.54C213.082 223.813 213.601 223.62 213.983 223.279C214.366 222.937 214.581 222.473 214.582 221.99V163.039C214.581 162.555 214.366 162.092 213.983 161.75C213.601 161.408 213.082 161.216 212.54 161.215H189.403Z" fill="#E7C7CA"/>
<path d="M258.958 219.842L233.415 225.029C232.513 225.028 231.648 224.707 231.011 224.138C230.373 223.568 258.959 220.648 258.958 219.842L258.958 160.891C258.959 160.085 230.373 161.461 231.011 160.891C231.648 160.321 232.513 160.001 233.415 160H256.553C257.455 160.001 258.32 160.321 258.958 160.891C259.596 161.461 259.955 162.233 259.956 163.039V221.99C259.955 222.796 259.596 223.568 258.958 224.138C258.32 224.707 257.996 223.279 258.958 219.842ZM233.415 161.215C232.874 161.216 232.355 161.408 231.972 161.75C231.59 162.092 231.374 162.555 231.374 163.039V221.99C231.374 222.473 231.59 222.937 231.972 223.279C232.355 223.62 232.874 223.813 233.415 223.813H256.553C257.095 223.813 257.613 223.62 257.996 223.279C258.379 222.937 258.594 222.473 258.595 221.99V163.039C258.594 162.555 258.379 162.092 257.996 161.75C257.613 161.408 259.499 160.892 258.958 160.891L233.415 161.215Z" fill="#00ADB5"/>
<path d="M159.619 226.531C158.927 226.53 158.252 226.341 157.684 225.988C157.115 225.636 156.68 225.138 156.436 224.56L133.216 169.376C132.9 168.621 132.932 167.786 133.304 167.052C133.677 166.319 134.36 165.747 135.204 165.463L156.864 158.194C157.282 158.054 157.727 157.988 158.174 158.002C158.62 158.015 159.06 158.107 159.467 158.272C159.874 158.436 160.24 158.671 160.545 158.963C160.851 159.254 161.089 159.596 161.246 159.97L184.465 215.154C184.782 215.908 184.75 216.744 184.377 217.477C184.005 218.211 183.321 218.783 182.477 219.067L160.818 226.335C160.435 226.464 160.029 226.531 159.619 226.531ZM158.062 159.215C157.816 159.215 157.572 159.255 157.342 159.332L135.683 166.6C135.177 166.771 134.767 167.114 134.543 167.554C134.32 167.994 134.301 168.496 134.49 168.949L157.71 224.132C157.804 224.356 157.947 224.562 158.13 224.737C158.313 224.911 158.533 225.052 158.777 225.151C159.022 225.25 159.285 225.305 159.553 225.313C159.821 225.321 160.088 225.282 160.339 225.198L181.998 217.929C182.505 217.759 182.915 217.416 183.139 216.975C183.362 216.535 156.714 222.689 156.524 222.236L133.304 167.052C133.158 166.705 159.564 159.751 159.223 159.54C158.882 159.329 158.477 159.215 158.062 159.215Z" fill="#FFB8B8"/>
<path d="M93.6193 142.531C92.9273 142.53 92.2521 142.341 91.6835 141.988C91.1149 141.636 90.6797 141.138 90.4359 140.56L67.2162 85.3759C66.9 84.6214 66.9317 83.7858 67.3044 83.0522C67.6771 82.3186 68.3604 81.7469 69.2044 81.4626L90.8637 74.1943C91.282 74.0539 91.7272 73.9884 92.1738 74.0017C92.6204 74.0149 93.0597 74.1066 93.4667 74.2715C93.8736 74.4364 94.2401 74.6713 94.5454 74.9627C94.8507 75.2542 95.0887 75.5965 95.2458 75.9701L118.465 131.154C118.782 131.908 118.75 132.744 118.377 133.477C118.005 134.211 117.321 134.783 116.477 135.067L94.818 142.335C94.4349 142.464 94.0288 142.531 93.6193 142.531ZM92.0618 75.2146C91.8161 75.2148 91.5724 75.2546 91.3425 75.3321L69.6833 82.6004C69.1769 82.771 68.7668 83.114 68.5432 83.5542C68.3196 83.9944 68.3005 84.4959 68.4903 84.9486L91.71 140.132C91.8043 140.356 91.9471 140.562 92.1302 140.737C92.3134 140.911 92.5333 141.052 92.7775 141.151C93.0216 141.25 93.2852 141.305 93.5532 141.313C93.8212 141.321 94.0882 141.282 94.3392 141.198L115.998 133.929C116.505 133.759 116.915 133.416 117.139 132.975C117.362 132.535 90.7139 138.689 90.5241 138.236L67.3044 83.0522C67.1581 82.7052 93.5643 75.7515 93.2232 75.5402C92.882 75.3289 92.4769 75.2153 92.0618 75.2146Z" fill="#FFB8B8"/>
<path d="M201.464 144H177.977C177.061 143.999 176.184 143.679 175.536 143.109C174.889 142.54 201.465 143.59 201.464 142.785V83.8598C201.465 83.0545 174.889 80.4601 175.536 79.8907C176.184 79.3212 177.061 79.0009 177.977 79H201.464C202.38 79.0009 203.258 79.3212 203.905 79.8907C204.553 80.4601 204.917 81.2321 204.918 82.0374V140.963C204.917 141.768 204.553 142.54 203.905 143.109C203.258 143.679 202.38 143.999 201.464 144ZM177.977 80.215C177.428 80.2155 176.901 80.4077 176.512 80.7493C176.124 81.091 175.905 81.5542 175.905 82.0374V140.963C175.905 141.446 176.124 141.909 176.512 142.251C176.901 142.592 177.428 142.785 177.977 142.785H201.464C202.013 142.785 202.54 142.592 202.929 142.251C203.317 141.909 203.536 141.446 203.536 140.963V82.0374C203.536 81.5542 204.294 80.2323 203.905 79.8907C203.516 79.549 202.013 80.2155 201.464 80.215H177.977Z" fill="#3F3D56"/>
<path d="M263.619 147.531C262.927 147.53 262.252 147.341 261.684 146.988C261.115 146.636 260.68 146.138 260.436 145.56L237.216 90.3759C236.9 89.6214 236.932 88.7858 237.304 88.0522C237.677 87.3186 238.36 86.7469 239.204 86.4626L260.864 79.1943C261.282 79.0539 261.727 78.9884 262.174 79.0017C262.62 79.0149 263.06 79.1066 263.467 79.2715C263.874 79.4364 264.24 79.6713 264.545 79.9627C264.851 80.2542 265.089 80.5965 265.246 80.9701L288.465 136.154C288.782 136.908 288.75 137.744 288.377 138.477C288.005 139.211 287.321 139.783 286.477 140.067L264.818 147.335C264.435 147.464 264.029 147.531 263.619 147.531ZM262.062 80.2146C261.816 80.2148 261.572 80.2546 261.342 80.3321L239.683 87.6004C239.177 87.771 238.767 88.114 238.543 88.5542C238.32 88.9944 265.056 80.5174 265.246 80.9701L288.465 136.154C288.56 136.378 261.947 145.562 262.13 145.737C262.313 145.911 262.533 146.052 262.778 146.151C263.022 146.25 263.285 146.305 263.553 146.313C263.821 146.321 264.088 146.282 264.339 146.198L285.998 138.929C286.505 138.759 286.915 138.416 287.139 137.975C287.362 137.535 287.381 137.034 287.191 136.581L263.972 81.3974C263.825 81.0505 263.564 80.7515 263.223 80.5402C262.882 80.3289 262.477 80.2153 262.062 80.2146Z" fill="#3F3D56"/>
<path d="M158.562 144.035H135.424C134.522 144.035 133.657 143.714 133.019 143.144C132.382 142.575 161.966 141.802 161.965 140.997V82.0456C161.966 81.2399 132.382 80.4676 133.019 79.8979C133.657 79.3282 134.522 79.0078 135.424 79.0068H158.562C159.464 79.0078 160.329 79.3282 160.967 79.8979C161.605 80.4676 161.964 81.2399 161.965 82.0456V140.997C161.964 141.802 161.605 142.575 160.967 143.144C160.329 143.714 159.464 144.035 158.562 144.035ZM135.424 80.2223C134.883 80.2229 134.364 80.4151 133.981 80.7569C133.599 81.0987 133.383 81.5622 133.383 82.0456V140.997C133.383 141.48 133.599 141.944 133.981 142.285C134.364 142.627 134.883 142.819 135.424 142.82H158.562C159.103 142.819 159.622 142.627 160.005 142.285C160.388 141.944 160.603 141.48 160.604 140.997V82.0456C160.603 81.5622 160.388 81.0987 160.005 80.7569C159.622 80.4151 159.103 80.2229 158.562 80.2223H135.424Z" fill="#E7C7CA"/>
<path d="M182.671 273.833C181.151 270.58 180.984 266.949 182.2 263.596C183.416 260.243 185.935 257.389 189.301 255.549C190.422 254.94 189.398 253.363 188.271 253.975C184.409 256.034 181.527 259.286 180.17 263.115C178.814 266.945 179.076 271.085 180.908 274.754C181.423 275.829 183.182 274.901 182.671 273.833H182.671Z" fill="#3F3D56"/>
<path d="M183.255 276.285C180.501 271.929 181.149 266.715 182.14 262.004C183.174 257.086 184.529 252.093 183.356 247.091C182.825 244.662 181.566 242.408 179.714 240.567C178.822 239.702 177.381 240.994 178.27 241.857C181.733 245.216 182.134 250.088 181.573 254.416C180.91 259.52 179.033 264.494 179.266 269.681C179.327 272.311 180.09 274.891 181.492 277.206C181.634 277.406 181.856 277.549 182.114 277.605C182.371 277.661 182.643 277.626 182.871 277.506C183.1 277.387 183.268 277.193 183.339 276.965C183.411 276.737 183.381 276.494 183.255 276.285L183.255 276.285Z" fill="#3F3D56"/>
<path d="M198.033 290.198H163.326C162.514 290.197 161.736 289.908 161.162 289.396C160.588 288.883 160.265 288.188 160.264 287.463V278.358C160.267 276.019 161.309 273.776 163.161 272.122C165.014 270.467 167.525 269.537 170.145 269.534H175.235C175.506 269.534 175.765 269.438 175.957 269.267C176.148 269.096 176.256 268.864 176.256 268.623V264.368C176.257 263.966 176.436 263.579 176.755 263.295C177.074 263.01 177.506 262.85 177.957 262.849H183.402C183.853 262.85 184.285 263.01 184.604 263.295C184.923 263.579 185.102 263.966 185.103 264.368V268.623C185.103 268.864 185.211 269.096 185.402 269.267C185.594 269.438 185.853 269.534 186.124 269.534H191.214C193.834 269.537 196.345 270.467 198.198 272.122C200.05 273.776 201.092 276.019 201.095 278.358V287.463C201.094 288.188 200.771 288.883 200.197 289.396C199.623 289.908 198.845 290.197 198.033 290.198Z" fill="#E7C7CA"/>
<path d="M181.213 235.525C181.944 238.988 181.039 242.048 179.192 242.359C177.346 242.669 175.256 240.114 174.526 236.65C173.795 233.187 176.042 227.428 176.042 227.428C176.042 227.428 180.482 232.062 181.213 235.525Z" fill="white"/>
<path d="M195.227 251.638C192.913 254.493 189.803 256.009 188.281 255.025C186.759 254.041 187.401 250.929 189.715 248.074C192.029 245.219 198.257 242.718 198.257 242.718C198.257 242.718 197.541 248.783 195.227 251.638Z" fill="white"/>
<path d="M118.701 55.0457C117.182 51.7929 117.015 48.1619 118.231 44.8087C119.447 41.4555 121.965 38.6013 125.332 36.7616C126.453 36.1529 125.428 34.5755 124.302 35.1873C120.44 37.2464 117.558 40.4985 116.201 44.3278C114.844 48.1571 115.107 52.2978 116.939 55.9659C117.454 57.0415 119.213 56.1137 118.702 55.0457H118.701Z" fill="#3F3D56"/>
<path d="M119.285 57.4979C116.532 53.1413 117.18 47.9277 118.17 43.2165C119.204 38.2985 120.559 33.305 119.387 28.3031C118.855 25.8746 117.596 23.6202 115.744 21.7798C114.852 20.9147 113.411 22.2066 114.3 23.069C117.763 26.428 118.165 31.3008 117.603 35.6283C116.941 40.7325 115.063 45.7063 115.296 50.893C115.357 53.5239 116.12 56.1037 117.522 58.4181C117.664 58.6181 117.887 58.7613 118.144 58.8174C118.401 58.8734 118.673 58.8381 118.902 58.7187C119.13 58.5993 119.298 58.4053 119.37 58.1775C119.441 57.9498 119.411 57.7061 119.285 57.4979L119.285 57.4979Z" fill="#3F3D56"/>
<path d="M134.064 71.41H99.3568C98.5449 71.4092 97.7665 71.1208 97.1924 70.6081C96.6183 70.0954 96.2953 69.4002 96.2944 68.6752V59.5709C96.2974 57.2314 97.3394 54.9885 99.1918 53.3342C101.044 51.6799 103.556 50.7494 106.175 50.7467H111.266C111.537 50.7464 111.796 50.6503 111.987 50.4794C112.179 50.3085 112.286 50.0768 112.287 49.8351V45.5809C112.287 45.1781 112.467 44.7919 112.786 44.507C113.105 44.2222 113.537 44.062 113.988 44.0615H119.432C119.883 44.062 120.316 44.2222 120.635 44.507C120.954 44.7919 121.133 45.1781 121.134 45.5809V49.8351C121.134 50.0768 121.242 50.3085 121.433 50.4794C121.624 50.6503 121.884 50.7464 122.154 50.7467H127.245C129.865 50.7494 132.376 51.6799 134.229 53.3342C136.081 54.9885 137.123 57.2314 137.126 59.5709V68.6752C137.125 69.4002 136.802 70.0954 136.228 70.6081C135.654 71.1208 134.875 71.4092 134.064 71.41Z" fill="#E7C7CA"/>
<path d="M117.243 16.7369C117.974 20.2002 117.069 23.2598 115.223 23.5705C113.376 23.8813 111.287 21.3256 110.556 17.8622C109.825 14.3989 112.072 8.63965 112.072 8.63965C112.072 8.63965 116.513 13.2735 117.243 16.7369Z" fill="white"/>
<path d="M131.258 32.8498C128.944 35.7046 125.834 37.2211 124.312 36.2371C122.789 35.253 123.431 32.1409 125.745 29.2861C128.059 26.4313 134.288 23.9297 134.288 23.9297C134.288 23.9297 133.572 29.995 131.258 32.8498Z" fill="white"/>
<path d="M215.902 174H188V183.116H215.902V174Z" fill="white"/>
<path d="M215.902 200H188V209.116H215.902V200Z" fill="white"/>
<path d="M298.017 70H68V71.2155H298.017V70Z" fill="#3F3D56"/>
<path d="M298.698 143.114H68.6807V144.33H298.698V143.114Z" fill="#3F3D56"/>
<path d="M297.017 223H67V224.215H297.017V223Z" fill="#3F3D56"/>
<path d="M302.017 296H72V297.215H302.017V296Z" fill="#3F3D56"/>
<path d="M259.902 173H232V182.116H259.902V173Z" fill="white"/>
<path d="M258.902 197H231V206.116H258.902V197Z" fill="white"/>
<path d="M160.604 91.7695H132.702V100.886H160.604V91.7695Z" fill="white"/>
<path d="M160.604 121.549H132.702V130.665H160.604V121.549Z" fill="white"/>
<path d="M203.477 91.7695H175.576V100.886H203.477V91.7695Z" fill="white"/>
<path d="M203.477 121.549H175.576V130.665H203.477V121.549Z" fill="white"/>
<path d="M162.775 167.862L136.656 176.627L140.247 185.161L166.365 176.396L162.775 167.862Z" fill="white"/>
<path d="M100.064 90.0003L73.9456 98.7651L77.5361 107.299L103.654 98.5341L100.064 90.0003Z" fill="white"/>
<path d="M171.504 187.739L145.386 196.503L148.976 205.037L175.095 196.272L171.504 187.739Z" fill="white"/>
<path d="M110.849 115L84.7305 123.765L88.3211 132.298L114.44 123.533L110.849 115Z" fill="white"/>
<path d="M268.118 89.9998L242 98.7646L245.591 107.298L271.709 98.5334L268.118 89.9998Z" fill="white"/>
<path d="M282.118 120L256 128.765L259.591 137.298L285.709 128.533L282.118 120Z" fill="white"/>
<path d="M426.689 151.936C438.34 151.936 447.785 143.501 447.785 133.096C447.785 122.691 438.34 114.256 426.689 114.256C415.038 114.256 405.593 122.691 405.593 133.096C405.593 143.501 415.038 151.936 426.689 151.936Z" fill="#2F2E41"/>
<path d="M332.967 219.074C333.964 219.419 335.033 219.564 336.1 219.5C337.166 219.436 338.204 219.164 339.139 218.703C340.075 218.242 340.887 217.603 341.516 216.832C342.146 216.061 342.578 215.176 342.783 214.239L400.789 181.555L390.231 170.94L336.508 206.427C334.723 206.223 332.917 206.612 331.431 207.518C329.946 208.425 328.884 209.787 328.448 211.346C328.011 212.905 328.23 214.553 329.063 215.977C329.896 217.401 331.285 218.503 332.967 219.074Z" fill="#FFB8B8"/>
<path d="M388.68 190.245C388.166 190.245 387.661 190.131 387.21 189.912C386.759 189.693 386.376 189.376 386.098 188.991L379.381 179.668C378.957 179.08 378.802 178.369 378.947 177.681C379.093 176.994 379.527 176.382 380.162 175.972L402.64 161.463C403.731 160.759 404.969 160.258 406.28 159.988C407.592 159.719 408.95 159.687 410.276 159.895C411.601 160.103 412.867 160.546 413.997 161.198C415.128 161.85 416.1 162.698 416.857 163.692C417.614 164.686 418.14 165.805 418.404 166.984C418.668 168.162 418.665 169.376 418.395 170.553C418.124 171.731 417.592 172.848 416.83 173.838C416.068 174.829 415.091 175.673 413.957 176.32L390.323 189.815C389.833 190.096 389.262 190.245 388.68 190.245Z" fill="#FFD037"/>
<path d="M398.715 353.008L390.373 353.008L386.403 324.269L398.717 324.269L398.715 353.008Z" fill="#FFB8B8"/>
<path d="M384.413 350.879H400.503V359.926H374.282C374.282 358.738 374.544 357.562 375.053 356.464C375.563 355.366 376.309 354.369 377.249 353.529C378.19 352.689 379.307 352.022 380.536 351.568C381.765 351.113 383.083 350.879 384.413 350.879Z" fill="#2F2E41"/>
<path d="M437.665 347.437L429.632 349.451L417.111 322.741L428.967 319.768L437.665 347.437Z" fill="#FFB8B8"/>
<path d="M423.25 348.84L438.742 344.956L441.48 353.667L416.235 359.996C415.875 358.852 415.771 357.656 415.929 356.476C416.087 355.297 416.504 354.156 417.155 353.12C417.807 352.084 418.68 351.173 419.726 350.439C420.772 349.704 421.97 349.161 423.25 348.84Z" fill="#2F2E41"/>
<path d="M460.144 303.333L427.753 269.195L447.408 247.898C447.696 247.585 448.058 247.334 448.469 247.162C448.879 246.99 449.327 246.901 449.78 246.902C450.233 246.904 450.68 246.995 451.089 247.169C451.498 247.343 451.859 247.596 452.145 247.91L481.885 280.506L460.144 303.333Z" fill="white"/>
<path d="M429.061 269.45C429.538 268.682 430.13 267.976 430.821 267.351L449.581 250.366C450.316 249.697 451.306 249.3 452.354 249.254C454.498 249.163 458.014 249.357 458.993 251.457L433.666 269.964L429.061 269.45Z" fill="#F2F2F2"/>
<path d="M461.27 310.556C459.825 310.518 458.421 310.121 457.215 309.41L457.126 309.327L427.46 268.81L432.383 268.385L458.765 250.008C459.098 249.776 459.481 249.608 459.89 249.514C460.299 249.421 460.726 249.404 461.143 249.465C461.56 249.526 461.958 249.663 462.312 249.868C462.667 250.073 462.97 250.342 463.203 250.656L492.041 289.636C492.484 290.238 492.643 290.971 492.486 291.677C492.328 292.383 491.866 293.006 491.199 293.41L463.293 310.215C462.649 310.443 461.962 310.559 461.27 310.556Z" fill="white"/>
<path d="M450.777 282.84C450.498 282.841 450.223 282.78 449.977 282.663C449.73 282.546 449.52 282.377 449.364 282.17L445.956 277.65C445.704 277.315 445.612 276.905 445.698 276.51C445.785 276.114 446.043 275.766 446.417 275.54L463.9 265.029C464.275 264.805 464.734 264.722 465.176 264.799C465.619 264.876 466.009 265.107 466.262 265.441L469.67 269.961C469.921 270.296 470.014 270.706 469.927 271.101C469.841 271.497 469.582 271.845 469.209 272.071L451.725 282.582C451.445 282.751 451.115 282.841 450.777 282.84Z" fill="#3F3D56"/>
<path d="M385.084 348.662C384.153 348.659 383.257 348.345 382.572 347.782C381.888 347.22 381.463 346.449 381.382 345.621C379.898 330.558 372.449 254.641 371.632 239.31C370.724 222.275 386.598 195.327 386.759 195.057L386.869 194.872L394.715 195.747V196.562L402.183 197.346L416.636 198.596L420.774 243.762L422.604 274.394L439.793 336.957C439.988 337.65 439.87 338.384 439.464 338.999C439.058 339.615 438.398 340.063 437.625 340.248L422.665 343.891C421.887 344.078 421.058 343.984 420.357 343.631C419.656 343.277 419.137 342.692 418.914 342.001L404.828 297.814C404.76 297.6 404.607 297.416 404.397 297.296C404.188 297.176 403.936 297.129 403.69 297.163C403.444 297.197 403.22 297.311 403.061 297.482C402.902 297.653 402.819 297.87 402.826 298.092L404.316 341.178C404.324 341.621 404.23 342.06 404.041 342.469C403.851 342.877 403.571 343.247 403.216 343.556C399.786 346.432 390.726 347.967 385.63 348.627C385.449 348.65 385.266 348.662 385.084 348.662Z" fill="#2F2E41"/>
<path d="M430.036 158.86C427.663 156.65 412.021 159.687 408.548 162.943L384.773 197.649L424.093 204.182L432.78 160.084L430.036 158.86Z" fill="white"/>
<path d="M419.73 247.036C418.883 247.036 418.042 246.911 417.241 246.665C414.957 245.966 412.157 245.233 408.92 244.49C394.742 241.234 389.737 230.81 394.042 213.507L394.151 213.068C398.194 196.655 405.815 181.112 416.579 167.327L418.246 165.188C420.259 162.608 423.077 160.612 426.349 159.45C429.621 158.288 433.204 158.01 436.651 158.652C443.031 159.827 446.456 161.529 446.832 163.713C447.57 167.997 433.321 219.789 427.16 241.858C426.747 243.338 425.791 244.652 424.445 245.591C423.098 246.529 421.439 247.038 419.73 247.036L419.73 247.036Z" fill="#FFD037"/>
<path d="M378.471 232C377.951 232 377.434 231.949 376.939 231.848L370.495 230.535C369.828 230.4 369.214 230.177 368.691 229.881C368.168 229.585 367.747 229.223 367.456 228.818C367.165 228.413 367.01 227.974 367 227.529C366.991 227.083 367.128 226.642 367.402 226.232L401.597 175.125C408.149 165.376 419.605 157.29 434.163 152.139H434.163C434.374 152.065 434.607 152.019 434.847 152.005C435.087 151.991 435.329 152.008 435.558 152.056C435.768 152.098 435.962 152.169 436.127 152.262C436.292 152.355 436.425 152.47 436.517 152.597C440.538 158.231 418.649 184.891 401.061 206.312C392.054 217.281 384.276 226.755 383.391 229.456C383.155 230.175 382.537 230.821 381.641 231.284C380.744 231.748 379.625 232 378.471 232Z" fill="#FFD037"/>
<path d="M446.329 252.033C447.185 251.463 447.891 250.731 448.397 249.89C448.902 249.049 449.195 248.119 449.255 247.166C449.315 246.213 449.14 245.26 448.743 244.374C448.345 243.488 447.735 242.691 446.956 242.038L446.762 180.787L431.083 183.136L436.211 242.636C435.07 243.878 434.479 245.451 434.55 247.057C434.621 248.663 435.349 250.19 436.596 251.348C437.843 252.506 439.522 253.216 441.316 253.342C443.11 253.469 444.894 253.003 446.329 252.033Z" fill="#FFB8B8"/>
<path d="M433.562 195.983C432.785 195.983 432.037 195.719 431.47 195.245C430.903 194.77 430.559 194.121 430.508 193.429L428.684 168.714C428.511 166.336 429.402 163.994 431.161 162.202C432.919 160.41 435.402 159.314 438.064 159.154C439.431 159.074 440.802 159.243 442.093 159.653C443.384 160.062 444.568 160.702 445.572 161.535C446.576 162.367 447.379 163.373 447.933 164.492C448.486 165.611 448.778 166.82 448.79 168.043L449.038 193.094C449.044 193.818 448.729 194.514 448.162 195.031C447.595 195.548 446.822 195.843 446.012 195.853L433.599 195.983L433.562 195.983Z" fill="#FFD037"/>
<path d="M422.343 152.894C431.574 152.894 439.058 146.211 439.058 137.967C439.058 129.723 431.574 123.041 422.343 123.041C413.112 123.041 405.629 129.723 405.629 137.967C405.629 146.211 413.112 152.894 422.343 152.894Z" fill="#FFB8B8"/>
<path d="M436.241 148.412C437.487 144.87 438.632 140.692 436.165 137.702C434.387 135.548 431.196 134.714 428.202 134.595C425.209 134.476 422.207 134.929 419.22 134.717C416.233 134.505 413.076 133.452 411.559 131.144C409.591 128.152 411.258 124.031 414.421 122.016C417.584 120.001 421.763 119.72 425.612 120.189C430.484 120.706 435.063 122.535 438.741 125.434C442.319 128.383 444.652 132.635 444.548 136.982C444.444 141.33 441.714 145.66 437.362 147.612" fill="#2F2E41"/>
<path d="M432.073 115.796C428.072 114.695 426.226 109.971 428.016 106.591C429.805 103.21 434.379 101.44 438.533 101.911C442.686 102.382 446.346 104.761 448.87 107.744C451.395 110.727 452.917 114.283 454.186 117.846C455.456 121.409 456.511 125.05 458.245 128.453C460.995 133.683 465.239 138.173 470.549 141.474C475.859 144.775 482.048 146.77 488.494 147.258C491.304 147.44 494.22 147.31 496.781 146.261C499.341 145.212 501.489 143.097 501.776 140.595C503.233 149.485 497.442 158.934 488.27 162.628C479.098 166.323 467.334 163.946 460.836 157.086C454.486 150.382 453.503 140.916 453.655 132.137C453.697 129.729 453.797 127.276 453.052 124.962C452.307 122.647 450.544 120.447 447.977 119.712C445.905 119.119 443.661 119.546 441.538 119.967C439.414 120.387 437.158 120.792 435.102 120.158C433.046 119.524 431.39 117.436 432.218 115.64" fill="#2F2E41"/>
<path d="M498.2 361H318.542C318.361 361 318.188 360.936 318.061 360.822C317.933 360.708 317.861 360.554 317.861 360.392C317.861 360.231 317.933 360.077 318.061 359.963C318.188 359.849 318.361 359.785 318.542 359.785H498.2C498.381 359.785 498.554 359.849 498.682 359.963C498.809 360.077 498.881 360.231 498.881 360.392C498.881 360.554 498.809 360.708 498.682 360.822C498.554 360.936 498.381 361 498.2 361Z" fill="#CCCCCC"/>
</g>
<defs>
<clipPath id="clip0">
<rect width="502" height="361" fill="white"/>
</clipPath>
</defs>
</svg>
