<svg width="748" height="618" viewBox="0 0 748 618" fill="none" xmlns="http://www.w3.org/2000/svg">
<g clip-path="url(#clip0)">
<path d="M318.443 524.779L68.135 523.509L43.2636 462.884L131.209 456.25L115.881 389.78L289.828 366.349L123.26 306.173L137.974 302.54L405.811 347.95L391.061 451.682L369.978 508.69L318.443 524.779Z" fill="#FAFFFF"/>
<path d="M71.9743 498.118C71.9743 498.118 87.3315 495.564 96.5459 506.843C96.5459 506.843 89.7887 512.376 75.2505 504.715L71.9743 498.118Z" fill="#FAFFFF"/>
<path d="M70.3654 497.867C70.3654 497.867 60.566 510.4 65.3926 524.353C65.3926 524.353 73.3783 521.032 74.2486 504.114L70.3654 497.867Z" fill="#FAFFFF"/>
<path d="M61.5606 477.264C61.5606 477.264 67.7035 465.552 92.2751 481.945C92.2751 481.945 88.9989 489.819 78.1464 489.18C67.294 488.542 64.4273 483.435 61.5606 477.264Z" fill="#FAFFFF"/>
<path d="M59.9737 476.42C59.9737 476.42 47.2272 474.9 45.9913 505.224C45.9913 505.224 54.0721 506.964 59.8128 497.373C65.5535 487.782 63.1987 482.401 59.9737 476.42Z" fill="#FAFFFF"/>
<path d="M52.551 452.229C52.551 452.229 59.7177 431.588 85.7227 446.271C85.7227 446.271 79.7845 465.21 55.2129 459.252L52.551 452.229Z" fill="#FAFFFF"/>
<path d="M44.5653 421.373C44.5653 421.373 58.0796 400.519 82.0369 419.853C82.0369 419.853 73.6416 439.431 46.6129 428.791L44.5653 421.373Z" fill="#FAFFFF"/>
<path d="M41.6986 392.007C41.6986 392.007 57.4653 372.847 81.1886 392.007C81.1886 392.007 66.2409 408.818 41.6986 396.901V392.007Z" fill="#FAFFFF"/>
<path d="M39.2414 363.484C39.2414 363.484 55.2129 343.481 77.9416 362.42C77.9416 362.42 59.9225 380.082 39.2414 368.166V363.484Z" fill="#FAFFFF"/>
<path d="M40.6747 338.161C40.6747 338.161 57.4946 312.412 78.7607 329.862C78.7607 329.862 60.7415 351.993 40.6747 343.055V338.161Z" fill="#FAFFFF"/>
<path d="M44.5653 308.582C44.5653 308.582 62.3797 283.046 83.0607 302.624C83.0607 302.624 61.9701 324.755 44.5653 313.264V308.582Z" fill="#FAFFFF"/>
<path d="M50.5034 282.142C50.5034 282.142 71.594 258.141 89.9934 267.702C89.9934 267.702 68.018 293.192 49.582 288.511L50.5034 282.142Z" fill="#FAFFFF"/>
<path d="M57.8748 257.077C57.8748 257.077 82.2124 227.68 96.3703 237.499C96.3703 237.499 78.4389 260.299 56.149 262.579L57.8748 257.077Z" fill="#FAFFFF"/>
<path d="M68.5152 228.007C68.5152 228.007 89.8179 204.006 105.38 209.965C105.38 209.965 87.156 234.862 65.6558 235.501L68.5152 228.007Z" fill="#FAFFFF"/>
<path d="M78.1464 200.814C78.1464 200.814 101.694 177.832 111.932 181.875C111.932 181.875 94.937 207.411 77.1226 205.921L78.1464 200.814Z" fill="#FAFFFF"/>
<path d="M87.5655 175.704C87.5655 175.704 107.837 148.245 118.902 150.373C118.902 150.373 106.609 174.853 87.5655 178.493V175.704Z" fill="#FAFFFF"/>
<path d="M97.7891 141.846C97.7891 141.846 115.706 120.802 125.388 120.847C125.388 120.847 111.245 148.967 97.0505 148.709L97.7891 141.846Z" fill="#FAFFFF"/>
<path d="M103.844 119.304L121.154 75.4678C121.154 75.4678 122.017 115.094 101.643 127.436L103.844 119.304Z" fill="#FAFFFF"/>
<path d="M110.872 70.9611C110.872 70.9611 113.739 34.352 111.896 31.3728C111.896 31.3728 124.269 61.8107 110.755 87.1339L110.872 70.9611Z" fill="#FAFFFF"/>
<path d="M51.8782 451.743C51.8782 451.743 33.9322 440.183 22.3119 468.463C22.3119 468.463 38.2834 479.483 53.9917 458.955L51.8782 451.743Z" fill="#FAFFFF"/>
<path d="M43.9875 420.195C43.9875 420.195 21.9755 409.76 11.2985 439.286C11.2985 439.286 28.3012 451.446 45.9913 427.658L43.9875 420.195Z" fill="#FAFFFF"/>
<path d="M40.6747 393.763C40.6747 393.763 24.908 374.603 1.18469 393.763C1.18469 393.763 16.1324 410.574 40.6747 398.657V393.763Z" fill="#FAFFFF"/>
<path d="M38.7002 363.484C38.7002 363.484 22.7287 343.481 0 362.42C0 362.42 18.0192 380.082 38.7002 368.166V363.484Z" fill="#FAFFFF"/>
<path d="M40.6748 338.891C40.6748 338.891 29.4713 310.049 5.11909 322.452C5.11909 322.452 18.2824 348.026 39.6802 343.679L40.6748 338.891Z" fill="#FAFFFF"/>
<path d="M45.9767 308.438C45.9767 308.438 34.839 279.094 10.1431 292.698C10.1431 292.698 25.2663 319.594 44.8797 312.967L45.9767 308.438Z" fill="#FAFFFF"/>
<path d="M52.8801 282.286C52.8801 282.286 48.4923 250.115 28.016 247.235C28.016 247.235 32.3599 281.161 50.1231 288.085L52.8801 282.286Z" fill="#FAFFFF"/>
<path d="M58.3941 257.138C58.3941 257.138 56.6829 218.378 39.7533 217.025C39.7533 217.025 40.3238 246.445 56.4854 262.625L58.3941 257.138Z" fill="#FAFFFF"/>
<path d="M70.2704 226.92C70.2704 226.92 65.2244 194.689 49.0627 190.752C49.0627 190.752 51.0665 221.965 68.6688 234.832L70.2704 226.92Z" fill="#FAFFFF"/>
<path d="M80.0624 201.08C80.0624 201.08 79.8942 167.504 70.0217 162.571C70.0217 162.571 63.9007 192.971 77.203 205.367L80.0624 201.08Z" fill="#FAFFFF"/>
<path d="M88.3187 175.324C88.3187 175.324 86.9366 140.752 76.713 135.88C76.713 135.88 73.2174 163.24 86.7903 177.589L88.3187 175.324Z" fill="#FAFFFF"/>
<path d="M99.215 144.605C99.215 144.605 99.1565 116.485 91.8582 109.888C91.8582 109.888 84.6037 140.691 95.405 150.259L99.215 144.605Z" fill="#FAFFFF"/>
<path d="M102.989 117.921L95.8877 71.1206C95.8877 71.1206 86.2419 109.47 103.325 126.372L102.989 117.921Z" fill="#FAFFFF"/>
<path d="M104.371 71.4018C104.371 71.4018 86.1468 39.9379 86.5198 36.4419C86.5198 36.4419 88.4577 69.4182 111.384 85.8417L104.371 71.4018Z" fill="#FAFFFF"/>
<path d="M106.506 62.107C106.506 62.107 89.306 17.4191 81.525 13.8015C81.525 13.8015 106.097 26.7823 107.939 60.8302L106.506 62.107Z" fill="#FAFFFF"/>
<path d="M96.9627 148.975L95.7853 148.602C110.302 99.4078 113.921 68.0427 105.987 60.1767L106.828 59.2495C115.245 67.5487 111.83 98.5718 96.9627 148.975Z" fill="#444053"/>
<path d="M56.99 264.16L55.2495 263.514C56.7926 259.007 58.4526 254.432 60.1931 249.925C75.3456 210.679 88.2457 174.169 96.5166 146.14L98.0304 145.38C89.7448 173.462 77.0714 211.371 61.9043 250.67C60.1712 255.093 58.5184 259.646 56.99 264.16Z" fill="#444053"/>
<path d="M93.6134 534.932C93.3793 534.666 69.8535 507.131 53.4505 460.126C43.8393 432.606 38.4904 403.675 37.6033 374.413C36.4771 337.834 43.8632 296.992 56.5147 259.889L57.8895 261.561C29.4859 344.834 40.7698 416.19 55.7395 459.16C71.967 505.741 95.2295 532.971 95.4562 533.245L93.6134 534.932Z" fill="#444053"/>
<path d="M461.251 476.473C461.251 476.473 444.673 497.502 457.836 529.293L325.471 588.953L312.768 591.719L306.918 565.119L310.831 531.55V513.204L461.251 476.473Z" fill="#D5D6DB"/>
<path d="M43.2636 462.884L226.468 428.175L469.222 468.364L318.443 524.779L43.2636 462.884Z" fill="#FAFFFF"/>
<path d="M43.2636 462.884L226.468 428.175L469.222 468.364L318.443 524.779L43.2636 462.884Z" fill="#FAFFFF"/>
<path d="M43.2635 462.877C43.2635 462.877 26.1292 496.613 45.8743 527.773L317.551 588.953C317.551 588.953 300.687 562.079 318.421 524.779L43.2635 462.877Z" fill="#FAFFFF"/>
<path opacity="0.1" d="M43.2635 462.877C43.2635 462.877 26.1292 496.613 45.8743 527.773L317.551 588.953C317.551 588.953 300.687 562.079 318.421 524.779L43.2635 462.877Z" fill="black"/>
<path opacity="0.1" d="M51.359 474.573C51.359 474.573 41.5669 499.258 51.359 515.233V474.573Z" fill="black"/>
<path d="M317.551 588.953L469.222 521.693C469.222 521.693 477.705 523.593 472.22 530.053C466.736 536.513 320.476 595.413 320.476 595.413L45.8743 527.773L317.551 588.953Z" fill="#FAFFFF"/>
<path opacity="0.1" d="M317.551 588.953L469.222 521.693C469.222 521.693 477.705 523.593 472.22 530.053C466.736 536.513 320.476 595.413 320.476 595.413L45.8743 527.773L317.551 588.953Z" fill="black"/>
<path opacity="0.1" d="M305.119 531.573C305.119 531.573 290.493 549.813 305.119 577.173V531.573Z" fill="black"/>
<path opacity="0.1" d="M375.929 531.265L310.325 554.011L310.556 554.732L376.16 531.986L375.929 531.265Z" fill="black"/>
<path opacity="0.1" d="M389.069 529.001L310.304 560.128L310.564 560.838L389.329 529.711L389.069 529.001Z" fill="black"/>
<path opacity="0.1" d="M401.136 528.892L310.743 567.343L311.02 568.047L401.413 529.595L401.136 528.892Z" fill="black"/>
<path opacity="0.1" d="M414.259 525.599L311.798 573.7L312.099 574.393L414.56 526.292L414.259 525.599Z" fill="black"/>
<path opacity="0.1" d="M425.284 525.615L312.61 576.798L312.902 577.494L425.577 526.311L425.284 525.615Z" fill="black"/>
<path opacity="0.1" d="M449.399 521.359L314.309 581.996L314.599 582.693L449.689 522.057L449.399 521.359Z" fill="black"/>
<path opacity="0.3" d="M111.325 466.593L240.034 438.473L318.443 454.053L212.976 489.393L111.325 466.593Z" fill="white"/>
<path d="M469.222 468.364C469.222 468.364 475.877 471.153 471.972 475.462C468.067 479.772 318.421 524.779 318.421 524.779L469.222 468.364Z" fill="#FAFFFF"/>
<path d="M533.862 403.376C533.862 403.376 517.29 424.398 530.454 456.196L398.089 515.856L385.386 518.638L379.536 492.038L383.507 458.476V440.107L533.862 403.376Z" fill="#D5D6DB"/>
<path d="M115.881 389.78L299.079 355.079L541.84 395.267L391.061 451.682L115.881 389.78Z" fill="#364F6B"/>
<path d="M115.852 389.78C115.852 389.78 98.7105 423.517 118.456 454.677L390.132 515.856C390.132 515.856 373.276 488.96 391.032 451.675L115.852 389.78Z" fill="#364F6B"/>
<path opacity="0.1" d="M118.897 389.78C118.897 389.78 101.755 423.517 121.5 454.677L393.177 515.856C393.177 515.856 376.32 488.96 394.076 451.675L308.164 432.348L118.897 389.78Z" fill="#364F6B"/>
<path opacity="0.1" d="M123.969 401.477C123.969 401.477 114.185 426.154 123.969 442.136V401.477Z" fill="black"/>
<path d="M390.162 515.856L541.84 448.596C541.84 448.596 550.316 450.496 544.831 456.956C539.346 463.416 393.087 522.316 393.087 522.316L118.485 454.676L390.162 515.856Z" fill="#364F6B"/>
<path opacity="0.1" d="M390.162 515.856L541.84 448.596C541.84 448.596 550.316 450.496 544.831 456.956C539.346 463.416 393.087 522.316 393.087 522.316L118.485 454.676L390.162 515.856Z" fill="#00ADB5"/>
<path opacity="0.1" d="M377.73 458.476C377.73 458.476 363.104 476.716 377.73 504.076V458.476Z" fill="black"/>
<path opacity="0.1" d="M448.545 458.176L382.941 480.922L383.172 481.643L448.776 458.897L448.545 458.176Z" fill="black"/>
<path opacity="0.1" d="M461.694 455.909L382.929 487.036L383.189 487.746L461.954 456.619L461.694 455.909Z" fill="black"/>
<path opacity="0.1" d="M473.751 455.79L383.358 494.241L383.635 494.944L474.028 456.493L473.751 455.79Z" fill="black"/>
<path opacity="0.1" d="M486.882 452.498L384.422 500.599L384.723 501.292L487.183 453.191L486.882 452.498Z" fill="black"/>
<path opacity="0.1" d="M497.897 452.504L385.222 503.687L385.515 504.383L498.189 453.201L497.897 452.504Z" fill="black"/>
<path opacity="0.1" d="M522.017 448.248L386.927 508.885L387.217 509.582L522.307 448.946L522.017 448.248Z" fill="black"/>
<path opacity="0.45" d="M183.943 393.497L312.651 365.377L391.061 380.957L285.593 416.297L183.943 393.497Z" fill="white"/>
<path d="M541.84 395.267C541.84 395.267 548.487 398.057 544.59 402.358C540.692 406.66 391.061 451.674 391.061 451.674L541.84 395.267Z" fill="#364F6B"/>
<path d="M540.736 319.754C540.736 319.754 524.157 357.503 537.321 389.294L404.956 432.234L392.283 435.023L386.432 408.423L390.345 374.854V356.485L540.736 319.754Z" fill="#D5D6DB"/>
<path d="M122.777 306.165L305.982 271.456L548.743 311.645L397.957 368.059L122.777 306.165Z" fill="#FAFFFF"/>
<path d="M122.777 306.158C122.777 306.158 105.614 339.894 125.359 371.054L397.036 432.234C397.036 432.234 380.172 405.337 397.928 368.06L122.777 306.158Z" fill="#FAFFFF"/>
<path opacity="0.1" d="M122.777 306.158C122.777 306.158 105.614 339.894 125.359 371.054L397.036 432.234C397.036 432.234 380.172 405.337 397.928 368.06L122.777 306.158Z" fill="black"/>
<path opacity="0.1" d="M130.873 317.854C130.873 317.854 121.081 342.539 130.873 358.514V317.854Z" fill="black"/>
<path d="M397.065 432.234L548.736 381.694C548.736 381.694 557.219 383.594 551.735 390.054C546.25 396.514 399.99 438.694 399.99 438.694L125.388 371.054L397.065 432.234Z" fill="#FAFFFF"/>
<path opacity="0.1" d="M397.065 432.234L548.736 381.694C548.736 381.694 557.219 383.594 551.735 390.054C546.25 396.514 399.99 438.694 399.99 438.694L125.388 371.054L397.065 432.234Z" fill="#364F6B"/>
<path opacity="0.1" d="M384.633 374.854C384.633 374.854 370.007 393.094 384.633 420.454V374.854Z" fill="black"/>
<path opacity="0.1" d="M455.45 374.552L389.846 397.298L390.078 398.019L455.682 375.273L455.45 374.552Z" fill="black"/>
<path opacity="0.1" d="M468.595 372.289L389.83 403.416L390.09 404.126L468.855 372.999L468.595 372.289Z" fill="black"/>
<path opacity="0.1" d="M480.645 372.173L390.252 410.624L390.529 411.327L480.922 372.876L480.645 372.173Z" fill="black"/>
<path opacity="0.1" d="M493.786 368.875L391.326 416.976L391.627 417.668L494.087 369.567L493.786 368.875Z" fill="black"/>
<path opacity="0.1" d="M504.804 368.888L392.13 420.071L392.423 420.767L505.097 369.585L504.804 368.888Z" fill="black"/>
<path opacity="0.1" d="M528.922 364.637L393.832 425.274L394.122 425.971L529.212 365.335L528.922 364.637Z" fill="black"/>
<path opacity="0.3" d="M190.839 309.874L319.548 281.754L397.957 297.334L292.49 332.674L190.839 309.874Z" fill="white"/>
<path d="M548.736 311.645C548.736 311.645 555.391 314.434 551.486 318.743C547.581 323.052 397.957 368.059 397.957 368.059L548.736 311.645Z" fill="#FAFFFF"/>
<path d="M227.009 80.9398C227.009 80.9398 199.22 79.1994 202.467 99.4609C202.467 99.4609 201.816 103.041 204.939 104.667C204.939 104.667 204.99 103.147 207.791 103.671C208.79 103.85 209.807 103.901 210.818 103.823C212.182 103.726 213.478 103.172 214.511 102.243C214.511 102.243 222.329 98.8833 225.371 85.5985C225.371 85.5985 227.624 82.7029 227.565 81.9581L222.856 84.0405C222.856 84.0405 224.457 87.5593 223.199 90.4853C223.199 90.4853 223.046 84.1697 222.139 84.3141C221.956 84.3141 219.704 85.5377 219.704 85.5377C219.704 85.5377 222.461 91.6709 220.376 96.1245C220.376 96.1245 221.166 88.5701 218.841 85.9785L215.535 87.9849C215.535 87.9849 218.76 94.3157 216.574 99.4837C216.574 99.4837 217.137 91.5569 214.84 88.4713L211.842 90.9033C211.842 90.9033 214.877 97.1429 213.027 101.429C213.027 101.429 212.786 92.2029 211.199 91.5037C211.199 91.5037 208.573 93.9053 208.178 94.8933C208.178 94.8933 210.255 99.4533 208.961 101.817C208.961 101.817 208.178 95.6685 207.498 95.6381C207.498 95.6381 204.888 99.7117 204.617 102.478C204.743 99.8991 205.517 97.3994 206.862 95.2277C205.357 95.5236 203.969 96.2713 202.869 97.3785C202.869 97.3785 203.271 94.4981 207.513 94.2473C207.513 94.2473 209.67 91.1541 210.248 90.9717C210.248 90.9717 206.028 90.5993 203.476 91.7773C203.476 91.7773 205.729 89.0641 211.016 90.2573L213.941 87.7493C213.941 87.7493 208.398 86.9893 206.043 87.8329C206.043 87.8329 208.756 85.4313 214.738 87.1793L217.963 85.1805C217.963 85.1805 213.232 84.1241 210.416 84.5041C210.416 84.5041 213.385 82.8397 218.907 84.6409L221.203 83.5694C221.203 83.5694 217.744 82.8626 216.727 82.7486C215.711 82.6346 215.66 82.3458 215.66 82.3458C217.855 81.971 220.107 82.234 222.168 83.1058C222.168 83.1058 227.104 81.259 227.009 80.9398Z" fill="#FAFFFF"/>
<path opacity="0.1" d="M617.961 164.221C617.961 164.221 590.171 162.48 593.418 182.742C593.418 182.742 592.768 186.321 595.89 187.948C595.89 187.948 595.941 186.428 598.742 186.952C599.742 187.126 600.758 187.177 601.77 187.104C603.121 187.001 604.403 186.446 605.426 185.523C605.426 185.523 613.251 182.164 616.286 168.879C616.286 168.879 618.538 165.984 618.48 165.239L613.785 167.321C613.785 167.321 615.387 170.84 614.129 173.766C614.129 173.766 613.975 167.451 613.076 167.595C612.893 167.595 610.633 168.818 610.633 168.818C610.633 168.818 613.39 174.952 611.313 179.405C611.313 179.405 612.103 171.851 609.77 169.259L606.465 171.266C606.465 171.266 609.69 177.596 607.503 182.764C607.503 182.764 608.066 174.838 605.77 171.752L602.779 174.184C602.779 174.184 605.807 180.424 603.956 184.71C603.956 184.71 603.715 175.484 602.128 174.784C602.128 174.784 599.51 177.186 599.108 178.174C599.108 178.174 601.185 182.734 599.898 185.098C599.898 185.098 599.108 178.949 598.435 178.919C598.435 178.919 595.824 182.992 595.554 185.759C595.68 183.179 596.457 180.678 597.806 178.508C596.3 178.805 594.909 179.553 593.806 180.659C593.806 180.659 594.215 177.779 598.45 177.528C598.45 177.528 600.607 174.435 601.185 174.245C601.185 174.245 596.972 173.88 594.413 175.058C594.413 175.058 596.665 172.345 601.953 173.538L604.878 171.03C604.878 171.03 599.327 170.27 596.98 171.114C596.98 171.114 599.686 168.712 605.675 170.46L608.893 168.461C608.893 168.461 604.161 167.405 601.346 167.785C601.346 167.785 604.315 166.121 609.836 167.922L612.14 166.85C612.14 166.85 608.673 166.143 607.657 166.029C606.64 165.915 606.589 165.627 606.589 165.627C608.784 165.247 611.038 165.51 613.098 166.387C613.098 166.387 618.048 164.54 617.961 164.221Z" fill="#FAFFFF"/>
<path opacity="0.1" d="M273.812 206.111C273.812 206.111 261.702 180.021 246.286 192.88C246.286 192.88 242.959 194.035 243.12 197.66C243.12 197.66 244.4 196.969 245.314 199.765C245.655 200.754 246.107 201.698 246.659 202.577C247.407 203.77 248.509 204.677 249.797 205.161C249.797 205.161 256.429 210.618 269.074 206.894C269.074 206.894 272.606 207.525 273.183 207.084L269.147 203.839C269.147 203.839 266.953 207.008 263.896 207.289C263.896 207.289 269.132 204.075 268.569 203.33C268.452 203.178 266.375 201.711 266.375 201.711C266.375 201.711 262.565 207.206 257.812 207.487C257.812 207.487 264.539 204.523 265.578 201.141L262.287 199.119C262.287 199.119 258.536 205.139 253.131 205.671C253.131 205.671 260.064 202.319 261.534 198.732L258.038 197.212C258.038 197.212 254.272 203.003 249.767 203.421C249.767 203.421 257.402 198.701 257.212 196.915C257.212 196.915 253.914 195.715 252.89 195.829C252.89 195.829 250.096 199.925 247.464 199.925C247.464 199.925 252.239 196.209 251.947 195.608C251.947 195.608 247.252 195.228 244.78 196.368C247.007 195.218 249.486 194.694 251.968 194.848C250.983 193.628 249.677 192.732 248.21 192.272C248.21 192.272 250.828 191.238 253.102 194.955C253.102 194.955 256.758 195.403 257.19 195.836C257.19 195.836 255.442 191.839 253.212 190.098C253.212 190.098 256.59 190.805 258.133 196.178L261.68 197.637C261.68 197.637 259.64 192.226 257.76 190.516C257.76 190.516 261.095 191.801 262.55 198.116L265.797 200.062C265.797 200.062 264.386 195.251 262.689 192.887C262.689 192.887 265.534 194.772 266.711 200.655L268.737 202.22C268.737 202.22 267.64 198.732 267.275 197.759C266.909 196.786 267.092 196.589 267.092 196.589C268.483 198.393 269.364 200.564 269.637 202.859C269.637 202.859 273.549 206.339 273.812 206.111Z" fill="#FAFFFF"/>
<path opacity="0.1" d="M549.917 125.792L552.625 127.986C552.313 127.974 551.966 127.946 551.622 127.91C551.154 127.861 550.702 127.798 550.367 127.747C550.199 127.722 550.061 127.699 549.965 127.683C549.917 127.676 549.88 127.669 549.855 127.665L549.827 127.66L549.82 127.659L549.818 127.659L549.818 127.658L549.818 127.658L549.818 127.658L549.702 127.638L549.59 127.671C548.649 127.948 547.743 128.173 546.871 128.352C547.579 127.984 548.192 127.519 548.688 127.077C549.175 126.643 549.561 126.219 549.826 125.902C549.858 125.864 549.888 125.827 549.917 125.792ZM544.327 128.113L544.536 128.739C542.968 128.935 541.531 128.981 540.226 128.924C542.073 128.379 543.688 127.211 544.902 126.105C545.696 125.381 546.336 124.667 546.778 124.135C546.934 123.946 547.066 123.78 547.171 123.644C547.357 123.776 547.588 123.941 547.822 124.11C548.088 124.302 548.355 124.498 548.563 124.654C548.627 124.702 548.685 124.746 548.734 124.784C548.669 124.877 548.564 125 548.412 125.15C548.029 125.529 547.453 125.984 546.84 126.43C546.231 126.872 545.602 127.293 545.125 127.604C544.887 127.76 544.687 127.887 544.546 127.976C544.476 128.02 544.421 128.054 544.384 128.078L544.341 128.104L544.331 128.111L544.328 128.112L544.327 128.113L544.327 128.113L544.327 128.113ZM551.911 123.746C552.416 124.569 552.836 125.309 553.165 125.913C552.981 125.768 552.791 125.615 552.602 125.46C552.095 125.047 551.594 124.626 551.22 124.308C551.033 124.149 550.878 124.015 550.769 123.922L550.744 123.9C550.6 122.822 550.327 121.772 549.934 120.772C550.689 121.818 551.351 122.832 551.911 123.746ZM546.138 116.277C546.558 116.694 546.964 117.122 547.355 117.558C547.35 117.563 547.346 117.568 547.342 117.574C547.329 117.59 547.316 117.608 547.304 117.627C547.279 117.665 547.258 117.709 547.24 117.757C547.205 117.854 547.187 117.967 547.186 118.097C547.184 118.353 547.252 118.709 547.45 119.225C547.631 119.696 547.992 120.796 548.312 121.794C548.349 121.91 548.386 122.024 548.421 122.135L547.807 121.66C547.203 118.752 546.194 116.801 545.311 115.562C545.259 115.489 545.208 115.418 545.157 115.35C545.491 115.65 545.818 115.96 546.138 116.277ZM543.467 113.969C543.432 114.023 543.388 114.09 543.332 114.174L543.467 113.969C543.467 113.969 543.467 113.969 543.467 113.969ZM539.221 111.68C540.703 112.185 542.111 112.974 543.43 113.942L542.925 114.465C543.733 115.594 544.493 117.335 545.058 118.828C545.255 119.347 545.425 119.83 545.564 120.238L543.631 119.083C542.885 115.971 541.682 114.051 540.628 112.898C540.09 112.309 539.596 111.925 539.227 111.684C539.225 111.683 539.223 111.681 539.221 111.68ZM538.539 111.47C538.539 111.47 538.539 111.47 538.539 111.47C538.512 111.539 538.472 111.644 538.41 111.803L538.539 111.47ZM540.623 116.223C540.94 116.891 541.215 117.52 541.424 118.02L539.188 117.102C538.386 114.45 537.142 112.897 536.054 112.002C535.518 111.56 535.025 111.283 534.652 111.113C535.686 111.015 536.688 111.075 537.656 111.262C537.944 111.318 538.23 111.385 538.512 111.462L538.074 112.173C538.49 112.552 538.941 113.163 539.388 113.899C539.832 114.627 540.255 115.448 540.623 116.223ZM533.884 111.215C533.884 111.215 533.884 111.215 533.884 111.215C533.875 111.256 533.865 111.303 533.854 111.355L533.884 111.215ZM536.255 115.134C536.488 115.53 536.692 115.904 536.859 116.226C536.501 116.143 536.103 116.067 535.72 116.001C535.229 115.916 534.753 115.844 534.4 115.794C534.263 115.775 534.144 115.759 534.05 115.746C532.886 113.939 531.611 113.219 530.56 112.988C530.157 112.899 529.797 112.885 529.504 112.903C530.98 112.011 532.41 111.478 533.788 111.231L533.547 111.75C534.588 112.559 535.545 113.926 536.255 115.134ZM528.792 113.359C528.792 113.359 528.792 113.359 528.792 113.359C528.812 113.407 528.834 113.463 528.859 113.529L528.792 113.359ZM528.71 114.006C529.72 114.322 530.65 114.861 531.438 115.582C529.272 115.631 527.139 116.175 525.193 117.181L525.631 118.079C526.773 117.554 528.478 117.364 529.955 117.317C530.666 117.294 531.304 117.305 531.772 117.322C531.735 117.363 531.696 117.405 531.654 117.45C531.265 117.864 530.71 118.371 530.134 118.871C529.56 119.367 528.976 119.847 528.535 120.202C528.315 120.38 528.13 120.526 528.001 120.628C527.937 120.679 527.886 120.719 527.852 120.746L527.812 120.777L527.803 120.784L527.8 120.786L527.8 120.787L527.799 120.787L528.106 121.182L527.799 120.787L526.733 121.616C526.629 121.366 526.533 121.112 526.445 120.856C525.972 119.402 525.355 118.711 524.723 118.453C524.567 118.389 524.418 118.356 524.283 118.343C524.371 117.014 524.997 116.117 525.64 115.529C526.008 115.192 526.381 114.957 526.663 114.807C526.803 114.732 526.919 114.679 526.998 114.645C527.037 114.629 527.067 114.617 527.086 114.609L527.106 114.602L527.109 114.601L527.109 114.601L527.109 114.601L527.109 114.601L527.194 114.571L527.264 114.513C527.556 114.269 527.846 114.04 528.135 113.826L528.71 114.006ZM533.454 118.042C533.6 117.858 533.717 117.702 533.801 117.587C533.981 117.598 534.231 117.634 534.542 117.7C534.975 117.793 535.468 117.928 535.937 118.069C536.404 118.21 536.841 118.356 537.162 118.466C537.203 118.48 537.241 118.493 537.278 118.506C537.251 118.562 537.215 118.627 537.168 118.701C537.005 118.957 536.75 119.259 536.418 119.593C535.756 120.259 534.843 120.999 533.908 121.695C532.977 122.388 532.038 123.028 531.33 123.495C530.977 123.729 530.682 123.918 530.476 124.05C530.373 124.115 530.292 124.166 530.237 124.201L530.175 124.24L530.159 124.249L530.155 124.252L530.154 124.252L530.154 124.252L530.417 124.678L530.154 124.252L530.463 125.176C532.893 124.954 535.066 123.293 536.589 121.773C537.36 121.003 537.985 120.248 538.418 119.686C538.6 119.45 538.748 119.247 538.859 119.091L541.508 120.241C541.145 120.903 540.584 121.574 539.901 122.226C539.071 123.019 538.091 123.757 537.146 124.392C536.202 125.026 535.303 125.55 534.639 125.916C534.307 126.099 534.035 126.242 533.846 126.339C533.752 126.387 533.678 126.424 533.629 126.449L533.573 126.476L533.56 126.483L533.556 126.485L533.556 126.485L533.556 126.485L533.556 126.485L533.556 126.485L533.823 127.432C536.695 127.146 539.085 125.417 540.73 123.815C541.558 123.009 542.211 122.221 542.658 121.634C542.829 121.409 542.97 121.214 543.08 121.057L545.657 122.604C545.384 123.216 544.898 123.838 544.271 124.445C543.526 125.166 542.617 125.832 541.726 126.404C540.836 126.974 539.977 127.442 539.339 127.767C539.021 127.93 538.758 128.056 538.576 128.142C538.486 128.185 538.415 128.217 538.367 128.239L538.313 128.263L538.3 128.269L538.297 128.271L538.297 128.271L538.297 128.271L538.297 128.271L538.297 128.271L538.418 128.774C537.325 128.638 536.347 128.431 535.487 128.193C533.909 127.754 532.72 127.204 531.931 126.767C531.536 126.549 531.241 126.359 531.047 126.226C530.95 126.159 530.879 126.107 530.833 126.072C530.81 126.054 530.793 126.041 530.783 126.033L530.772 126.025L530.771 126.024L530.771 126.024L530.771 126.024L530.77 126.024L530.707 125.971L530.629 125.942C529.449 125.5 528.436 124.668 527.747 123.569L527.746 123.566C527.367 122.968 527.037 122.337 526.761 121.682H528.106C528.892 121.682 529.653 121.379 530.328 120.971C531.007 120.559 531.635 120.019 532.165 119.492C532.698 118.963 533.143 118.436 533.454 118.042ZM548.891 124.913C548.891 124.913 548.89 124.912 548.888 124.91C548.89 124.912 548.891 124.913 548.891 124.913ZM548.801 124.669C548.803 124.662 548.805 124.658 548.805 124.658C548.806 124.658 548.805 124.661 548.801 124.669Z" fill="#FAFFFF" stroke="#FAFFFF"/>
<path opacity="0.1" d="M593.148 256.416C593.148 256.416 581.045 230.318 565.6 243.177C565.6 243.177 562.28 244.332 562.433 247.957C562.433 247.957 563.72 247.273 564.627 250.062C564.966 251.055 565.417 252.001 565.973 252.882C566.718 254.072 567.817 254.977 569.103 255.458C569.103 255.458 575.743 260.923 588.387 257.199C588.387 257.199 591.912 257.829 592.497 257.381L588.46 254.136C588.46 254.136 586.266 257.313 583.209 257.594C583.209 257.594 588.438 254.371 587.875 253.627C587.758 253.475 585.681 252.008 585.681 252.008C585.681 252.008 581.879 257.503 577.118 257.791C577.118 257.791 583.853 254.82 584.891 251.445L581.593 249.424C581.593 249.424 577.849 255.443 572.437 255.975C572.437 255.975 579.37 252.616 580.847 249.029L577.344 247.509C577.344 247.509 573.578 253.3 569.081 253.718C569.081 253.718 576.716 248.998 576.525 247.212C576.525 247.212 573.227 246.004 572.203 246.125C572.203 246.125 569.41 250.214 566.77 250.214C566.77 250.214 571.553 246.498 571.26 245.897C571.26 245.897 566.565 245.517 564.086 246.657C566.316 245.507 568.797 244.983 571.282 245.137C570.299 243.914 568.992 243.018 567.523 242.561C567.523 242.561 570.141 241.52 572.416 245.244C572.416 245.244 576.072 245.692 576.503 246.125C576.503 246.125 574.756 242.128 572.525 240.38C572.525 240.38 575.904 241.094 577.447 246.498L580.994 247.957C580.994 247.957 578.953 242.538 577.074 240.836C577.074 240.836 580.409 242.113 581.857 248.436L585.111 250.374C585.111 250.374 583.692 245.571 581.996 243.2C581.996 243.2 584.848 245.084 586.025 250.974L588.051 252.494C588.051 252.494 586.954 249.006 586.588 248.033C586.222 247.06 586.405 246.87 586.405 246.87C587.796 248.674 588.675 250.846 588.943 253.14C588.943 253.14 592.921 256.644 593.148 256.416Z" fill="#FAFFFF"/>
<path opacity="0.1" d="M147.685 595.96C156.971 595.96 164.498 595.086 164.498 594.007C164.498 592.928 156.971 592.054 147.685 592.054C138.4 592.054 130.873 592.928 130.873 594.007C130.873 595.086 138.4 595.96 147.685 595.96Z" fill="#FAFFFF"/>
<path opacity="0.1" d="M37.4717 562.763C46.757 562.763 54.2842 561.889 54.2842 560.81C54.2842 559.731 46.757 558.857 37.4717 558.857C28.1864 558.857 20.6591 559.731 20.6591 560.81C20.6591 561.889 28.1864 562.763 37.4717 562.763Z" fill="#FAFFFF"/>
<path opacity="0.1" d="M231.697 618.008C240.982 618.008 248.509 617.133 248.509 616.054C248.509 614.976 240.982 614.101 231.697 614.101C222.412 614.101 214.884 614.976 214.884 616.054C214.884 617.133 222.412 618.008 231.697 618.008Z" fill="#FAFFFF"/>
<path opacity="0.1" d="M662.211 569.983C671.497 569.983 679.024 569.109 679.024 568.03C679.024 566.951 671.497 566.077 662.211 566.077C652.926 566.077 645.399 566.951 645.399 568.03C645.399 569.109 652.926 569.983 662.211 569.983Z" fill="#FAFFFF"/>
<path opacity="0.1" d="M522.307 560.506C531.592 560.506 539.12 559.632 539.12 558.553C539.12 557.474 531.592 556.6 522.307 556.6C513.022 556.6 505.495 557.474 505.495 558.553C505.495 559.632 513.022 560.506 522.307 560.506Z" fill="#FAFFFF"/>
<path opacity="0.1" d="M431.802 606.729C442.783 606.729 451.686 605.14 451.686 603.18C451.686 601.22 442.783 599.631 431.802 599.631C420.82 599.631 411.918 601.22 411.918 603.18C411.918 605.14 420.82 606.729 431.802 606.729Z" fill="#FAFFFF"/>
<path d="M440.672 567.506C440.672 567.506 412.985 582.371 427.29 599.882C427.29 599.882 428.635 603.682 432.526 603.416C432.526 603.416 431.751 601.941 434.72 600.763C435.776 600.339 436.78 599.785 437.711 599.114C438.968 598.211 439.908 596.906 440.387 595.398C440.387 595.398 446.047 587.524 441.66 572.955C441.66 572.955 442.23 568.836 441.733 568.167L438.369 572.963C438.369 572.963 441.842 575.387 442.245 578.951C442.245 578.951 438.588 572.97 437.857 573.631C437.696 573.768 436.189 576.253 436.189 576.253C436.189 576.253 442.215 580.502 442.661 586.019C442.661 586.019 439.268 578.29 435.604 577.188L433.506 581.079C433.506 581.079 440.087 585.244 440.819 591.507C440.819 591.507 436.994 583.565 433.089 581.961L431.546 586.073C431.546 586.073 437.893 590.268 438.478 595.481C438.478 595.481 433.169 586.764 431.261 587.038C431.261 587.038 430.061 590.899 430.222 592.092C430.222 592.092 434.705 595.208 434.785 598.271C434.785 598.271 430.646 592.837 430.01 593.194C430.01 593.194 429.747 598.658 431.019 601.501C431.019 601.501 428.825 597.442 429.184 593.194C427.901 594.372 426.978 595.915 426.529 597.632C426.529 597.632 425.337 594.63 429.264 591.864C429.264 591.864 429.637 587.615 430.09 587.091C430.09 587.091 425.842 589.249 424.035 591.894C424.035 591.894 424.701 587.95 430.463 585.989L431.926 581.824C431.926 581.824 426.163 584.363 424.386 586.597C424.386 586.597 425.666 582.683 432.379 580.806L434.369 577.006C434.369 577.006 429.249 578.799 426.748 580.806C426.748 580.806 428.686 577.439 434.983 575.889L436.599 573.495C436.599 573.495 432.884 574.87 431.846 575.364C430.807 575.858 430.602 575.615 430.602 575.615C432.501 573.946 434.807 572.857 437.265 572.469C437.265 572.469 440.928 567.764 440.672 567.506Z" fill="#FAFFFF"/>
<path d="M134.693 588.748C134.693 588.748 107.28 573.383 100.196 594.855C100.196 594.855 97.7145 598.032 100.029 601.17C100.029 601.17 100.856 599.724 103.445 601.596C104.37 602.259 105.377 602.808 106.443 603.232C107.88 603.807 109.485 603.899 111.015 603.493C111.015 603.493 120.697 604.037 130.627 592.508C130.627 592.508 134.408 590.776 134.705 589.997L128.853 589.737C128.853 589.737 128.674 593.969 125.884 596.223C125.884 596.223 128.964 589.926 128.014 589.664C127.812 589.602 124.906 589.667 124.906 589.667C124.906 589.667 124.561 597.032 120.147 600.372C120.147 600.372 124.843 593.358 123.804 589.676L119.394 589.996C119.394 589.996 119.418 597.785 114.529 601.766C114.529 601.766 119.172 594.273 118.427 590.118L114.13 591.026C114.13 591.026 114.002 598.633 109.919 601.928C109.919 601.928 114.419 592.767 113.163 591.304C113.163 591.304 109.262 592.367 108.342 593.143C108.342 593.143 108.123 598.598 105.583 600.312C105.583 600.312 107.942 593.901 107.299 593.557C107.299 593.557 102.549 596.27 100.835 598.871C100.835 598.871 103.079 594.84 106.855 592.86C105.172 592.411 103.375 592.462 101.685 593.005C101.685 593.005 103.577 590.387 108.02 592.213C108.02 592.213 111.803 590.245 112.489 590.346C112.489 590.346 108.386 587.922 105.185 587.819C105.185 587.819 108.869 586.261 113.619 590.068L117.917 589.064C117.917 589.064 112.68 585.568 109.841 585.269C109.841 585.269 113.83 584.246 119.02 588.899L123.294 588.535C123.294 588.535 119.03 585.181 115.995 584.15C115.995 584.15 119.875 583.976 124.566 588.453L127.453 588.53C127.453 588.53 124.297 586.136 123.323 585.525C122.348 584.915 122.443 584.612 122.443 584.612C124.87 585.316 127.028 586.676 128.676 588.54C128.676 588.54 134.612 589.103 134.693 588.748Z" fill="#FAFFFF"/>
<path d="M522.848 286.739C518.066 273.234 491.739 271.965 480.316 275.408C472.199 277.863 455.086 280.629 445.945 282.02L445.353 281.435C446.537 281.07 446.567 280.173 446.42 278.843C446.335 277.09 446.36 275.333 446.494 273.584C452.095 275.393 457.083 271.114 457.083 271.114C463.664 268.074 461.895 255.063 463.152 251.506C464.096 248.846 465.112 233.175 465.566 225.362H465.661L465.712 222.74C465.778 221.608 465.807 220.946 465.807 220.946C465.807 220.946 466.451 201.84 467.708 197.972C468.879 194.415 469.829 176.494 469.975 173.652C469.975 173.409 469.975 173.279 469.975 173.279L469.88 171.623C469.946 170.414 469.975 169.069 469.968 167.655C469.968 161.157 469.317 152.972 469.237 151.65C469.237 151.46 469.237 151.232 469.237 150.958C469.288 148.184 468.952 134.292 457.58 129.04C453.39 127.094 448.351 124.776 443.473 122.519C442.215 111.233 439.341 100.008 439.59 88.6384C439.59 86.9285 439.736 85.2185 439.897 83.5161C439.897 84.0101 439.846 84.5117 439.839 85.036C439.839 86.138 439.839 87.2476 439.839 88.3496C440.27 74.1301 445.44 59.8345 444.958 45.919C444.914 47.2794 444.819 48.6474 444.695 50.0154C444.947 45.3086 444.473 40.5901 443.29 36.039C442.852 34.4354 442.259 32.7786 440.994 31.707C439.798 30.844 438.427 30.2796 436.987 30.0578C433.526 29.1373 430.011 28.4568 426.463 28.021C425.924 26.3063 425.124 24.6923 424.094 23.2406C416.679 12.6615 405.694 2.72068 392.707 0.440687C386.191 -0.69931 378.695 0.250686 374.263 5.09187C373.8 5.51716 373.366 5.97418 372.962 6.45987C370.578 9.41626 369.554 13.2999 367.111 16.2486C366.95 16.4462 366.768 16.6286 366.592 16.8186C361.809 21.2646 354.357 22.1918 349.041 26.1818C348.104 26.8981 347.226 27.6937 346.416 28.5606C344.273 30.7668 342.352 33.1935 340.682 35.8034C338.291 39.2994 335.834 42.9398 335.073 47.1122C333.545 55.4721 339.022 63.3989 340.039 71.8121C342.306 90.6372 322.261 107.342 326.056 125.916C327.069 130.48 329.305 134.651 332.506 137.947C324.689 145.304 318.034 152.44 318.034 152.44V152.866H316.798L316.922 154.386H316.798L317.478 162.632L316.798 174.64C316.798 174.64 316.798 174.769 316.798 175.012V175.073V175.4C316.798 175.4 316.798 175.529 316.798 175.772H316.842C317.069 180.173 317.968 195.996 319.036 199.332C320.294 203.201 320.93 222.307 320.93 222.307C320.93 222.307 322.319 249.31 323.592 252.882C324.864 256.454 323.058 269.427 329.661 272.49C331.593 274.03 333.881 275.015 336.294 275.347C335.958 278.19 336.17 280.249 337.26 280.895C337.726 281.18 338.255 281.337 338.795 281.351C338.347 282.042 337.949 282.766 337.603 283.517C334.982 283.233 332.407 282.602 329.939 281.64C322.846 278.6 299.305 271.76 292.468 276.571C285.63 281.382 269.176 285.744 276.774 305.109C284.372 324.473 287.912 324.96 287.912 324.96C290.251 326.724 292.302 328.867 293.989 331.306C296.27 334.87 317.529 343.025 322.846 343.025C325.106 342.989 327.365 343.106 329.61 343.375C329.61 343.375 323.84 348.634 324.608 351.689C325.376 354.744 322.853 379.201 322.853 379.201C322.853 379.201 328.703 385.326 331.205 377.293L331.292 377.415C331.76 378.076 334.291 381.063 339.051 377.293C341 375.757 343.069 374.394 345.238 373.22L368.289 369.83C370.692 369.674 373.101 369.656 375.507 369.777C379.163 370.088 382.754 367.839 385.013 366.098C389.789 367.983 395.156 370.043 397.709 370.795C402.886 372.315 426.683 378.95 432.248 376.875C433.405 376.397 434.433 375.636 435.246 374.656L440.555 374.831L438.069 375.348C438.069 375.348 442.91 375.431 449.492 375.522L449.214 375.69L457.47 375.614C469.551 375.728 483.124 375.766 484.909 375.348C487.702 374.702 502.218 375.158 506.496 375.348H507.689C507.689 375.348 523.638 372.042 517.056 355.223C511.996 342.303 496.441 338.549 489.538 337.515C491.483 337.112 493.158 336.801 494.269 336.618C499.088 335.858 508.449 331.298 509.21 329.74C509.97 328.182 517.817 323.66 519.843 321.084C521.868 318.507 527.653 300.245 522.848 286.739ZM390.739 324.534L389.957 324.8L389.43 324.983L388.421 326.016C387.617 325.454 386.754 324.861 385.854 324.253C387.441 324.352 389.072 324.451 390.739 324.534Z" fill="url(#paint0_linear)"/>
<path d="M437.367 244.4C437.367 244.4 448.556 274.8 454.918 271.76C461.28 268.72 459.554 255.8 460.768 252.259C461.982 248.717 463.328 221.859 463.328 221.859C463.328 221.859 463.942 202.859 465.156 199.013C466.282 195.479 467.196 177.657 467.35 174.853C467.35 174.61 467.35 174.48 467.35 174.48L466.143 152.44L459.313 150.67L443.473 156.75L441.279 169.768L440.424 174.853L440.058 177.019L437.367 244.4Z" fill="#BE6F72"/>
<path opacity="0.1" d="M441.053 239.308C441.053 239.308 451.73 248.39 454.947 249.188C458.165 249.986 460.139 257.069 460.139 257.069" fill="black"/>
<path d="M349.867 245.73C349.867 245.73 338.678 276.13 332.316 273.09C325.954 270.05 327.68 257.13 326.466 253.588C325.252 250.047 323.906 223.189 323.906 223.189C323.906 223.189 323.292 204.189 322.078 200.343C320.952 196.809 320.038 178.987 319.884 176.183C319.884 175.939 319.884 175.81 319.884 175.81L321.098 153.77L327.928 152L343.768 158.079L345.962 171.098L346.818 176.183L347.183 178.349L349.867 245.73Z" fill="#BE6F72"/>
<path d="M422.726 83.0449H397.753V123.5H422.726V83.0449Z" fill="#3E373A"/>
<path opacity="0.1" d="M422.726 83.0449H397.753V123.5H422.726V83.0449Z" fill="black"/>
<path d="M345.479 276.009C345.479 276.009 336.945 285.759 340.112 287.53C343.278 289.301 363.762 322.49 363.762 322.49C363.762 322.49 431.041 331.101 443.729 318.181C456.417 305.261 456.161 282.18 456.161 282.18C456.161 282.18 445.967 284.46 444.855 283.221C443.744 281.982 437.638 276.009 437.638 276.009C437.638 276.009 351.33 270.567 345.479 276.009Z" fill="#4B4B5B"/>
<path opacity="0.02" d="M345.479 276.009C345.479 276.009 336.945 285.759 340.112 287.53C343.278 289.301 363.762 322.49 363.762 322.49C363.762 322.49 431.041 331.101 443.729 318.181C456.417 305.261 456.161 282.18 456.161 282.18C456.161 282.18 445.967 284.46 444.855 283.221C443.744 281.982 437.638 276.009 437.638 276.009C437.638 276.009 351.33 270.567 345.479 276.009Z" fill="black"/>
<path d="M466.597 152.76L444.658 171L438.025 171.501L435.59 171.684L394.688 174.8L352.273 171.577L345.962 171.098L337.918 170.49L321.098 153.771C321.098 153.771 333.004 140.516 343.432 131.571C347.542 128.037 351.425 125.179 354.255 124.055L354.738 123.88C356.518 123.158 358.107 122.007 359.374 120.521C367.608 111.697 375.221 89.9231 375.221 89.9231C375.221 89.9231 411.545 70.4215 407.157 96.0031C402.769 121.585 423.487 115.261 423.487 115.261L430.317 118.499L433.016 119.783L439.897 123.059L455.423 130.461C467.606 136.291 466.597 152.76 466.597 152.76Z" fill="#BE6F72"/>
<path opacity="0.1" d="M392.985 110.754C411.026 110.754 425.652 95.5549 425.652 76.8053C425.652 58.0557 411.026 42.8562 392.985 42.8562C374.943 42.8562 360.318 58.0557 360.318 76.8053C360.318 95.5549 374.943 110.754 392.985 110.754Z" fill="black"/>
<path opacity="0.1" d="M466.648 176.943H319.884C319.884 176.699 319.884 176.57 319.884 176.57L321.098 154.53C321.098 154.53 333.003 141.276 343.432 132.331L435.575 128.531L439.861 123.834L455.386 131.236C467.577 137.058 466.597 153.527 466.597 153.527C466.597 153.527 468.264 172.611 466.648 176.943Z" fill="black"/>
<path d="M466.648 176.183H319.884C319.884 175.939 319.884 175.81 319.884 175.81L321.098 153.77C321.098 153.77 333.003 140.516 343.432 131.571L435.575 127.771L439.861 123.074L455.386 130.476C467.577 136.298 466.597 152.767 466.597 152.767C466.597 152.767 468.264 171.851 466.648 176.183Z" fill="#E7C7CA"/>
<path opacity="0.1" d="M369.459 114.38C369.459 114.38 392.612 145.038 423.45 113.749C454.289 82.4599 426.865 183.54 426.865 183.54L360.318 191.748L369.459 114.38Z" fill="black"/>
<path d="M369.459 115.9C369.459 115.9 392.612 146.558 423.45 115.269C454.289 83.9799 426.865 185.06 426.865 185.06L360.318 193.268L369.459 115.9Z" fill="#E7C7CA"/>
<path opacity="0.1" d="M432.979 121.281L435.429 160.109L438.054 173.029L440.058 182.909C440.058 182.909 445.177 258.909 443.715 262.709C442.252 266.509 444.446 269.549 444.753 271.57C445.06 273.592 444.446 278.669 444.687 280.949C444.928 283.229 444.687 284.239 439.085 283.426C433.484 282.613 425.673 281.199 425.673 281.199C425.673 281.199 405.928 282.719 399.105 280.189C392.282 277.658 379.36 277.65 379.36 277.65C379.36 277.65 359.857 278.159 353.524 277.399C347.191 276.639 343.768 285.509 339.629 282.97C335.49 280.432 344.499 255.869 347.425 248.77C350.35 241.672 343.527 223.69 343.527 223.69L352.302 173.097L354.255 161.629V125.575L354.738 125.4C356.518 124.678 358.107 123.527 359.374 122.041L361.568 158.323L430.31 160.861V120.027" fill="black"/>
<path d="M432.979 119.761L435.429 158.589L438.054 171.509L440.058 181.389C440.058 181.389 445.177 257.389 443.715 261.189C442.252 264.989 444.446 268.029 444.753 270.05C445.06 272.072 444.446 277.149 444.687 279.429C444.928 281.709 444.687 282.719 439.085 281.906C433.484 281.093 425.673 279.679 425.673 279.679C425.673 279.679 405.928 281.199 399.105 278.669C392.282 276.138 379.36 276.13 379.36 276.13C379.36 276.13 359.857 276.639 353.524 275.879C347.191 275.119 343.768 283.989 339.629 281.45C335.49 278.912 344.499 254.349 347.425 247.25C350.35 240.152 343.527 222.17 343.527 222.17L352.302 171.577L354.255 160.109V124.055L354.738 123.88C356.518 123.158 358.107 122.007 359.374 120.521L361.568 156.803L430.31 159.341V118.507" fill="#E7C7CA"/>
<path opacity="0.1" d="M440.885 38.7295C440.468 37.1411 439.89 35.4919 438.691 34.4279C437.545 33.5733 436.223 33.0109 434.829 32.7863C431.494 31.8748 428.102 31.1994 424.679 30.7647C424.19 29.0772 423.45 27.4796 422.485 26.0299C415.318 15.5116 404.715 5.59359 392.239 3.3516C385.708 2.1736 378.139 3.23 373.956 8.58038C371.66 11.5216 370.673 15.4204 368.354 18.3084C363.886 23.9171 355.82 24.6087 350.189 28.9483C347.183 31.2283 345.004 34.5343 342.876 37.7415C340.572 41.2147 338.203 44.8323 337.472 48.9819C336.009 57.2735 341.282 65.1774 342.254 73.545C344.448 92.2638 325.142 108.87 328.791 127.338C330.919 138.107 340.492 145.692 350.394 149.537C353.882 150.898 357.868 152.25 359.498 155.731C360.23 157.251 360.354 159.007 361.041 160.542C363.352 165.664 370.95 165.862 375.031 162.13C379.112 158.399 380.399 152.364 380.882 146.733C382.841 122.139 373.364 97.8421 374.468 73.1878C374.797 65.7322 376.816 57.2735 383.244 53.8991C391.895 49.3391 402.301 56.9391 411.823 55.4875C416.328 66.8809 417.285 79.4553 414.558 91.443C413.044 98.0018 410.426 104.363 410.236 111.127C409.951 121.425 415.296 130.834 419.918 139.938C420.91 141.641 421.573 143.528 421.871 145.494C421.944 147.489 421.586 149.475 420.825 151.308C418.214 158.612 413.709 165.391 413.198 173.166C413.048 174.073 413.244 175.006 413.746 175.765C414.261 176.271 414.926 176.582 415.633 176.646C423.531 178.052 430.361 170.779 434.215 163.476C438.512 155.409 441.016 146.444 441.543 137.24C442.34 121.767 437.001 106.544 437.33 91.0554C437.711 73.4462 445.367 55.7155 440.885 38.7295Z" fill="black"/>
<path d="M441.616 37.9695C441.199 36.3811 440.621 34.7319 439.422 33.6679C438.277 32.8133 436.954 32.2509 435.561 32.0263C432.225 31.1148 428.834 30.4394 425.41 30.0047C424.921 28.3171 424.181 26.7195 423.216 25.2699C416.05 14.7516 405.446 4.83358 392.97 2.59159C386.439 1.41359 378.87 2.46999 374.687 7.82037C372.391 10.7616 371.404 14.6604 369.086 17.5484C364.618 23.1571 356.551 23.8487 350.92 28.1883C347.915 30.4683 345.735 33.7743 343.607 36.9815C341.304 40.4547 338.934 44.0723 338.203 48.2219C336.74 56.5135 342.013 64.4174 342.986 72.785C345.18 91.5038 325.873 108.11 329.523 126.578C331.651 137.347 341.223 144.932 351.125 148.777C354.613 150.138 358.599 151.49 360.23 154.971C360.961 156.491 361.085 158.247 361.773 159.782C364.084 164.904 371.682 165.102 375.762 161.37C379.843 157.639 381.13 151.604 381.613 145.973C383.573 121.379 374.095 97.0821 375.199 72.4278C375.528 64.9722 377.547 56.5134 383.975 53.139C392.626 48.5791 403.033 56.179 412.554 54.7275C417.06 66.1209 418.016 78.6953 415.289 90.683C413.775 97.2417 411.157 103.603 410.967 110.367C410.682 120.665 416.028 130.074 420.649 139.178C421.641 140.881 422.304 142.768 422.602 144.734C422.675 146.729 422.318 148.715 421.556 150.548C418.946 157.852 414.441 164.631 413.929 172.406C413.779 173.313 413.976 174.246 414.477 175.005C414.993 175.511 415.657 175.822 416.364 175.886C424.262 177.292 431.092 170.019 434.946 162.716C439.243 154.649 441.747 145.684 442.274 136.48C443.071 121.007 437.733 105.784 438.062 90.2954C438.442 72.6862 446.099 54.9555 441.616 37.9695Z" fill="#3E373A"/>
<path d="M425.461 374.474L454.472 375.439L450.311 353.08L428.087 355.276L425.461 374.474Z" fill="#C3C7D9"/>
<path d="M515.352 321.479C513.4 324.01 505.846 328.57 505.114 330.09C504.383 331.61 495.366 336.17 490.73 336.93C486.093 337.69 471.475 340.988 468.791 342.759C466.867 344.036 451.43 348.079 441.287 350.321C438.539 350.997 435.759 351.517 432.957 351.879C428.569 352.13 380.552 335.159 380.552 335.159L389.811 325.279L390.323 325.097C392.941 324.177 405.036 319.929 411.75 317.907C419.311 315.627 428.087 306.256 428.087 306.256C428.087 306.256 441.001 301.696 442.713 301.187C444.424 300.678 438.325 283.457 438.325 283.457C438.325 283.457 466.355 279.413 477.325 275.986C488.294 272.558 513.648 273.827 518.278 287.257C522.907 300.686 517.334 318.948 515.352 321.479Z" fill="#4B4B5B"/>
<path d="M387.617 364.29C387.617 364.29 382.015 370.37 376.406 369.868C370.797 369.367 351.184 371.388 351.184 371.388C347.629 372.862 344.301 374.866 341.304 377.339C336.718 381.094 334.283 378.099 333.83 377.461L333.749 377.339C331.307 385.327 325.705 379.239 325.705 379.239C325.705 379.239 328.14 354.919 327.394 351.879C326.649 348.839 332.214 343.618 332.214 343.618L338.795 341.878L355.469 337.439L379.36 346.05L387.617 364.29Z" fill="#E7C7CA"/>
<path opacity="0.1" d="M338.766 341.877L333.83 377.461L333.749 377.339C331.307 385.327 325.705 379.239 325.705 379.239C325.705 379.239 328.14 354.919 327.394 351.879C326.649 348.839 332.214 343.618 332.214 343.618L338.766 341.877Z" fill="black"/>
<path opacity="0.1" d="M373.269 240.661C373.269 240.661 386.183 245.221 397.402 240.661H373.269Z" fill="black"/>
<path opacity="0.1" d="M417.359 249.279C417.359 249.279 422.719 252.061 426.865 249.279H417.359Z" fill="black"/>
<path opacity="0.1" d="M417.359 255.876C417.359 255.876 426.375 257.13 428.087 254.599L417.359 255.876Z" fill="black"/>
<path opacity="0.1" d="M414.433 270.05C414.433 270.05 431.37 267.77 435.575 264.73L414.433 270.05Z" fill="black"/>
<path opacity="0.1" d="M362.753 264.73C362.753 264.73 372.259 270.301 379.331 270.05L362.753 264.73Z" fill="black"/>
<path opacity="0.1" d="M441.279 350.321C438.532 350.997 435.751 351.517 432.95 351.879C428.562 352.13 380.545 335.159 380.545 335.159L389.803 325.279L390.315 325.097C391.778 326.168 392.977 327.088 393.833 327.787C397.862 331.085 401.753 326.776 403.215 326.776C404.678 326.776 417.351 337.667 417.351 337.667C417.351 337.667 429.052 340.456 431.005 342.987C432.957 345.518 439.78 345.016 440.994 346.787C441.36 347.334 441.404 348.679 441.279 350.321Z" fill="black"/>
<path d="M351.183 284.49C351.183 284.49 339.351 285.197 332.528 282.21C325.705 279.223 303.035 272.33 296.453 277.171C289.872 282.013 274.024 286.291 281.337 305.55C288.65 324.808 292.065 325.31 292.065 325.31C294.328 327.073 296.303 329.203 297.916 331.618C300.11 335.167 320.586 343.268 325.705 343.268C330.824 343.268 339.841 343.268 352.514 352.388C365.188 361.508 376.647 362.527 376.647 362.527C376.647 362.527 392.736 369.367 397.745 370.887C402.755 372.407 425.644 378.988 431.012 376.967C436.38 374.945 439.788 362.268 439.788 362.268C439.788 362.268 442.223 350.868 441.001 349.098C439.78 347.327 432.957 347.828 431.012 345.298C429.067 342.767 417.359 339.978 417.359 339.978C417.359 339.978 404.714 329.079 403.252 329.079C401.789 329.079 397.899 333.381 393.869 330.09C385.843 323.912 377.41 318.325 368.632 313.37C359.374 308.301 351.183 284.49 351.183 284.49Z" fill="#4B4B5B"/>
<path opacity="0.1" d="M327.394 291.839C329.501 291.392 331.679 291.456 333.758 292.027C335.837 292.598 337.761 293.66 339.38 295.13C345.231 300.199 364.917 310.375 364.917 310.375" fill="black"/>
<path opacity="0.1" d="M473.668 291.52C473.668 291.52 447.583 295.624 442.713 301.195L473.668 291.52Z" fill="black"/>
<path d="M503.652 375.439H502.503C498.379 375.287 484.404 374.831 481.713 375.439C478.546 376.199 436.614 375.439 436.614 375.439L444.811 373.668C444.811 373.668 441.769 362.588 443.7 361.668C443.7 361.668 432.73 354.159 441.001 349.09C449.272 344.021 458.187 346.156 458.187 346.156L478.948 338.845L482.934 337.439C482.934 337.439 506.335 338.708 512.669 355.428C519.002 372.148 503.652 375.439 503.652 375.439Z" fill="#E7C7CA"/>
<path opacity="0.1" d="M503.652 375.439H502.504C509.312 369.602 524.713 351.833 478.948 338.883L482.934 337.477C482.934 337.477 506.336 338.746 512.669 355.466C519.002 372.186 503.652 375.439 503.652 375.439Z" fill="black"/>
<path d="M460.63 355.74C461.336 355.74 461.909 355.144 461.909 354.41C461.909 353.675 461.336 353.08 460.63 353.08C459.923 353.08 459.35 353.675 459.35 354.41C459.35 355.144 459.923 355.74 460.63 355.74Z" fill="#4B4B5B"/>
<path d="M453.192 357.936C453.899 357.936 454.472 357.341 454.472 356.606C454.472 355.872 453.899 355.276 453.192 355.276C452.485 355.276 451.912 355.872 451.912 356.606C451.912 357.341 452.485 357.936 453.192 357.936Z" fill="#4B4B5B"/>
<g opacity="0.1">
<path opacity="0.1" d="M416.956 75.551C417.24 67.1917 415.809 58.8653 412.759 51.1247C403.252 52.5991 392.838 44.9763 384.18 49.5363C377.773 52.9107 375.762 61.3695 375.404 68.8251C375.316 70.7935 375.302 72.7619 375.338 74.7302C375.338 74.031 375.338 73.3242 375.404 72.625C375.74 65.1695 377.752 56.7107 384.18 53.3363C392.838 48.7763 403.237 56.3763 412.759 54.9247C415.342 61.4812 416.764 68.469 416.956 75.551Z" fill="black"/>
<path opacity="0.1" d="M343.285 74.1608C343.411 72.5048 343.379 70.84 343.19 69.1904C342.415 62.5025 338.898 56.1109 338.261 49.5901C337.442 57.4561 342.262 65.0105 343.19 72.9904C343.285 73.4008 343.285 73.7656 343.285 74.1608Z" fill="black"/>
<path opacity="0.1" d="M381.818 142.363C381.364 148.002 380.085 154.029 375.967 157.768C371.85 161.507 364.267 161.302 361.978 156.18C361.246 154.66 361.137 152.889 360.427 151.369C358.804 147.888 354.811 146.535 351.323 145.175C341.413 141.322 331.855 133.775 329.727 122.975C329.537 121.997 329.408 121.007 329.34 120.011C329.16 122.274 329.29 124.551 329.727 126.775C331.855 137.545 341.428 145.122 351.323 148.975C354.811 150.335 358.804 151.688 360.427 155.169C361.159 156.689 361.283 158.445 361.978 159.98C364.281 165.102 371.879 165.3 375.967 161.568C380.055 157.837 381.328 151.802 381.818 146.163C382.04 143.195 382.116 140.217 382.044 137.241C382.044 138.966 381.949 140.668 381.818 142.363Z" fill="black"/>
<path opacity="0.1" d="M438.303 86.6931C438.303 87.7951 438.303 88.8895 438.303 89.9839C438.713 75.8479 443.7 61.636 443.21 47.7964C442.83 60.5948 438.581 73.6819 438.303 86.6931Z" fill="black"/>
<path opacity="0.1" d="M422.609 143.875C422.789 142.973 422.846 142.05 422.778 141.132C422.483 139.165 421.82 137.277 420.825 135.576C416.598 127.216 411.779 118.658 411.208 109.379C411.208 109.774 411.157 110.139 411.15 110.565C410.857 120.855 416.203 130.271 420.825 139.376C421.611 140.786 422.211 142.299 422.609 143.875Z" fill="black"/>
<path opacity="0.1" d="M442.508 132.878C441.962 142.086 439.441 151.05 435.129 159.113C431.268 166.417 424.445 173.69 416.54 172.284C415.831 172.221 415.165 171.907 414.653 171.395C414.504 171.221 414.388 171.02 414.309 170.802C414.221 171.395 414.148 171.995 414.104 172.603C413.953 173.508 414.15 174.439 414.653 175.195C415.165 175.707 415.831 176.021 416.54 176.084C424.445 177.49 431.268 170.217 435.129 162.913C439.441 154.85 441.962 145.886 442.508 136.678C442.596 134.9 442.603 133.129 442.552 131.358C442.537 131.867 442.537 132.369 442.508 132.878Z" fill="black"/>
</g>
<path opacity="0.1" d="M443.7 361.668C443.7 361.668 462.209 369.739 474.414 351.879" stroke="black" stroke-miterlimit="10"/>
<path opacity="0.1" d="M447.342 375.773C447.342 375.773 462.458 365.559 481.713 375.439" stroke="black" stroke-miterlimit="10"/>
<path opacity="0.1" d="M346.159 373.455C346.159 373.455 352.507 358.575 369.459 369.921" stroke="black" stroke-miterlimit="10"/>
<path opacity="0.1" d="M325.581 153.391L338.525 141.231C338.525 141.231 388.714 137.811 390.791 155.541C390.791 155.541 408.583 134.52 446.004 139.201L461.836 152.304L418.075 172.261L375.55 187.59L344.229 173.021L325.581 153.391Z" fill="black"/>
<path d="M325.581 154.151L338.525 141.991C338.525 141.991 388.714 138.571 390.791 156.301C390.791 156.301 408.583 135.28 446.004 139.961L461.836 153.064L418.075 173.021L375.55 188.35L344.229 173.781L325.581 154.151Z" fill="#D5D6DB"/>
<path opacity="0.1" d="M319.855 155.67L325.581 226.859L386.278 230.029L383.646 159.144L383.595 157.95L319.855 155.67Z" fill="black"/>
<path d="M319.855 154.15L325.581 225.339L386.278 228.509L383.646 157.624L383.595 156.43L319.855 154.15Z" fill="#FAFFFF"/>
<path opacity="0.1" d="M464.615 154.15L402.001 163.909V235.417L463.189 226.229L464.615 154.15Z" fill="black"/>
<path d="M464.615 152.63L402.001 162.389V233.897L463.189 224.709L464.615 152.63Z" fill="#FAFFFF"/>
<path opacity="0.3" d="M449.85 170.08L416.028 173.986L416.766 185.964L449.828 182.21L449.85 170.08Z" fill="#FC5185"/>
<path d="M328.872 263.461L332.316 273.09C332.316 273.09 337.435 277.65 343.037 275.37C348.639 273.09 353.524 271.958 355.959 269.738C358.394 267.519 361.809 256.37 361.809 256.37C361.809 256.37 365.224 244.21 368.632 241.17C372.04 238.13 381.064 196.247 368.632 200.343C356.2 204.439 346.693 242.439 346.693 242.439C346.693 242.439 344.5 245.221 341.333 245.479C338.166 245.738 331.826 244.97 330.605 247.759C329.384 250.548 325.215 257.89 328.872 263.461Z" fill="#BE6F72"/>
<path opacity="0.1" d="M402.001 163.901C398.796 164.652 395.465 164.613 392.277 163.787C389.088 162.96 386.13 161.37 383.638 159.144L386.278 230.021C386.278 230.021 392.494 237.013 402.001 235.417V163.901Z" fill="black"/>
<path d="M402.001 162.381C398.796 163.132 395.465 163.093 392.277 162.266C389.088 161.44 386.13 159.85 383.638 157.624L386.278 228.501C386.278 228.501 392.494 235.493 402.001 233.897V162.381Z" fill="#FAFFFF"/>
<path opacity="0.1" d="M402.001 162.381C398.796 163.132 395.465 163.093 392.277 162.266C389.088 161.44 386.13 159.85 383.638 157.624L386.278 228.501C386.278 228.501 392.494 235.493 402.001 233.897V162.381Z" fill="black"/>
<path opacity="0.1" d="M403.464 154.394C403.464 154.394 428.935 146.3 435.575 147.44L403.464 154.394Z" fill="black"/>
<path opacity="0.1" d="M374.973 150.86C374.973 150.86 350.284 144.78 346.159 146.505L374.973 150.86Z" fill="black"/>
<path opacity="0.1" d="M419.523 155.404C419.523 155.404 436.555 148.914 442.713 152L419.523 155.404Z" fill="black"/>
<path opacity="0.1" d="M410.945 318.219C413.584 316.159 416.394 314.346 419.34 312.8C423.728 310.604 431.773 304.904 431.773 304.904" fill="black"/>
<path opacity="0.1" d="M346.159 240.661C346.159 240.661 335.475 249.743 332.265 250.541C329.054 251.339 327.073 258.422 327.073 258.422" fill="black"/>
<path d="M458.333 262.108L454.925 271.76C454.925 271.76 449.806 276.32 444.197 274.04C438.588 271.76 433.718 270.628 431.275 268.409C428.833 266.189 425.425 255.04 425.425 255.04C425.425 255.04 422.017 242.88 418.602 239.84C415.187 236.8 406.17 194.917 418.602 199.013C431.034 203.11 440.541 241.109 440.541 241.109C440.541 241.109 442.735 243.891 445.901 244.149C449.068 244.408 455.408 243.64 456.629 246.429C457.851 249.219 461.99 256.56 458.333 262.108Z" fill="#BE6F72"/>
<path opacity="0.1" d="M452.358 244.354C452.358 244.354 459.342 249.021 459.313 254.599L452.358 244.354Z" fill="black"/>
<path d="M393.101 109.09C411.143 109.09 425.769 93.8906 425.769 75.141C425.769 56.3914 411.143 41.1919 393.101 41.1919C375.06 41.1919 360.434 56.3914 360.434 75.141C360.434 93.8906 375.06 109.09 393.101 109.09Z" fill="#BE6F72"/>
<path d="M372.589 66.0286C376.552 65.3826 380.026 62.9886 383.814 61.613C392.29 58.5198 401.665 60.6402 410.243 63.4294C413.534 64.501 416.876 65.7094 420.328 65.7094C423.779 65.7094 427.443 64.2426 429.206 61.1494C430.829 58.307 430.515 54.6134 429.147 51.6266C427.78 48.6398 425.491 46.2382 423.18 43.9734C415.574 36.5102 406.141 29.5335 395.705 30.2935C391.507 30.6051 387.492 32.1631 383.631 33.8882C378.769 36.0656 374.037 38.5426 369.459 41.3058C365.941 43.4262 359.425 46.261 357.4 50.137C352.792 58.8694 365.422 67.199 372.589 66.0286Z" fill="#3E373A"/>
<path opacity="0.1" d="M429.206 57.9574C427.443 61.0506 423.779 62.5174 420.328 62.5174C416.876 62.5174 413.534 61.3546 410.236 60.283C401.658 57.4938 392.29 55.3658 383.807 58.4666C380.026 59.8422 376.545 62.2666 372.581 62.8746C366.804 63.817 357.502 58.5882 356.493 51.9382C355.359 59.6218 366.146 66.2034 372.581 65.1546C376.545 64.5086 380.026 62.1146 383.807 60.7466C392.29 57.6458 401.658 59.7738 410.236 62.563C413.534 63.6346 416.869 64.843 420.328 64.7974C423.787 64.7518 427.443 63.3382 429.206 60.2374C430.119 58.5505 430.479 56.6001 430.23 54.6818C430.115 55.8367 429.766 56.9533 429.206 57.9574Z" fill="black"/>
<path d="M694.308 469.838C694.308 469.838 698.645 475.728 692.304 484.628C685.964 493.528 680.743 501.036 682.849 506.584C682.849 506.584 692.414 490.062 700.195 489.826C707.976 489.591 702.857 479.772 694.308 469.838Z" fill="#FAFFFF"/>
<path opacity="0.1" d="M694.308 469.838C694.686 470.407 694.984 471.029 695.193 471.685C702.784 480.957 706.835 489.614 699.53 489.826C692.729 490.032 684.575 502.67 682.622 505.855C682.685 506.112 682.76 506.366 682.849 506.615C682.849 506.615 692.414 490.092 700.195 489.857C707.976 489.621 702.857 479.772 694.308 469.838Z" fill="black"/>
<path d="M702.352 477.347C702.352 479.422 702.126 481.102 701.855 481.102C701.584 481.102 701.35 479.422 701.35 477.347C701.35 475.272 701.628 476.253 701.906 476.253C702.184 476.253 702.352 475.272 702.352 477.347Z" fill="#FFD037"/>
<path d="M705.124 479.825C703.376 480.813 701.848 481.413 701.716 481.162C701.585 480.911 702.894 479.901 704.641 478.882C706.389 477.864 705.702 478.609 705.833 478.882C705.965 479.156 706.879 478.829 705.124 479.825Z" fill="#FFD037"/>
<path opacity="0.1" d="M671.389 469.838C671.012 470.407 670.714 471.029 670.504 471.685C662.913 480.957 658.862 489.614 666.168 489.826C672.962 490.032 681.123 502.67 683.075 505.855C683.014 506.113 682.936 506.367 682.841 506.615C682.841 506.615 673.283 490.092 665.495 489.857C657.707 489.621 662.862 479.772 671.389 469.838Z" fill="black"/>
<path d="M663.33 477.347C663.33 479.422 663.55 481.102 663.828 481.102C664.106 481.102 664.332 479.422 664.332 477.347C664.332 475.272 664.047 476.253 663.776 476.253C663.506 476.253 663.33 475.272 663.33 477.347Z" fill="#FFD037"/>
<path d="M660.566 479.825C662.314 480.813 663.842 481.413 663.974 481.162C664.106 480.911 662.797 479.901 661.049 478.882C659.301 477.864 659.988 478.609 659.857 478.882C659.725 479.156 658.811 478.829 660.566 479.825Z" fill="#FFD037"/>
<path opacity="0.1" d="M682.849 551.667C707.89 551.667 728.189 548.431 728.189 544.44C728.189 540.448 707.89 537.212 682.849 537.212C657.808 537.212 637.508 540.448 637.508 544.44C637.508 548.431 657.808 551.667 682.849 551.667Z" fill="#FAFFFF"/>
<path d="M706.184 498.642L705.965 500.482L705.658 503.081L705.533 504.168L705.226 506.767L705.095 507.854L704.795 510.445L701.321 540.009C701.014 542.646 696.868 544.706 691.858 544.706H673.832C668.822 544.706 664.683 542.646 664.369 540.009L660.895 510.445L660.588 507.854L660.464 506.767L660.157 504.168L660.025 503.081L659.725 500.482L659.506 498.642C659.337 497.122 661.575 495.891 664.413 495.891H701.285C704.115 495.891 706.36 497.145 706.184 498.642Z" fill="#65617D"/>
<path d="M705.965 500.481L705.665 503.081H660.032L659.725 500.481H705.965Z" fill="#9D9CB5"/>
<path d="M705.534 504.167L705.234 506.767H660.464L660.157 504.167H705.534Z" fill="#9D9CB5"/>
<path d="M705.102 507.854L704.795 510.453H660.895L660.595 507.854H705.102Z" fill="#9D9CB5"/>
</g>
<defs>
<linearGradient id="paint0_linear" x1="399.756" y1="381.458" x2="399.756" y2="-0.000114408" gradientUnits="userSpaceOnUse">
<stop stop-color="#808080" stop-opacity="0.25"/>
<stop offset="0.54" stop-color="#808080" stop-opacity="0.12"/>
<stop offset="1" stop-color="#808080" stop-opacity="0.1"/>
</linearGradient>
<clipPath id="clip0">
<rect width="748" height="618" fill="white"/>
</clipPath>
</defs>
</svg>
