<svg width="227" height="181" viewBox="0 0 227 181" fill="none" xmlns="http://www.w3.org/2000/svg">
<g clip-path="url(#clip0)">
<path d="M122.176 171.692C122.511 171.692 122.841 171.571 123.132 171.343L178.435 128.188C178.885 127.836 179.215 127.253 179.353 126.565C179.491 125.878 179.426 125.143 179.173 124.522L135.614 18.1828C135.489 17.8752 135.32 17.6049 135.118 17.3873C134.917 17.1696 134.686 17.009 134.439 16.9144C134.193 16.8199 133.935 16.7934 133.681 16.8364C133.427 16.8794 133.181 16.9911 132.959 17.165L77.6557 60.3197C77.2062 60.6714 76.8761 61.2548 76.7378 61.942C76.5995 62.6292 76.6643 63.3641 76.918 63.9854L120.476 170.324C120.602 170.633 120.77 170.903 120.972 171.121C121.174 171.339 121.405 171.499 121.652 171.593C121.822 171.659 121.999 171.692 122.176 171.692Z" fill="#E6E6E6"/>
<path d="M137.157 22.3491L137.379 22.8916L78.9316 68.5001L78.7093 67.9576L137.157 22.3491Z" fill="white"/>
<path d="M141.157 32.1147L141.379 32.6572L82.9318 78.2657L82.7096 77.7232L141.157 32.1147Z" fill="white"/>
<path d="M145.157 41.8803L145.38 42.4229L86.932 88.0314L86.7098 87.4888L145.157 41.8803Z" fill="white"/>
<path d="M149.158 51.6464L149.38 52.189L90.9323 97.7975L90.7101 97.2549L149.158 51.6464Z" fill="white"/>
<path d="M153.158 61.4121L153.38 61.9546L94.9326 107.563L94.7103 107.021L153.158 61.4121Z" fill="white"/>
<path d="M157.158 71.1782L157.38 71.7207L98.9326 117.329L98.7104 116.787L157.158 71.1782Z" fill="white"/>
<path d="M161.158 80.9438L161.38 81.4863L102.933 127.095L102.711 126.552L161.158 80.9438Z" fill="white"/>
<path d="M165.158 90.7094L165.381 91.252L106.933 136.86L106.711 136.318L165.158 90.7094Z" fill="white"/>
<path d="M169.159 100.476L169.381 101.018L110.934 146.627L110.711 146.084L169.159 100.476Z" fill="white"/>
<path d="M173.159 110.241L173.381 110.784L114.934 156.392L114.712 155.85L173.159 110.241Z" fill="white"/>
<path d="M177.159 120.007L177.381 120.55L118.934 166.158L118.712 165.616L177.159 120.007Z" fill="white"/>
<path d="M127.32 155.518C127.656 155.518 127.985 155.397 128.277 155.169L183.58 112.014C184.029 111.662 184.359 111.079 184.498 110.392C184.636 109.704 184.571 108.969 184.317 108.348L140.759 2.00899C140.633 1.7014 140.464 1.43106 140.263 1.21343C140.061 0.995795 139.83 0.835127 139.584 0.740609C139.337 0.646091 139.079 0.619573 138.825 0.662568C138.571 0.705564 138.326 0.817234 138.103 0.991194L82.8002 44.1458C82.3507 44.4976 82.0206 45.081 81.8823 45.7682C81.744 46.4554 81.8088 47.1903 82.0625 47.8116L125.621 154.151C125.746 154.459 125.915 154.73 126.116 154.947C126.318 155.165 126.549 155.325 126.796 155.419C126.967 155.485 127.143 155.518 127.32 155.518Z" fill="#F2F2F2"/>
<path d="M142.302 6.17524L142.524 6.71777L84.0762 52.3263L83.854 51.7837L142.302 6.17524Z" fill="white"/>
<path d="M146.302 15.9409L146.524 16.4834L88.0766 62.0919L87.8544 61.5494L146.302 15.9409Z" fill="white"/>
<path d="M150.302 25.7065L150.524 26.249L92.0768 71.8575L91.8546 71.315L150.302 25.7065Z" fill="white"/>
<path d="M154.302 35.4726L154.525 36.0151L96.077 81.6236L95.8547 81.0811L154.302 35.4726Z" fill="white"/>
<path d="M158.302 45.2382L158.525 45.7808L100.077 91.3893L99.8549 90.8467L158.302 45.2382Z" fill="white"/>
<path d="M162.303 55.0043L162.525 55.5469L104.077 101.155L103.855 100.613L162.303 55.0043Z" fill="white"/>
<path d="M166.303 64.77L166.525 65.3125L108.078 110.921L107.855 110.378L166.303 64.77Z" fill="white"/>
<path d="M170.303 74.5361L170.526 75.0786L112.078 120.687L111.856 120.145L170.303 74.5361Z" fill="white"/>
<path d="M174.303 84.3017L174.526 84.8442L116.078 130.453L115.856 129.91L174.303 84.3017Z" fill="white"/>
<path d="M178.304 94.0673L178.526 94.6099L120.078 140.218L119.856 139.676L178.304 94.0673Z" fill="white"/>
<path d="M182.304 103.833L182.526 104.376L124.079 149.984L123.856 149.442L182.304 103.833Z" fill="white"/>
<path d="M132.831 0H221.214V169.628H132.831C132.514 169.628 132.209 169.454 131.985 169.144C131.76 168.834 131.634 168.414 131.634 167.975V1.65222C131.634 1.21402 131.76 0.793785 131.985 0.483936C132.209 0.174088 132.514 9.4157e-06 132.831 0ZM216.226 164.946C216.661 164.946 217.085 164.769 217.446 164.436C217.807 164.103 218.088 163.63 218.254 163.076C218.42 162.523 218.464 161.914 218.379 161.326C218.294 160.739 218.085 160.199 217.778 159.775C217.471 159.352 217.08 159.063 216.655 158.946C216.229 158.83 215.788 158.89 215.387 159.119C214.986 159.348 214.643 159.736 214.402 160.234C214.161 160.733 214.032 161.318 214.032 161.917C214.032 162.315 214.089 162.709 214.199 163.076C214.309 163.444 214.471 163.778 214.675 164.059C214.878 164.34 215.12 164.564 215.387 164.716C215.653 164.868 215.938 164.946 216.226 164.946ZM216.226 149.526C216.661 149.526 217.085 149.348 217.446 149.015C217.807 148.682 218.088 148.209 218.254 147.656C218.42 147.102 218.464 146.493 218.379 145.906C218.294 145.318 218.085 144.778 217.778 144.355C217.471 143.931 217.08 143.643 216.655 143.526C216.229 143.409 215.788 143.469 215.387 143.698C214.986 143.927 214.643 144.316 214.402 144.814C214.161 145.312 214.032 145.898 214.032 146.497C214.032 146.894 214.089 147.288 214.199 147.656C214.309 148.023 214.471 148.357 214.675 148.639C214.878 148.92 215.12 149.143 215.387 149.295C215.653 149.447 215.938 149.526 216.226 149.526ZM216.226 134.105C216.661 134.105 217.085 133.927 217.446 133.595C217.807 133.262 218.088 132.789 218.254 132.235C218.42 131.682 218.464 131.073 218.379 130.485C218.294 129.897 218.085 129.358 217.778 128.934C217.471 128.51 217.08 128.222 216.655 128.105C216.229 127.988 215.788 128.048 215.387 128.277C214.986 128.507 214.643 128.895 214.402 129.393C214.161 129.891 214.032 130.477 214.032 131.076C214.032 131.474 214.089 131.868 214.199 132.235C214.309 132.603 214.471 132.937 214.675 133.218C214.878 133.499 215.12 133.722 215.387 133.874C215.653 134.027 215.938 134.105 216.226 134.105ZM216.226 118.684C216.661 118.684 217.085 118.507 217.446 118.174C217.807 117.841 218.088 117.368 218.254 116.814C218.42 116.261 218.464 115.652 218.379 115.064C218.294 114.477 218.085 113.937 217.778 113.513C217.471 113.09 217.08 112.801 216.655 112.684C216.229 112.567 215.788 112.627 215.387 112.857C214.986 113.086 214.643 113.474 214.402 113.972C214.161 114.47 214.032 115.056 214.032 115.655C214.032 116.053 214.089 116.447 214.199 116.814C214.309 117.182 214.471 117.516 214.675 117.797C214.878 118.078 215.12 118.301 215.387 118.454C215.653 118.606 215.938 118.684 216.226 118.684ZM216.226 103.264C216.661 103.264 217.085 103.086 217.446 102.753C217.807 102.42 218.088 101.947 218.254 101.394C218.42 100.84 218.464 100.231 218.379 99.6436C218.294 99.056 218.085 98.5163 217.778 98.0927C217.471 97.669 217.08 97.3805 216.655 97.2637C216.229 97.1468 215.788 97.2068 215.387 97.4361C214.986 97.6653 214.643 98.0535 214.402 98.5517C214.161 99.0498 214.032 99.6354 214.032 100.235C214.032 100.632 214.089 101.026 214.199 101.394C214.309 101.761 214.471 102.095 214.675 102.376C214.878 102.658 215.12 102.881 215.387 103.033C215.653 103.185 215.938 103.264 216.226 103.264ZM216.226 87.8429C216.661 87.8429 217.085 87.6652 217.446 87.3324C217.807 86.9996 218.088 86.5265 218.254 85.973C218.42 85.4195 218.464 84.8105 218.379 84.2229C218.294 83.6353 218.085 83.0956 217.778 82.672C217.471 82.2483 217.08 81.9598 216.655 81.843C216.229 81.7261 215.788 81.7861 215.387 82.0154C214.986 82.2446 214.643 82.6328 214.402 83.131C214.161 83.6291 214.032 84.2147 214.032 84.8138C214.032 85.2116 214.089 85.6055 214.199 85.973C214.309 86.3405 214.471 86.6744 214.675 86.9557C214.878 87.237 215.12 87.4601 215.387 87.6123C215.653 87.7645 215.938 87.8429 216.226 87.8429ZM216.226 72.4222C216.661 72.4222 217.085 72.2445 217.446 71.9117C217.807 71.5789 218.088 71.1058 218.254 70.5523C218.42 69.9988 218.464 69.3898 218.379 68.8022C218.294 68.2146 218.085 67.6749 217.778 67.2513C217.471 66.8276 217.08 66.5392 216.655 66.4223C216.229 66.3054 215.788 66.3654 215.387 66.5947C214.986 66.8239 214.643 67.2122 214.402 67.7103C214.161 68.2084 214.032 68.794 214.032 69.3931C214.032 69.7909 214.089 70.1848 214.199 70.5523C214.309 70.9198 214.471 71.2537 214.675 71.535C214.878 71.8163 215.12 72.0394 215.387 72.1916C215.653 72.3439 215.938 72.4222 216.226 72.4222ZM216.226 57.0015C216.661 57.0015 217.085 56.8239 217.446 56.491C217.807 56.1582 218.088 55.6851 218.254 55.1316C218.42 54.5781 218.464 53.9691 218.379 53.3815C218.294 52.7939 218.085 52.2542 217.778 51.8306C217.471 51.4069 217.08 51.1185 216.655 51.0016C216.229 50.8847 215.788 50.9447 215.387 51.174C214.986 51.4032 214.643 51.7915 214.402 52.2896C214.161 52.7877 214.032 53.3733 214.032 53.9724C214.032 54.3702 214.089 54.7641 214.199 55.1316C214.309 55.4991 214.471 55.833 214.675 56.1143C214.878 56.3956 215.12 56.6187 215.387 56.7709C215.653 56.9232 215.938 57.0015 216.226 57.0015ZM216.226 41.5808C216.661 41.5808 217.085 41.4032 217.446 41.0703C217.807 40.7375 218.088 40.2644 218.254 39.7109C218.42 39.1574 218.464 38.5484 218.379 37.9608C218.294 37.3732 218.085 36.8335 217.778 36.4099C217.471 35.9862 217.08 35.6978 216.655 35.5809C216.229 35.464 215.788 35.524 215.387 35.7533C214.986 35.9825 214.643 36.3708 214.402 36.8689C214.161 37.367 214.032 37.9526 214.032 38.5517C214.032 38.9495 214.089 39.3434 214.199 39.7109C214.309 40.0784 214.471 40.4123 214.675 40.6936C214.878 40.9749 215.12 41.198 215.387 41.3502C215.653 41.5025 215.938 41.5808 216.226 41.5808ZM216.226 26.1601C216.661 26.1601 217.085 25.9825 217.446 25.6496C217.807 25.3168 218.088 24.8437 218.254 24.2902C218.42 23.7367 218.464 23.1277 218.379 22.5401C218.294 21.9525 218.085 21.4128 217.778 20.9892C217.471 20.5655 217.08 20.2771 216.655 20.1602C216.229 20.0433 215.788 20.1033 215.387 20.3325C214.986 20.5618 214.643 20.9501 214.402 21.4482C214.161 21.9463 214.032 22.5319 214.032 23.131C214.032 23.5288 214.089 23.9227 214.199 24.2902C214.309 24.6577 214.471 24.9916 214.675 25.2729C214.878 25.5542 215.12 25.7773 215.387 25.9295C215.653 26.0818 215.938 26.1601 216.226 26.1601ZM216.226 10.7394C216.661 10.7394 217.085 10.5618 217.446 10.2289C217.807 9.89609 218.088 9.42302 218.254 8.86953C218.42 8.31604 218.464 7.70699 218.379 7.11941C218.294 6.53182 218.085 5.9921 217.778 5.56848C217.471 5.14485 217.08 4.85636 216.655 4.73948C216.229 4.62261 215.788 4.68259 215.387 4.91185C214.986 5.14112 214.643 5.52936 214.402 6.02749C214.161 6.52562 214.032 7.11126 214.032 7.71035C214.032 8.10813 214.089 8.50202 214.199 8.86952C214.309 9.23703 214.471 9.57095 214.675 9.85223C214.878 10.1335 215.12 10.3566 215.387 10.5088C215.653 10.6611 215.938 10.7394 216.226 10.7394Z" fill="#FFD037"/>
<path d="M221.214 9.36259C221.806 9.36259 227 9.32399 227 7.98574C227 6.64748 221.806 6.60889 221.214 6.60889V7.15963C224.273 7.15963 226.257 7.63224 226.576 7.98574C226.257 8.33922 224.273 8.81184 221.214 8.81184C218.162 8.81184 216.181 8.34122 215.855 7.98816C216.01 7.8369 216.644 7.51985 218.344 7.31695L218.31 6.76836C215.428 7.11204 215.428 7.74681 215.428 7.98574C215.428 9.32399 220.622 9.36259 221.214 9.36259Z" fill="#2F2E41"/>
<path d="M221.214 24.5081C221.806 24.5081 227 24.4695 227 23.1312C227 21.793 221.806 21.7544 221.214 21.7544V22.3051C224.273 22.3051 226.257 22.7778 226.576 23.1312C226.257 23.4847 224.273 23.9574 221.214 23.9574C218.162 23.9574 216.181 23.4867 215.855 23.1337C216.01 22.9824 216.644 22.6654 218.344 22.4625L218.31 21.9139C215.428 22.2576 215.428 22.8923 215.428 23.1313C215.428 24.4695 220.622 24.5081 221.214 24.5081Z" fill="#2F2E41"/>
<path d="M221.214 39.9285C221.806 39.9285 227 39.8899 227 38.5516C227 37.2134 221.806 37.1748 221.214 37.1748V37.7255C224.273 37.7255 226.257 38.1982 226.576 38.5516C226.257 38.9051 224.273 39.3778 221.214 39.3778C218.162 39.3778 216.181 38.9071 215.855 38.5541C216.01 38.4028 216.644 38.0858 218.344 37.8829L218.31 37.3343C215.428 37.678 215.428 38.3127 215.428 38.5517C215.428 39.8899 220.622 39.9285 221.214 39.9285Z" fill="#2F2E41"/>
<path d="M221.214 55.3494C221.806 55.3494 227 55.3108 227 53.9725C227 52.6343 221.806 52.5957 221.214 52.5957V53.1464C224.273 53.1464 226.257 53.6191 226.576 53.9725C226.257 54.326 224.273 54.7987 221.214 54.7987C218.162 54.7987 216.181 54.328 215.855 53.975C216.01 53.8237 216.644 53.5067 218.344 53.3038L218.31 52.7552C215.428 53.0989 215.428 53.7336 215.428 53.9726C215.428 55.3108 220.622 55.3494 221.214 55.3494Z" fill="#2F2E41"/>
<path d="M221.214 70.7698C221.806 70.7698 227 70.7312 227 69.393C227 68.0547 221.806 68.0161 221.214 68.0161V68.5669C224.273 68.5669 226.257 69.0395 226.576 69.393C226.257 69.7464 224.273 70.2191 221.214 70.2191C218.162 70.2191 216.181 69.7485 215.855 69.3954C216.01 69.2441 216.644 68.9271 218.344 68.7242L218.31 68.1756C215.428 68.5193 215.428 69.154 215.428 69.393C215.428 70.7312 220.622 70.7698 221.214 70.7698Z" fill="#2F2E41"/>
<path d="M221.214 86.1907C221.806 86.1907 227 86.1521 227 84.8139C227 83.4756 221.806 83.437 221.214 83.437V83.9877C224.273 83.9877 226.257 84.4604 226.576 84.8139C226.257 85.1673 224.273 85.64 221.214 85.64C218.162 85.64 216.181 85.1693 215.855 84.8163C216.01 84.665 216.644 84.348 218.344 84.1451L218.31 83.5965C215.428 83.9402 215.428 84.5749 215.428 84.8139C215.428 86.1521 220.622 86.1907 221.214 86.1907Z" fill="#2F2E41"/>
<path d="M221.214 101.612C221.806 101.612 227 101.573 227 100.235C227 98.8965 221.806 98.8579 221.214 98.8579V99.4087C224.273 99.4087 226.257 99.8813 226.576 100.235C226.257 100.588 224.273 101.061 221.214 101.061C218.162 101.061 216.181 100.59 215.855 100.237C216.01 100.086 216.644 99.7689 218.344 99.566L218.31 99.0174C215.428 99.3611 215.428 99.9958 215.428 100.235C215.428 101.573 220.622 101.612 221.214 101.612Z" fill="#2F2E41"/>
<path d="M221.214 117.032C221.806 117.032 227 116.993 227 115.655C227 114.317 221.806 114.278 221.214 114.278V114.829C224.273 114.829 226.257 115.302 226.576 115.655C226.257 116.009 224.273 116.481 221.214 116.481C218.162 116.481 216.181 116.011 215.855 115.658C216.01 115.506 216.644 115.189 218.344 114.986L218.31 114.438C215.428 114.781 215.428 115.416 215.428 115.655C215.428 116.993 220.622 117.032 221.214 117.032Z" fill="#2F2E41"/>
<path d="M221.214 132.453C221.806 132.453 227 132.414 227 131.076C227 129.738 221.806 129.699 221.214 129.699V130.25C224.273 130.25 226.257 130.723 226.576 131.076C226.257 131.43 224.273 131.902 221.214 131.902C218.162 131.902 216.181 131.432 215.855 131.078C216.01 130.927 216.644 130.61 218.344 130.407L218.31 129.859C215.428 130.202 215.428 130.837 215.428 131.076C215.428 132.414 220.622 132.453 221.214 132.453Z" fill="#2F2E41"/>
<path d="M221.214 147.873C221.806 147.873 227 147.835 227 146.496C227 145.158 221.806 145.12 221.214 145.12V145.67C224.273 145.67 226.257 146.143 226.576 146.496C226.257 146.85 224.273 147.323 221.214 147.323C218.162 147.323 216.181 146.852 215.855 146.499C216.01 146.348 216.644 146.031 218.344 145.828L218.31 145.279C215.428 145.623 215.428 146.258 215.428 146.496C215.428 147.835 220.622 147.873 221.214 147.873Z" fill="#2F2E41"/>
<path d="M221.214 163.294C221.806 163.294 227 163.256 227 161.917C227 160.579 221.806 160.541 221.214 160.541V161.091C224.273 161.091 226.257 161.564 226.576 161.917C226.257 162.271 224.273 162.743 221.214 162.743C218.162 162.743 216.181 162.273 215.855 161.92C216.01 161.769 216.644 161.451 218.344 161.249L218.31 160.7C215.428 161.044 215.428 161.678 215.428 161.917C215.428 163.256 220.622 163.294 221.214 163.294Z" fill="#2F2E41"/>
<path d="M150.887 64.8495H194.779C195.123 64.8489 195.453 64.6602 195.696 64.3246C195.939 63.9891 196.076 63.5341 196.076 63.0596V39.3778C196.076 38.9033 195.939 38.4483 195.696 38.1127C195.453 37.7772 195.123 37.5884 194.779 37.5879H150.887C150.543 37.5884 150.214 37.7772 149.971 38.1127C149.727 38.4483 149.591 38.9033 149.59 39.3778V63.0596C149.591 63.5341 149.727 63.9891 149.971 64.3246C150.214 64.6602 150.543 64.849 150.887 64.8495Z" fill="white"/>
<path d="M167.247 45.7112H178.419C178.684 45.7112 178.938 45.5661 179.125 45.3079C179.312 45.0497 179.417 44.6995 179.417 44.3344C179.417 43.9692 179.312 43.619 179.125 43.3608C178.938 43.1026 178.684 42.9575 178.419 42.9575H167.247C166.982 42.9575 166.728 43.1026 166.541 43.3608C166.354 43.619 166.249 43.9692 166.249 44.3344C166.249 44.6995 166.354 45.0497 166.541 45.3079C166.728 45.5661 166.982 45.7112 167.247 45.7112H167.247Z" fill="#6C63FF"/>
<path d="M161.062 52.5955H184.604C184.869 52.5955 185.123 52.4504 185.31 52.1922C185.497 51.934 185.602 51.5838 185.602 51.2186C185.602 50.8535 185.497 50.5033 185.31 50.2451C185.123 49.9869 184.869 49.8418 184.604 49.8418H161.062C160.798 49.8418 160.544 49.9869 160.357 50.2451C160.17 50.5033 160.065 50.8535 160.065 51.2186C160.065 51.5838 160.17 51.934 160.357 52.1922C160.544 52.4504 160.798 52.5955 161.062 52.5955Z" fill="#6C63FF"/>
<path d="M161.062 59.4798H184.604C184.869 59.4798 185.123 59.3347 185.31 59.0765C185.497 58.8183 185.602 58.4681 185.602 58.1029C185.602 57.7378 185.497 57.3875 185.31 57.1293C185.123 56.8711 184.869 56.7261 184.604 56.7261H161.062C160.798 56.7261 160.544 56.8711 160.357 57.1293C160.17 57.3875 160.065 57.7378 160.065 58.1029C160.065 58.4681 160.17 58.8183 160.357 59.0765C160.544 59.3347 160.798 59.4798 161.062 59.4798Z" fill="#6C63FF"/>
<path d="M47.046 57.1722C46.4226 57.1724 45.8119 56.9295 45.2842 56.4715C44.7565 56.0136 44.3333 55.3592 44.0632 54.5838C43.7932 53.8083 43.6873 52.9433 43.7579 52.0885C43.8284 51.2337 44.0725 50.4237 44.462 49.752C46.0918 46.9408 49.6598 47.3714 51.0872 44.3578C52.2968 41.804 51.1798 38.297 49.5688 36.2077C46.4151 32.1176 41.3667 31.1125 37.5041 33.8058C33.6415 36.4991 31.2321 42.7043 31.7462 48.635C31.9421 50.8939 32.396 53.6355 31.1258 55.0855C29.9985 56.3723 28.3324 55.6419 26.9164 55.1351C24.8163 54.4045 22.6267 54.3095 20.4976 54.8566C18.3684 55.4037 16.3502 56.58 14.5814 58.3047C11.5735 61.2801 9.38112 66.0856 9.37975 71.1932C9.37837 76.3009 11.8987 81.448 15.5053 82.5916C19.0407 83.7125 22.6848 80.9872 25.1857 77.3605C27.6865 73.7338 29.4036 69.2231 31.6828 65.3281C33.962 61.4332 37.1158 58.0025 40.7426 57.9122C42.844 57.86 45.1446 58.8807 46.9282 57.3459" fill="#2F2E41"/>
<path d="M45.487 59.2059C41.6101 59.2059 38.4673 54.8681 38.4673 49.517C38.4673 44.166 41.6101 39.8281 45.487 39.8281C49.364 39.8281 52.5068 44.166 52.5068 49.517C52.5068 54.8681 49.364 59.2059 45.487 59.2059Z" fill="#FFB8B8"/>
<path d="M60.4196 113.792C60.5434 113.237 60.5776 112.653 60.5199 112.078C60.4622 111.504 60.3139 110.954 60.0855 110.467C59.8571 109.98 59.5542 109.568 59.1981 109.261C58.8419 108.953 58.4412 108.757 58.0242 108.686L55.8801 94.9033L52.1615 100.13L54.7677 112.417C54.7279 113.392 54.9486 114.353 55.3879 115.118C55.8272 115.884 56.4546 116.4 57.1513 116.569C57.8479 116.739 58.5654 116.55 59.1678 116.038C59.7702 115.526 60.2156 114.727 60.4196 113.792Z" fill="#FFB8B8"/>
<path d="M24.3628 173.655L27.8066 174.546L38.1886 127.481L30.8193 126.165L24.3628 173.655Z" fill="#FFB8B8"/>
<path d="M30.4519 173.826L23.8102 172.106L23.0256 177.878L33.8492 180.681C33.9522 179.923 33.9461 179.145 33.8311 178.39C33.7161 177.635 33.4946 176.919 33.1791 176.283C32.8637 175.646 32.4605 175.102 31.9925 174.68C31.5246 174.259 31.0011 173.968 30.4519 173.826Z" fill="#2F2E41"/>
<path d="M46.9306 176.19L50.4344 176.189L50.9583 132.604L43.5004 132.604L46.9306 176.19Z" fill="#FFB8B8"/>
<path d="M52.9373 174.808H46.1797V180.68H57.1921C57.1921 179.909 57.0821 179.145 56.8683 178.433C56.6544 177.72 56.341 177.073 55.9459 176.528C55.5508 175.982 55.0818 175.55 54.5656 175.255C54.0494 174.96 53.4961 174.808 52.9373 174.808Z" fill="#2F2E41"/>
<path d="M52.5706 138.536L52.2488 117.235C52.2734 116.935 54.8046 84.6634 55.748 76.4174C56.7065 68.0381 51.7534 63.7415 51.7034 63.6992C51.4815 63.5738 51.2811 63.4676 51.081 63.3657C48.7381 62.1422 46.1923 61.8583 43.7375 62.5468C41.2827 63.2353 39.0191 64.8682 37.2081 67.2568C35.3329 69.645 33.9772 72.7074 33.2934 76.1002C32.6096 79.4931 32.6248 83.0818 33.3371 86.4634L35.0843 94.8123C26.1332 117.148 24.2964 126.76 24.2788 126.854L24.2735 126.883L24.2746 126.913C24.5956 135.771 51.2789 138.413 52.4146 138.521L52.5706 138.536Z" fill="#FFD037"/>
<path d="M54.6521 72.4336L60.6992 105.379L49.8782 107.136L54.6521 72.4336Z" fill="#FFD037"/>
<path d="M40.0341 99.6648C39.9601 99.0939 39.7964 98.5524 39.5543 98.0784C39.3123 97.6043 38.9979 97.2093 38.6333 96.9211C38.2687 96.6329 37.8628 96.4585 37.444 96.4103C37.0253 96.3621 36.604 96.4411 36.2099 96.6419L29.7279 85.748L28.1582 92.7458L34.5543 102.018C34.8426 102.91 35.3579 103.624 36.0024 104.026C36.6469 104.429 37.376 104.491 38.0515 104.201C38.7269 103.911 39.3018 103.289 39.6672 102.453C40.0326 101.617 40.1632 100.625 40.0341 99.6648Z" fill="#FFB8B8"/>
<path d="M31.5684 99.6917L37.2106 94.6536L31.8405 86.8055L46.4011 80.6889L42.6549 65.626L38.0465 66.5346L26.3319 78.5114C24.8425 80.0458 23.8485 82.3255 23.5637 84.8605C23.2788 87.3955 23.7258 89.9836 24.8086 92.0687L24.834 92.106L31.5684 99.6917Z" fill="#FFD037"/>
<path d="M51.808 44.0102C48.7873 46.5552 45.3819 48.104 41.8568 48.5358L42.9057 46.8011C42.142 47.1909 41.3383 47.4111 40.5246 47.4537C39.7118 47.4362 38.8603 47.0043 38.399 46.0805C38.1933 45.6213 38.0711 45.1002 38.0428 44.5617C38.0145 44.0232 38.081 43.4832 38.2367 42.9879C38.5563 41.9998 39.0539 41.1412 39.6819 40.4936C40.7952 39.278 42.1091 38.4616 43.5064 38.1169C44.9037 37.7722 46.3412 37.91 47.6906 38.518C48.6162 38.8999 49.4451 39.6338 50.0825 40.6358C50.6871 41.6652 52.0057 42.5909 51.6961 43.8452L51.808 44.0102Z" fill="#2F2E41"/>
<path d="M0.340317 181H87.3105C87.4007 181 87.4873 180.95 87.5511 180.862C87.6149 180.774 87.6508 180.655 87.6508 180.53C87.6508 180.406 87.6149 180.286 87.5511 180.198C87.4873 180.11 87.4007 180.061 87.3105 180.061H0.340317C0.250237 180.061 0.163925 180.111 0.100319 180.199C0.0367126 180.287 0.000991821 180.406 0.000991821 180.53C0.000991821 180.655 0.0367126 180.774 0.100319 180.862C0.163925 180.95 0.250237 181 0.340317 181Z" fill="#3F3D56"/>
</g>
<defs>
<clipPath id="clip0">
<rect width="227" height="181" fill="white" transform="matrix(-1 0 0 1 227 0)"/>
</clipPath>
</defs>
</svg>
