<svg width="228" height="180" viewBox="0 0 228 180" fill="none" xmlns="http://www.w3.org/2000/svg">
<g clip-path="url(#clip0)">
<path d="M199.389 51.914H168.908C164.783 38.911 162.991 26.8206 168.908 17.7451C168.908 15.4148 169.302 13.1073 170.068 10.9544C170.834 8.80143 171.957 6.84522 173.372 5.19743C174.787 3.54965 176.467 2.24255 178.316 1.35077C180.165 0.458996 182.147 4.87814e-06 184.149 4.87814e-06H184.149C186.581 -0.00209616 188.978 0.67453 191.14 1.9732C193.301 3.27187 195.164 5.15476 196.572 7.46414C198.981 11.4027 199.463 16.4799 198.082 21.0396C195.621 29.1662 197.124 40.2551 199.389 51.914Z" fill="#2F2E41"/>
<path d="M215.487 180C214.605 180 213.746 179.671 213.037 179.061C212.327 178.45 211.804 177.591 211.545 176.61L210.289 171.858C209.999 170.758 209.943 169.593 210.126 168.462L210.982 163.199H216.981L219.47 173.947C219.635 174.659 219.657 175.405 219.534 176.129C219.411 176.852 219.147 177.533 218.762 178.118C218.377 178.703 217.881 179.177 217.313 179.504C216.745 179.83 216.121 180 215.487 180Z" fill="#2F2E41"/>
<path d="M171.78 180C172.662 180 173.521 179.671 174.23 179.061C174.94 178.45 175.463 177.591 175.722 176.61L176.978 171.858C177.268 170.758 177.324 169.593 177.14 168.462L176.285 163.199H170.286L167.797 173.947C167.632 174.659 167.61 175.405 167.733 176.129C167.856 176.852 168.12 177.533 168.505 178.118C168.89 178.703 169.386 179.177 169.954 179.504C170.522 179.83 171.146 180 171.78 180Z" fill="#2F2E41"/>
<path d="M217.467 163.765H210.82L181.96 99.9581L176.636 163.765H170.773C167.765 123.585 160.447 85.3114 170.773 70.8862L194.93 73.5291L217.467 163.765Z" fill="#2F2E41"/>
<path d="M183.338 27.7504C187.815 27.7504 191.445 23.5244 191.445 18.3115C191.445 13.0985 187.815 8.87256 183.338 8.87256C178.861 8.87256 175.231 13.0985 175.231 18.3115C175.231 23.5244 178.861 27.7504 183.338 27.7504Z" fill="#FFC4D0"/>
<path d="M194.768 54.6514H176.771L173.691 38.0389C179.667 35.9832 181.092 31.2018 179.852 24.8244L189.58 24.0693C190.131 29.2064 191.14 33.9964 197.362 34.8297L194.768 54.6514Z" fill="#FFB8B8"/>
<path d="M194.768 75.4168C184.558 79.9307 176.251 79.7899 170.448 73.529C173.067 63.4743 173.224 51.0928 172.07 37.4724L175.312 35.7733L176.447 47.8552L192.498 46.9113L196.065 33.6968L199.632 34.6407C199.906 51.0247 199.063 65.7641 194.768 75.4168Z" fill="#FFD037"/>
<path d="M204.172 95.805L206.078 103.019C206.233 103.603 206.267 104.222 206.179 104.825C206.091 105.427 205.882 105.998 205.57 106.49C205.258 106.981 204.851 107.381 204.383 107.657C203.914 107.932 203.396 108.076 202.871 108.076C202.401 108.076 201.936 107.961 201.506 107.738C201.077 107.515 200.692 107.19 200.377 106.784C200.063 106.377 199.825 105.898 199.679 105.377C199.534 104.857 199.484 104.306 199.533 103.762L200.281 95.4275L197.2 67.1107L199.47 54.6514H205.145L204.172 95.805Z" fill="#FFC4D0"/>
<path d="M158.762 94.3043L155.412 100.766C155.141 101.289 154.979 101.88 154.939 102.489C154.899 103.099 154.983 103.711 155.183 104.276C155.384 104.842 155.695 105.344 156.093 105.744C156.49 106.143 156.963 106.428 157.472 106.577C157.929 106.709 158.404 106.729 158.867 106.634C159.33 106.539 159.77 106.332 160.16 106.026C160.55 105.72 160.88 105.322 161.13 104.858C161.379 104.394 161.542 103.875 161.608 103.333L162.616 95.0353L171.495 68.4303L173.286 55.6894L166.379 54.1016L158.762 94.3043Z" fill="#FFC4D0"/>
<path d="M209.198 56.1615L198.497 55.9727V34.2632L200.145 34.5429C201.894 34.8399 203.506 35.8129 204.722 37.3055C205.938 38.7981 206.688 40.7236 206.851 42.7725L209.198 56.1615Z" fill="#FFD037"/>
<path d="M163.477 58.4271L174.177 58.2383V36.5288L172.53 36.8086C170.781 37.1055 169.169 38.0785 167.953 39.5711C166.736 41.0637 165.986 42.9893 165.823 45.0381L163.477 58.4271Z" fill="#FFD037"/>
<path d="M190.796 13.781C187.352 16.0497 180.734 17.0874 175.88 15.48L174.258 5.66357H190.309L190.796 13.781Z" fill="#2F2E41"/>
<path d="M63.3085 130.297H10.5076V179.847H63.3085V130.297Z" fill="#E6E6E6"/>
<path d="M41.3739 165.472H32.4424V179.541H41.3739V165.472Z" fill="#536DFE"/>
<path d="M128.2 131.761L129.606 127.397L142.722 118.67L151.623 116.489L128.2 131.761Z" fill="#536DFE"/>
<path d="M79.9507 131.761L78.5453 127.397L65.4288 118.67L56.5283 116.489L79.9507 131.761Z" fill="#536DFE"/>
<path d="M129.137 132.851H79.0138L74.7979 109.943H133.353L129.137 132.851Z" fill="#FC5185"/>
<path opacity="0.1" d="M129.137 132.851H79.0138L74.7979 109.943H133.353L129.137 132.851Z" fill="black"/>
<path d="M129.371 131.488H78.7793V179.847H129.371V131.488Z" fill="#FC5185"/>
<path d="M108.541 165.464H99.6099V179.534H108.541V165.464Z" fill="#3F3D56"/>
<path d="M227.896 179.905H0V179.238H228L227.896 179.905Z" fill="#3F3D56"/>
<path d="M114.583 141.385H93.5679V149.031H114.583V141.385Z" fill="white"/>
<path d="M47.2763 141.385H26.261V149.031H47.2763V141.385Z" fill="white"/>
</g>
<defs>
<clipPath id="clip0">
<rect width="228" height="180" fill="white"/>
</clipPath>
</defs>
</svg>
